<?xml version="1.0" encoding="utf-8"?>
<!-- Generator: Adobe Illustrator 28.3.0, SVG Export Plug-In . SVG Version: 6.00 Build 0)  -->
<svg version="1.1" id="Layer_1" xmlns="http://www.w3.org/2000/svg" xmlns:xlink="http://www.w3.org/1999/xlink" x="0px" y="0px"
	 viewBox="0 0 119.9 130.9" style="enable-background:new 0 0 119.9 130.9;" xml:space="preserve">
<style type="text/css">
	.st0{fill:#7B69F8;}
</style>
<g>
	<path class="st0" d="M42.8,98.8c-5.3-2.9-9.7-7.3-12.6-12.6c-0.3-0.6-1.1-0.6-1.4,0c-2.9,5.3-7.3,9.7-12.6,12.6
		c-0.6,0.3-0.6,1.1,0,1.4c5.3,2.9,9.7,7.3,12.6,12.6c0.3,0.6,1.1,0.6,1.4,0c2.9-5.3,7.3-9.7,12.6-12.6
		C43.4,99.9,43.4,99.1,42.8,98.8z"/>
	<path class="st0" d="M66.4,16.9H29.6V64c0,15.3,13.5,31.3,28.8,31.7V80h12c21.6,0,33.8-11.5,33.8-31.6
		C104.1,29.6,92,16.9,66.4,16.9z M75.2,49.4c-6.7,3.7-12.3,9.3-16,16c-0.4,0.7-1.4,0.7-1.8,0c-3.7-6.7-9.3-12.2-16-16
		c-0.7-0.4-0.7-1.4,0-1.8c6.7-3.7,12.3-9.3,16-16c0.4-0.7,1.4-0.7,1.8,0c3.7,6.7,9.3,12.3,16,16C75.9,48,75.9,49,75.2,49.4z"/>
</g>
</svg>
