<?xml version="1.0" encoding="utf-8"?>
<!-- Generator: Adobe Illustrator 28.3.0, SVG Export Plug-In . SVG Version: 6.00 Build 0)  -->
<svg version="1.1" id="Layer_1" xmlns="http://www.w3.org/2000/svg" xmlns:xlink="http://www.w3.org/1999/xlink" x="0px" y="0px"
	 viewBox="0 0 803.1 197" style="enable-background:new 0 0 803.1 197;" xml:space="preserve">
<style type="text/css">
	.st0{fill:#7B69F8;}
</style>
<g>
	<g>
		<path class="st0" d="M204.9,55.2c31.4,0,46.2,15.7,46.2,38.7c0,24.7-15,38.9-41.6,38.9h-14.7v22.4h-35.3v-100
			C159.5,55.2,204.9,55.2,204.9,55.2z M204.2,106.4c8.9,0,12.5-3.8,12.5-10.9c0-4.9-2.3-10.4-13.4-10.4h-8.6v21.3
			C194.7,106.4,204.2,106.4,204.2,106.4z"/>
		<path class="st0" d="M305.2,111.3c-2.3-0.4-1.4-0.3-4.1-0.3c-6.5,0-11.9,2.7-15,5.9v38.2h-32.2V80h24l5.6,11.3h0.8
			c4.9-11,11.6-12.4,18.5-12.4c3.8,0,7.2,1.1,8.3,1.8L305.2,111.3z"/>
		<path class="st0" d="M308.3,119.3c0-24.8,13.8-40.6,42.1-40.6c24.1,0,36.3,10.8,36.3,27.5c0,6.8-1.2,14.3-1.9,16.5h-44.3
			c0,6.8,3.3,10.4,15.3,10.4c10.2,0,21.8-2.2,26.2-3.7l2.2,21.4c-4.9,2.3-17.2,5.7-33.4,5.7C325.4,156.6,308.3,143.7,308.3,119.3z
			 M340.6,107.7h15c0,0,0.1-2.9,0.1-4.2c0-4.4-2.3-6.5-6.7-6.5C343.6,97,341.3,99.8,340.6,107.7z"/>
		<path class="st0" d="M390.1,80.2h24l5.6,10.9h0.5c4.5-8.2,12-12.4,23.2-12.4c11.3,0,19.6,4.4,23.2,12.7h0.4
			c4.6-8.5,12.3-12.7,23-12.7c16.6,0,25.6,9.1,25.6,25.5v51h-32.1v-43.1c0-4.2-1.9-6.4-5.7-6.4c-3.1,0-6.5,1.4-9,4.1v45.4h-31.9
			v-43.1c0-4.2-1.9-6.4-5.7-6.4c-3.3,0-6.5,1.4-9,4.1v45.4H390L390.1,80.2L390.1,80.2z"/>
		<path class="st0" d="M776.1,117.8c0,21.3-14.9,38.9-44.1,38.9c-27.8,0-44.2-16-44.2-38.9s16.6-39.1,44.2-39.1
			C759.5,78.7,776.1,94.9,776.1,117.8z M720.2,117.7c0,7,4.4,13.2,12,13.2c7.1,0,11.9-5.6,11.9-13.2c0-7.5-4.2-13.1-11.9-13.1
			C724.4,104.6,720.2,110.2,720.2,117.7z"/>
	</g>
	<path class="st0" d="M646.8,155.1c-5.2-8-12.1-14.7-20.6-19.4c-1-0.5-1-1.9,0-2.5c8.6-4.8,15.8-11.9,21-20.2v-9
		c0-16.4-9-25.5-25.6-25.5c-10.8,0-18.4,4.2-23,12.7h-0.4c-3.7-8.3-11.9-12.7-23.2-12.7c-11.2,0-18.7,4.2-23.2,12.4h-0.5L545.6,80
		h-24v75h32.2v-45.3c2.5-2.7,5.6-4.1,9-4.1c3.8,0,5.7,2.2,5.7,6.4v43.1h32.2v-45.4c2.5-2.7,5.7-4.1,9-4.1c3.8,0,5.7,2.2,5.7,6.4
		v43.1H646.8L646.8,155.1L646.8,155.1z"/>
	<path class="st0" d="M652.8,80.2v33.7c5.2,8,12.3,14.7,20.6,19.4c1,0.5,1,1.9,0,2.5c-8.5,4.6-15.5,11.3-20.6,19.4H685V80h-32.2
		V80.2z"/>
	<g>
		<path class="st0" d="M653.5,53.6c6.1,3.4,11.3,8.6,14.7,14.7c0.4,0.7,1.2,0.7,1.6,0c3.4-6.1,8.6-11.3,14.7-14.7
			c0.7-0.4,0.7-1.2,0-1.6c-6.1-3.4-11.3-8.5-14.7-14.7c-0.4-0.7-1.2-0.7-1.6,0c-3.4,6.1-8.6,11.3-14.7,14.7
			C652.8,52.2,652.8,53.2,653.5,53.6z"/>
	</g>
	<path class="st0" d="M675.6,130.8"/>
</g>
<g>
	<path class="st0" d="M91.9,81c-8.2-4.5-15-11.2-19.5-19.4c-0.5-0.9-1.7-0.9-2.1,0C65.8,69.8,59,76.5,50.9,81.1
		c-0.9,0.5-0.9,1.7,0,2.1c8.1,4.5,14.9,11.3,19.4,19.4c0.5,0.9,1.7,0.9,2.1,0c4.5-8.2,11.3-15,19.5-19.5
		C92.7,82.7,92.7,81.5,91.9,81z"/>
	<path class="st0" d="M75.5,13.9L75.5,13.9c-34.1,0-61.7,25.6-61.7,57.2v51.3c0,31.6,27.6,57.2,61.7,57.2l0,0
		c34.1,0,61.7-25.6,61.7-57.2V71.1C137.3,39.5,109.6,13.9,75.5,13.9z M54.2,136.6c-5.4,3-9.8,7.4-12.8,12.8c-0.3,0.6-1.1,0.6-1.4,0
		c-3-5.3-7.4-9.8-12.8-12.8c-0.6-0.3-0.6-1.1,0-1.4c5.4-3,9.8-7.4,12.8-12.8c0.3-0.6,1.1-0.6,1.4,0c3,5.4,7.4,9.8,12.8,12.8
		C54.8,135.5,54.8,136.3,54.2,136.6z M84.1,115.7H71.3v16.8C55,132.1,40.6,115,40.6,98.7V48.3H80c27.3,0,40.2,13.6,40.2,33.6
		C120.2,103.5,107.2,115.7,84.1,115.7z"/>
</g>
</svg>
