<?xml version="1.0" encoding="UTF-8"?>
<svg id="Layer_1" xmlns="http://www.w3.org/2000/svg" viewBox="0 0 200 200">
  <path d="M90.26,158.08c-18.25,0-33.1-14.85-33.1-33.1s14.85-33.1,33.1-33.1,33.1,14.85,33.1,33.1-14.85,33.1-33.1,33.1ZM90.26,101.88c-12.74,0-23.1,10.36-23.1,23.1s10.36,23.1,23.1,23.1,23.1-10.36,23.1-23.1-10.36-23.1-23.1-23.1Z"/>
  <path d="M133.72,139.84c-.2,0-.41-.01-.62-.04-2.74-.34-4.69-2.83-4.35-5.57l3.43-27.96-27-.09c-2.11,0-3.99-1.34-4.7-3.33-.7-1.99-.08-4.21,1.56-5.55l5.07-4.13,15.27-15.46-8.6-4.18-23.38,26.64c-1.82,2.08-4.98,2.28-7.06.46-2.08-1.82-2.28-4.98-.46-7.06l25.9-29.5c1.48-1.69,3.92-2.18,5.94-1.2l18.3,8.89c1.45.7,2.47,2.06,2.74,3.65s-.24,3.21-1.37,4.36l-16.24,16.44,19.69.06c1.43,0,2.79.62,3.73,1.69s1.39,2.5,1.21,3.92l-4.12,33.55c-.31,2.53-2.47,4.39-4.96,4.39Z"/>
  <path d="M76.64,77.79c-1.04,0-2.08-.32-2.97-.98-2.22-1.65-2.68-4.78-1.04-6.99l12.04-16.23c1.4-1.89,3.94-2.55,6.08-1.58l23.87,10.82c2.52,1.14,3.63,4.1,2.49,6.62-1.14,2.52-4.1,3.63-6.62,2.49l-20.2-9.16-9.63,12.99c-.98,1.32-2.49,2.02-4.02,2.02Z"/>
  <g>
    <circle cx="132.15" cy="52.6" r="5.69"/>
    <path d="M132.15,63.29c-5.89,0-10.69-4.79-10.69-10.69s4.79-10.69,10.69-10.69,10.69,4.79,10.69,10.69-4.79,10.69-10.69,10.69ZM132.15,51.92c-.38,0-.69.31-.69.69s.31.69.69.69.69-.31.69-.69-.31-.69-.69-.69Z"/>
  </g>
  <g>
    <polygon points="94.6 88.96 112.55 70.3 124 74.39 111.19 93.87 99.89 95.09 94.6 88.96"/>
    <path d="M99.89,100.09c-1.44,0-2.83-.63-3.79-1.73l-5.29-6.13c-1.69-1.95-1.61-4.87.18-6.73l17.96-18.67c1.36-1.42,3.43-1.9,5.28-1.24l11.45,4.09c1.44.52,2.57,1.67,3.06,3.12.49,1.45.28,3.05-.56,4.33l-12.81,19.48c-.82,1.25-2.15,2.06-3.64,2.22l-11.31,1.23c-.18.02-.36.03-.54.03ZM101.36,89.15l.6.69,6.35-.69,8.02-12.2-2.41-.86-12.56,13.05Z"/>
  </g>
</svg>