<?xml version="1.0" encoding="UTF-8"?>
<svg id="Layer_1" xmlns="http://www.w3.org/2000/svg" viewBox="0 0 200 200">
  <path d="M60.25,110.17h18.57c2.12,0,3.85-1.73,3.85-3.85s-1.73-3.85-3.85-3.85h-18.57c-2.87,0-5.21-2.34-5.21-5.21v-18.57c0-2.12-1.73-3.85-3.85-3.85s-3.85,1.73-3.85,3.85v18.57c0,2.87-2.34,5.21-5.21,5.21h-18.57c-2.12,0-3.85,1.73-3.85,3.85s1.73,3.85,3.85,3.85h18.57c2.87,0,5.21,2.34,5.21,5.21v18.57c0,2.12,1.73,3.85,3.85,3.85s3.85-1.73,3.85-3.85v-18.57c0-2.87,2.34-5.21,5.21-5.21Z"/>
  <g>
    <path d="M182.48,79.68c0-21.22-14.58-39.13-34.37-44.55-3.95-1.1-8.11-1.69-12.41-1.69-.02,0-.05,0-.07,0s-.05,0-.07,0c-25.64,0-46.5,20.75-46.5,46.25v74.64c0,6.75,5.42,12.24,12.09,12.24h.94c6.71-.05,12.15-5.54,12.12-12.24v-20.57c0-2.6,1.47-4.67,4.07-4.67s4.04,1.81,4.04,4.41v20.57c0,6.72,6.78,12.44,13.5,12.44s13.62-5.46,13.62-12.18v-20.57c0-2.6,1.42-4.68,4.02-4.68s3.97,2.08,3.97,4.68v20.57c0,6.71,5.46,12.2,12.18,12.24h.61c6.67,0,12.09-5.49,12.09-12.24v-54.22h.15v-20.42ZM172.07,154.32c0,1.09-.82,1.98-1.83,1.98h-.58c-1.08-.01-1.96-.9-1.96-1.99v-20.57c0-8.26-6.72-14.97-14.97-14.97s-13.53,6.72-13.53,14.97v20.57c.04,1.63-2.14,2.45-3.2,2.45s-3.39-.91-3.41-2.71v-20.57c0-8.26-5.4-14.71-13.66-14.71s-14.97,6.72-14.97,14.97v20.6c0,1.07-.84,1.95-1.89,1.96h-.92c-1.01,0-1.83-.89-1.83-1.99v-74.15c0-20.11,16.32-36.48,36.38-36.48s36.38,16.36,36.38,36.48v74.15Z"/>
    <path d="M121.24,73.19c-6.06,0-10.99,4.9-10.99,10.93s4.93,10.93,10.99,10.93,10.99-4.9,10.99-10.93-4.93-10.93-10.99-10.93ZM121.17,84.12h.07s0,.07,0,.07c-.04,0-.07-.03-.07-.07Z"/>
    <path d="M152.57,73.19c-6.06,0-10.99,4.9-10.99,10.93s4.93,10.93,10.99,10.93,10.99-4.9,10.99-10.93-4.93-10.93-10.99-10.93ZM152.5,84.12h.07s0,.07,0,.07c-.04,0-.07-.03-.07-.07Z"/>
  </g>
</svg>