<?xml version="1.0" encoding="UTF-8"?>
<svg id="Layer_1" xmlns="http://www.w3.org/2000/svg" viewBox="0 0 200 200">
  <path d="M112.88,64.42v-9.74c0-1.29-.52-2.55-1.43-3.46-.91-.91-2.17-1.43-3.46-1.43h-9.59s-.03,0-.05,0c-6.5,0-12.58,2.89-16.68,7.92-2.26,2.76-5.61,4.35-9.17,4.33h-13.29c-7.93,0-15.56,3.75-20.4,10.02-4.84,6.28-6.53,14.61-4.52,22.27,1.93,7.35,7.12,13.55,13.97,16.77v32.9c0,7.79,6.33,14.12,14.11,14.12s14.12-6.33,14.12-14.12v-29.75c2.01.72,3.81,1.97,5.19,3.64,4.11,5,10.17,7.87,16.63,7.86h9.68c1.29,0,2.55-.52,3.46-1.43.91-.91,1.43-2.17,1.43-3.46v-9.74c11.59-1.68,20.17-11.49,20.17-23.35s-8.58-21.67-20.17-23.35ZM123.52,87.79c0,6.48-4.47,11.97-10.64,13.39v-26.78c6.17,1.42,10.64,6.91,10.64,13.39ZM58.04,113.51c.39.02.79.03,1.18.03h7.51v30.41c-.01,2.39-1.96,4.34-4.35,4.35-2.39,0-4.34-1.95-4.34-4.34v-30.44ZM57.5,71.92v31.76c-7.98-.88-14.24-7.71-14.26-15.88,0-8.18,6.27-15.01,14.26-15.88ZM72.51,103.73h-5.28v-31.92h5.28c6.5,0,12.6-2.89,16.73-7.92,2.25-2.75,5.58-4.33,9.15-4.33h4.72v56.41h-4.7c-3.52.02-6.91-1.57-9.17-4.33-4.13-5.03-10.22-7.92-16.73-7.92Z"/>
  <path d="M173.65,84.34c-.91-.91-2.17-1.44-3.46-1.44h-12.01c-2.69,0-4.88,2.19-4.88,4.89s2.19,4.89,4.88,4.89h12.01c1.29,0,2.55-.52,3.46-1.43.91-.91,1.43-2.17,1.43-3.46s-.51-2.53-1.43-3.46Z"/>
  <path d="M138.67,102.43c-2.69,0-4.89,2.19-4.89,4.89v12.03c0,2.69,2.19,4.89,4.89,4.89s4.88-2.19,4.88-4.89v-12.03c0-2.69-2.19-4.89-4.88-4.89Z"/>
  <path d="M152.55,78.88c1.29,0,2.55-.52,3.46-1.43l8.47-8.47c1.9-1.91,1.9-5.01,0-6.91-1.9-1.9-5-1.9-6.92,0l-8.47,8.47c-.92.92-1.43,2.15-1.43,3.46s.52,2.55,1.43,3.46c.91.91,2.17,1.43,3.46,1.43Z"/>
  <path d="M156.04,98.17c-.92-.93-2.15-1.44-3.45-1.44h0c-1.31,0-2.54.51-3.46,1.43-.92.92-1.43,2.15-1.43,3.46s.51,2.53,1.43,3.46l5.91,5.91h-.14s2.62,2.57,2.62,2.57c.92.9,2.16,1.41,3.4,1.41.04,0,.08,0,.12,0h.02c1.98,0,3.74-1.18,4.49-3.01.76-1.83.35-3.92-1.05-5.33l-8.46-8.46Z"/>
  <path d="M138.67,51.39c-2.69,0-4.89,2.19-4.89,4.89v12.09c0,2.69,2.19,4.89,4.89,4.89s4.88-2.19,4.88-4.89v-12.09c0-2.69-2.19-4.89-4.88-4.89Z"/>
</svg>