<?xml version="1.0" encoding="UTF-8"?>
<svg id="Layer_1" xmlns="http://www.w3.org/2000/svg" viewBox="0 0 200 200">
  <defs>
    <style>
      .cls-1 {
        fill: #a34bd6;
      }
    </style>
  </defs>
  <g>
    <path class="cls-1" d="M100,24.06c-38.22,0-69.32,31.1-69.32,69.32,0,28.66,18.01,54.72,44.81,64.86,1.93.73,3.88,1.37,5.85,1.92v-10.46c-.78-.26-1.55-.53-2.31-.81-22.93-8.67-38.34-30.98-38.34-55.5,0-32.71,26.61-59.32,59.32-59.32s59.32,26.61,59.32,59.32c0,25.73-16.42,48.39-40.85,56.39-.42.14-.85.26-1.28.39v10.38c1.47-.38,2.94-.79,4.39-1.26,28.55-9.35,47.74-35.83,47.74-65.89,0-38.22-31.1-69.32-69.32-69.32Z"/>
    <path class="cls-1" d="M100,162.7c2.41,0,4.81-.14,7.19-.38v-10.05c-2.38.29-4.78.43-7.19.43-2.92,0-5.81-.22-8.66-.64v10.09c2.86.36,5.75.55,8.66.55Z"/>
  </g>
  <g>
    <path class="cls-1" d="M100,139.28c2.43,0,4.83-.2,7.19-.57v-10.16c-2.35.48-4.75.73-7.19.73-2.95,0-5.85-.38-8.66-1.08v10.25c2.84.54,5.74.82,8.66.82Z"/>
    <path class="cls-1" d="M100,47.48c-25.31,0-45.9,20.59-45.9,45.9,0,15.66,7.86,30.08,21.03,38.59,1.99,1.28,4.06,2.4,6.2,3.35v-11.29c-.26-.16-.52-.3-.78-.46-10.31-6.65-16.46-17.94-16.46-30.19,0-19.8,16.1-35.9,35.9-35.9s35.9,16.1,35.9,35.9c0,12.73-6.84,24.62-17.85,31.04-.28.16-.57.32-.86.48v11.05c.9-.36,1.78-.75,2.66-1.17,1.1-.53,2.19-1.1,3.23-1.72,14.07-8.2,22.81-23.41,22.81-39.68,0-25.31-20.59-45.9-45.9-45.9Z"/>
  </g>
  <g>
    <circle class="cls-1" cx="100" cy="93.38" r="6.53"/>
    <path class="cls-1" d="M100,104.91c-6.36,0-11.53-5.17-11.53-11.53s5.17-11.53,11.53-11.53,11.53,5.17,11.53,11.53-5.17,11.53-11.53,11.53ZM100,91.85c-.85,0-1.53.69-1.53,1.53s.69,1.53,1.53,1.53,1.53-.69,1.53-1.53-.69-1.53-1.53-1.53Z"/>
  </g>
  <rect class="cls-1" x="88.78" y="115.81" width="22.45" height="54.75" rx="5" ry="5"/>
</svg>