<?xml version="1.0" encoding="UTF-8"?>
<svg id="Layer_1" xmlns="http://www.w3.org/2000/svg" viewBox="0 0 200 200">
  <path d="M63.56,50.59h14.88c2.76,0,5-2.24,5-5s-2.24-5-5-5h-14.88c-7.01,0-12.71,5.7-12.71,12.71v93.39c0,7.01,5.7,12.71,12.71,12.71h14.88c2.76,0,5-2.24,5-5s-2.24-5-5-5h-14.88c-1.5,0-2.71-1.22-2.71-2.71V53.31c0-1.5,1.22-2.71,2.71-2.71Z"/>
  <path d="M136.44,40.59h-14.88c-2.76,0-5,2.24-5,5s2.24,5,5,5h14.88c1.5,0,2.71,1.22,2.71,2.71v93.39c0,1.5-1.22,2.71-2.71,2.71h-14.88c-2.76,0-5,2.24-5,5s2.24,5,5,5h14.88c7.01,0,12.71-5.7,12.71-12.71V53.31c0-7.01-5.7-12.71-12.71-12.71Z"/>
</svg>