<?xml version="1.0" encoding="UTF-8"?>
<svg id="Layer_1" xmlns="http://www.w3.org/2000/svg" viewBox="0 0 200 200">
  <path d="M155.58,134.52v-68.98c0-11.63-9.46-21.09-21.09-21.09h-16.97v-16.59c0-4.5-3.66-8.17-8.17-8.17h-18.7c-4.5,0-8.17,3.66-8.17,8.17v16.59h-16.97c-11.63,0-21.09,9.46-21.09,21.09v68.98c0,8.29,4.82,15.46,11.8,18.9l-6.39,15.44c-.9,2.63-.48,5.56,1.14,7.83,1.62,2.27,4.25,3.62,7.03,3.62h17.33c3.69,0,6.98-2.35,8.17-5.84l6.46-18.86h20.05l6.46,18.86c1.2,3.49,4.48,5.84,8.17,5.84h17.33c2.78,0,5.41-1.35,7.03-3.62,1.62-2.27,2.05-5.19,1.14-7.83l-5.45-15.91c6.47-3.6,10.86-10.51,10.86-18.43ZM92.28,29.5h15.43v13.51h-15.43v-13.51ZM74.51,170.5h-14.87l5.12-14.93c.25,0,.5.04.76.04h14.1l-5.1,14.89ZM125.49,170.5l-5.1-14.89h14.1c.26,0,.51-.03.76-.04l5.12,14.93h-14.87ZM145.15,134.52c0,5.88-4.78,10.66-10.66,10.66h-68.98c-5.88,0-10.66-4.78-10.66-10.66v-68.98c0-5.88,4.78-10.66,10.66-10.66h68.98c5.88,0,10.66,4.78,10.66,10.66v68.98Z"/>
  <path d="M119.58,97.86c-1.3-1.3-3.03-2.02-4.87-2.02s-3.57.72-4.87,2.02l-5.21,5.21-9.96-9.96c-1.31-1.31-3.05-2.01-4.9-2.02-1.85,0-3.59.74-4.88,2.06l-22.59,22.98c-1.95,1.99-2.52,4.93-1.44,7.5,1.08,2.56,3.57,4.22,6.35,4.22h.02l65.58-.16c2.79,0,5.28-1.68,6.35-4.26,1.07-2.58.48-5.53-1.5-7.5l-18.08-18.08ZM72.87,118.58l16.94-17.24,9.94,9.94c1.3,1.3,3.03,2.02,4.87,2.02s3.57-.72,4.87-2.02l5.21-5.21,12.37,12.37-54.21.13Z"/>
  <path d="M114.76,90.32c6.22,0,11.28-5.06,11.28-11.28s-5.06-11.28-11.28-11.28-11.28,5.06-11.28,11.28,5.06,11.28,11.28,11.28Z"/>
</svg>