<?xml version="1.0" encoding="UTF-8"?>
<svg id="Layer_1" xmlns="http://www.w3.org/2000/svg" viewBox="0 0 200 200">
  <path d="M133.19,104.89v-29.17c0-16.86-13.72-30.58-30.58-30.58h-5.64c-16.63,0-30.16,13.53-30.16,30.16v29.59c-9.57,2.26-16.71,10.88-16.71,21.13v1.14c0,2.76,2.24,5,5,5h89.79c2.76,0,5-2.24,5-5v-1.14c0-10.25-7.14-18.86-16.71-21.13ZM60.76,122.16c1.6-4.56,5.95-7.84,11.05-7.84,2.76,0,5-2.24,5-5v-34.01c0-11.11,9.04-20.16,20.16-20.16h5.64c11.35,0,20.58,9.23,20.58,20.58v33.58c0,2.76,2.24,5,5,5,5.1,0,9.45,3.28,11.05,7.84H60.76Z"/>
  <path d="M107.44,137.41h-14.88c-2.76,0-5,2.24-5,5,0,6.86,5.58,12.44,12.44,12.44s12.44-5.58,12.44-12.44c0-2.76-2.24-5-5-5Z"/>
</svg>