<?xml version="1.0" encoding="UTF-8"?>
<svg id="Layer_1" xmlns="http://www.w3.org/2000/svg" viewBox="0 0 200 200">
  <path d="M61.06,55.98c-.94-1.68-2.47-2.89-4.32-3.42-1.85-.52-3.78-.29-5.44.65-1.68.93-2.89,2.47-3.41,4.31-.52,1.84-.29,3.78.64,5.45.02.04,2.01,3.67,4.14,9.59h-29.04c-3.96,0-7.18,3.22-7.18,7.18s3.22,7.18,7.18,7.18h32.9c.81,4.49,1.22,8.88,1.22,13.09s-.41,8.59-1.22,13.09H23.63c-3.96,0-7.18,3.22-7.18,7.18s3.22,7.18,7.18,7.18h29.02c-2.12,5.89-4.11,9.56-4.13,9.59-1.92,3.46-.67,7.83,2.78,9.75,1.07.6,2.27.91,3.49.91,2.6,0,5-1.41,6.27-3.68.45-.81,11.04-20.05,11.04-44.02s-10.59-43.22-11.04-44.02Z"/>
  <path d="M177.13,92.83h-22.51c-3.42-13.61-17.8-40.52-77.88-40.52l-2.24.07v.39c-.31.12-.61.27-.89.45-1.5.93-2.58,2.47-3.05,4.31-.47,1.84-.26,3.78.57,5.45.08.17,8.25,16.89,8.25,37.03s-8.17,36.87-8.25,37.04c-1.71,3.46-.6,7.83,2.49,9.75.95.6,2.03.91,3.12.91,60.08,0,74.46-26.91,77.88-40.52h22.51c3.54,0,6.42-3.22,6.42-7.18s-2.88-7.18-6.42-7.18ZM92.21,100c0-13.09-2.78-24.73-5.53-33.06,54.16,3.1,56.08,31.12,56.14,33.02-.06,1.9-1.93,30.01-56.14,33.11,2.76-8.33,5.53-19.97,5.53-33.06Z"/>
</svg>