<?xml version="1.0" encoding="UTF-8"?>
<svg id="Layer_1" xmlns="http://www.w3.org/2000/svg" viewBox="0 0 200 200">
  <path d="M140.36,40.21H54.64c-9.29,0-16.84,7.56-16.84,16.84v85.71c0,9.29,7.56,16.84,16.84,16.84h85.71c9.29,0,16.84-7.56,16.84-16.84V57.06c0-9.29-7.56-16.84-16.84-16.84ZM54.64,52.25h85.71c2.65,0,4.81,2.16,4.81,4.81v19.01H49.83v-19.01c0-2.65,2.16-4.81,4.81-4.81ZM140.36,147.58H54.64c-2.65,0-4.81-2.16-4.81-4.81v-54.68h95.34v54.68c0,2.65-2.16,4.81-4.81,4.81Z"/>
  <path d="M80.83,92.71h10.59c2.25,0,4.08,1.83,4.08,4.08v10.59c0,2.25-1.83,4.08-4.08,4.08h-10.59c-2.25,0-4.08-1.83-4.08-4.08v-10.59c0-2.25,1.83-4.08,4.08-4.08Z"/>
  <path d="M103.59,92.71h10.59c2.25,0,4.08,1.83,4.08,4.08v10.59c0,2.25-1.83,4.08-4.08,4.08h-10.59c-2.25,0-4.08-1.83-4.08-4.08v-10.59c0-2.25,1.83-4.08,4.08-4.08Z"/>
  <path d="M126.34,92.71h10.59c2.25,0,4.08,1.83,4.08,4.08v10.59c0,2.25-1.83,4.08-4.08,4.08h-10.59c-2.25,0-4.08-1.83-4.08-4.08v-10.59c0-2.25,1.83-4.08,4.08-4.08Z"/>
  <path d="M58.07,117.84h10.59c2.25,0,4.08,1.83,4.08,4.08v10.59c0,2.25-1.83,4.08-4.08,4.08h-10.59c-2.25,0-4.08-1.83-4.08-4.08v-10.59c0-2.25,1.83-4.08,4.08-4.08Z"/>
  <path d="M80.83,117.84h10.59c2.25,0,4.08,1.83,4.08,4.08v10.59c0,2.25-1.83,4.08-4.08,4.08h-10.59c-2.25,0-4.08-1.83-4.08-4.08v-10.59c0-2.25,1.83-4.08,4.08-4.08Z"/>
  <path d="M103.59,117.84h10.59c2.25,0,4.08,1.83,4.08,4.08v10.59c0,2.25-1.83,4.08-4.08,4.08h-10.59c-2.25,0-4.08-1.83-4.08-4.08v-10.59c0-2.25,1.83-4.08,4.08-4.08Z"/>
  <path d="M126.34,117.84h10.59c2.25,0,4.08,1.83,4.08,4.08v10.59c0,2.25-1.83,4.08-4.08,4.08h-10.59c-2.25,0-4.08-1.83-4.08-4.08v-10.59c0-2.25,1.83-4.08,4.08-4.08Z"/>
</svg>