<?xml version="1.0" encoding="UTF-8"?>
<svg id="Layer_1" xmlns="http://www.w3.org/2000/svg" viewBox="0 0 200 200">
  <path d="M153.94,70.74h-14.48v-9.61c0-5.12-4.17-9.28-9.28-9.28h-37.3c-5.12,0-9.28,4.17-9.28,9.28v9.61h-32.8c-2.76,0-5,2.24-5,5v67.42c0,2.76,2.24,5,5,5h103.15c5.12,0,9.28-4.16,9.28-9.28v-58.85c0-5.12-4.16-9.28-9.28-9.28ZM153.23,138.16h-78.81v-57.42h9.89c5.12,0,9.28-4.16,9.28-9.28v-9.61h35.87v9.61c0,5.12,4.17,9.28,9.28,9.28h14.48v57.42Z"/>
  <path d="M111.77,77.35c-15.57,0-28.25,12.67-28.25,28.25s12.67,28.25,28.25,28.25,28.25-12.67,28.25-28.25-12.67-28.25-28.25-28.25ZM111.77,123.84c-10.06,0-18.25-8.19-18.25-18.25s8.19-18.25,18.25-18.25,18.25,8.19,18.25,18.25-8.19,18.25-18.25,18.25Z"/>
</svg>