<?xml version="1.0" encoding="UTF-8"?>
<svg id="Layer_1" xmlns="http://www.w3.org/2000/svg" viewBox="0 0 200 200">
  <path d="M153.1,52.83c-.95-1.14-2.35-1.79-3.84-1.79h-83.92l-2.61-13.29c-.46-2.35-2.52-4.04-4.91-4.04h-19.08c-2.76,0-5,2.24-5,5s2.24,5,5,5h14.97l5.48,27.96,7.28,40.53c.43,2.38,2.5,4.12,4.92,4.12h67.94c2.42,0,4.49-1.73,4.92-4.12l9.93-55.28c.26-1.46-.14-2.96-1.09-4.09ZM135.15,106.32h-59.58l-8.13-45.28h75.84l-8.13,45.28Z"/>
  <path d="M83.85,123.53c-8.17,0-14.82,6.65-14.82,14.82s6.65,14.82,14.82,14.82,14.82-6.65,14.82-14.82-6.65-14.82-14.82-14.82Z"/>
  <path d="M126.58,123.53c-8.17,0-14.82,6.65-14.82,14.82s6.65,14.82,14.82,14.82,14.82-6.65,14.82-14.82-6.65-14.82-14.82-14.82Z"/>
</svg>