<?xml version="1.0" encoding="UTF-8"?>
<svg id="Layer_1" xmlns="http://www.w3.org/2000/svg" viewBox="0 0 200 200">
  <path d="M169.47,134.18l-55.56-90.03c-3-4.86-8.2-7.76-13.91-7.76s-10.91,2.9-13.91,7.76l-55.56,90.03c-3.11,5.04-3.25,11.38-.36,16.55,2.88,5.17,8.35,8.38,14.27,8.38h111.11c5.92,0,11.39-3.21,14.27-8.38,2.88-5.17,2.75-11.51-.36-16.55ZM155.56,150.11H44.44c-5.75,0-9.27-6.31-6.25-11.21l55.56-90.03c1.44-2.33,3.84-3.49,6.25-3.49s4.82,1.16,6.25,3.49l55.56,90.03c3.02,4.9-.5,11.21-6.25,11.21Z"/>
  <path d="M100,64.82c-2.76,0-5,2.24-5,5v41.18c0,2.76,2.24,5,5,5s5-2.24,5-5v-41.18c0-2.76-2.24-5-5-5Z"/>
  <path d="M100,127.25c-2.76,0-5,2.24-5,5v.51c0,2.76,2.24,5,5,5s5-2.24,5-5v-.51c0-2.76-2.24-5-5-5Z"/>
</svg>