<?xml version="1.0" encoding="UTF-8"?>
<svg id="Layer_1" xmlns="http://www.w3.org/2000/svg" viewBox="0 0 200 200">
  <path d="M123.1,80.16l-26,26c-1.7,1.7-4.46,1.7-6.16,0l-7.65-7.65c-1.95-1.95-5.12-1.95-7.07,0-1.95,1.95-1.95,5.12,0,7.07l7.65,7.65c2.8,2.8,6.48,4.2,10.15,4.2s7.35-1.4,10.15-4.2l26-26c1.95-1.95,1.95-5.12,0-7.07-1.95-1.95-5.12-1.95-7.07,0Z"/>
  <path d="M103.2,38.43c-33.95,0-61.57,27.62-61.57,61.57s27.62,61.57,61.57,61.57,61.57-27.62,61.57-61.57-27.62-61.57-61.57-61.57ZM103.2,151.57c-28.44,0-51.57-23.14-51.57-51.57s23.14-51.57,51.57-51.57,51.57,23.14,51.57,51.57-23.14,51.57-51.57,51.57Z"/>
</svg>