<?xml version="1.0" encoding="UTF-8"?>
<svg id="Layer_1" xmlns="http://www.w3.org/2000/svg" viewBox="0 0 200 200">
  <path d="M145.71,137.2l-16.62-16.62h0l-20.58-20.58,8.41-8.41h0l28.79-28.79c1.13-1.13,1.76-2.65,1.76-4.26s-.62-3.12-1.76-4.25c-1.13-1.13-2.64-1.76-4.26-1.76s-3.12.62-4.26,1.76l-36.15,36.15s0,0,0,0l-1.05,1.05-37.2-37.2c-1.13-1.13-2.64-1.76-4.26-1.76s-3.12.62-4.25,1.76c-1.13,1.13-1.76,2.64-1.76,4.26,0,1.61.62,3.12,1.76,4.26l37.2,37.2-37.2,37.2c-2.35,2.35-2.35,6.17,0,8.51,1.13,1.13,2.64,1.76,4.25,1.76s3.12-.62,4.26-1.76l37.2-37.2,19.66,19.67h0l17.53,17.53c1.13,1.13,2.64,1.76,4.26,1.76s3.12-.62,4.25-1.76c2.35-2.35,2.35-6.16,0-8.51Z"/>
</svg>