<?xml version="1.0" encoding="UTF-8"?>
<svg id="Layer_1" xmlns="http://www.w3.org/2000/svg" viewBox="0 0 200 200">
  <path d="M122.23,33.57c-2.06-1.23-4.26-1.27-6.36-.14l-13.39,7.1c.5,1.53.78,3.08.78,4.45v6.17l13.54-7.18c.07-.03.11-.04.1-.04.14.06.42.58.42,1.13v110.1c0,.5-.37,1.04-.56,1.07l-13.51-6.23v5.09c0,1.51-.3,3.07-.84,4.54v.96s13.52,6.24,13.52,6.24c.87.38,1.76.57,2.65.57,1.31,0,2.62-.41,3.88-1.24,3.25-2.13,5.62-6.76,5.62-11V45.06c0-3.93-2.19-9.3-5.86-11.49Z"/>
  <path d="M93.54,33.57c-2.06-1.23-4.26-1.27-6.36-.14l-43.37,22.98c-.51.26-1.02.51-1.52.76-5.03,2.5-9.77,4.87-9.77,10.88v67.08c0,6.07,5.36,8.71,10.09,11.04l1.24.61,43.41,20.03c.87.38,1.76.57,2.65.57,1.31,0,2.62-.41,3.88-1.24,3.25-2.13,5.62-6.76,5.62-11V45.06c0-3.93-2.19-9.31-5.86-11.49ZM88.63,45.06v110.1c0,.5-.37,1.04-.56,1.07l-43.34-20c-.21-.12-.4-.23-.59-.33-.85-.47-.85-.52-.85-.76v-67.08c0-.25.04-.33.94-.82.17-.09.35-.19.5-.28l43.37-22.99c.07-.03.11-.04.1-.04.14.06.42.58.42,1.13Z"/>
  <path d="M151.23,33.57c-2.06-1.23-4.26-1.27-6.36-.14l-13.39,7.1c.5,1.53.78,3.08.78,4.45v6.17l13.54-7.18c.07-.03.11-.04.1-.04.14.06.42.58.42,1.13v110.1c0,.5-.37,1.04-.56,1.07l-13.51-6.23v5.09c0,1.51-.3,3.07-.84,4.54v.96s13.52,6.24,13.52,6.24c.87.38,1.76.57,2.65.57,1.31,0,2.62-.41,3.88-1.24,3.25-2.13,5.62-6.76,5.62-11V45.06c0-3.93-2.19-9.3-5.86-11.49Z"/>
</svg>