<?xml version="1.0" encoding="UTF-8"?>
<svg id="Layer_1" xmlns="http://www.w3.org/2000/svg" viewBox="0 0 200 200">
  <path d="M180.75,75.88h0c-.26-.64-.64-1.21-1.13-1.7l-15.57-15.57c-2.04-2.04-5.35-2.04-7.38,0l-1.21,1.21c-1.94-2.18-4.51-3.73-7.34-4.42l-65.28-15.99c-7.24-1.77-14.57,2.23-17.06,9.16h-24.36c-7.99,0-14.49,6.5-14.49,14.49v87.49c0,7.99,6.5,14.49,14.49,14.49h64.76l14.23,3.48c1.15.28,2.31.42,3.45.42,6.52,0,12.46-4.44,14.08-11.04l11.24-45.88,30.45-30.45c.38-.38.7-.84.98-1.39.37-.74.55-1.52.55-2.3,0-.69-.13-1.36-.4-2ZM111.22,127.61l-.4-8.38,37.09-37.09,8.19,8.19-37.22,37.22-7.66.07ZM127.79,155.41c-.53,2.17-2.73,3.5-4.9,2.97l-65.27-15.99c-1.05-.26-1.94-.91-2.5-1.84s-.73-2.01-.47-3.06l20.82-84.98c.45-1.85,2.11-3.09,3.93-3.09.32,0,.64.04.96.12l65.28,15.99c1,.24,1.85.85,2.4,1.7l-39.34,39.34-29.47-7.22c-1.36-.33-2.76-.12-3.95.61-1.19.72-2.03,1.87-2.36,3.22-.68,2.8,1.03,5.63,3.83,6.31l23.87,5.85c-.25.66-.37,1.37-.34,2.07l.29,5.93-25.67-6.29c-2.8-.69-5.63,1.03-6.31,3.83-.68,2.8,1.03,5.63,3.83,6.31l28.83,7.06c.61,2.23,2.66,3.83,5.06,3.83l14.81-.13c1.38-.01,2.67-.56,3.64-1.53l10.18-10.17-7.14,29.16h0ZM44.5,135.01c-.92,3.75-.32,7.65,1.69,10.96s5.18,5.64,8.94,6.56l8.43,2.07h-22.14c-2.23,0-4.05-1.82-4.05-4.05V63.06c0-2.23,1.82-4.05,4.05-4.05h21.7l-18.62,76.01Z"/>
  <path d="M81.09,91.8l27.36,6.7c.42.1.83.15,1.24.15,2.35,0,4.49-1.6,5.07-3.98.33-1.35.12-2.76-.61-3.95-.72-1.19-1.87-2.03-3.22-2.36l-27.36-6.7c-1.35-.33-2.76-.12-3.95.61-1.19.72-2.03,1.87-2.36,3.22s-.12,2.76.61,3.95c.72,1.19,1.87,2.03,3.22,2.36Z"/>
</svg>