<?xml version="1.0" encoding="UTF-8"?>
<svg id="Layer_1" xmlns="http://www.w3.org/2000/svg" viewBox="0 0 200 200">
  <path d="M113.25,43.98l-2.22.87c-.48.28-1.01.42-1.56.47-1.94.16-3.84.72-5.56,1.65-1.2.57-2.13,1.56-2.63,2.77-.29.71-.13,1.27-.79,1.65l-15.97,8.87c-.41.24-.87.38-1.35.46-1.55.24-3.04.75-4.42,1.51-.98.5-1.79,1.26-2.35,2.19-.32.54-.04,1-.59,1.32l-15.81,8.77c-.45.26-.95.41-1.47.47-1.73.21-3.4.74-4.94,1.58-1.06.52-1.92,1.37-2.46,2.4-.32.62-.06,1.16-.66,1.51l-11.92,6.93c-2.18,1.27-3.97,4.37-3.98,6.89l-.07,24.62c0,2.87,1.52,5.52,4,6.95l41.57,24c2.48,1.43,5.54,1.43,8.02-.01l71.77-41.71c2.46-1.43,3.97-4.05,3.98-6.89l.07-25.03c0-2.87-1.52-5.52-4-6.95l-43.78-25.28c-1.12-.64-1.78-.64-2.89,0ZM125.5,64.47h0v.3c0,.05.01.09.02.14s0,.08.01.12h0c0,.06.02.11.03.16s.02.08.03.12h0c.01.06.03.11.04.16s.03.09.04.13.04.1.05.14.03.08.05.12h0c.02.06.04.11.07.15s.04.09.06.13.05.1.08.14.05.09.07.13.06.09.09.14.05.08.08.12h0s.07.09.11.14.06.08.09.12.08.09.12.14.06.08.1.11h0s.09.09.14.14.07.08.11.11.1.09.14.14.08.07.12.11.11.09.17.14.08.07.12.1c.06.05.13.1.2.15l.11.08c.08.05.16.11.24.16l.09.06c.12.07.24.14.36.22.24.14.49.27.74.39.08.04.17.07.26.11.15.07.3.14.46.2.03.01.05.02.08.03.06.02.12.04.18.06.2.07.41.14.62.21l.21.07.14.04c.08.02.17.04.26.06.21.06.42.11.63.15.06.01.11.03.17.04.08.02.17.03.25.04.18.03.36.07.54.09.07.01.14.03.22.04s.16.02.24.03c.17.02.34.04.5.06.08,0,.16.02.24.03s.15,0,.23.01c.17.01.34.02.51.03.09,0,.17.01.26.01s.14,0,.21,0h.99c.23-.02.46-.04.68-.06.09,0,.18,0,.27-.02l.13-.02.21-.02c.23-.03.47-.06.7-.1l.17-.03s.05,0,.08-.01c.11-.02.22-.05.33-.07.19-.04.38-.07.56-.12.13-.03.26-.07.4-.11.18-.05.35-.1.52-.14l.11-.03c.21-.07.41-.14.61-.22.03-.01.06-.02.09-.03.22-.09.44-.18.65-.28l.19-.09c.23-.11.46-.23.68-.36.04-.02.08-.05.12-.07l.11-.07.12-.07s.04-.03.06-.04l.16-.11s.07-.05.11-.07l.06-.05c.05-.04.1-.07.14-.11l.1-.07.06-.05s.09-.08.14-.12l.09-.07.06-.06.06-.05s.03-.03.05-.05.07-.06.1-.09.07-.07.11-.11l.06-.04.07-.08.03-.04s.07-.08.1-.12.08-.09.12-.14v-.02s.01,0,.01,0c.02-.02.03-.04.05-.06l.02-.03s.07-.09.1-.14l.02-.04s.04-.07.07-.1.06-.08.08-.12c.01-.02.02-.04.03-.06l.03-.03s.02-.05.04-.07.03-.06.05-.09.02-.04.03-.07.04-.08.06-.12.03-.06.04-.08l.03-.08s.02-.04.03-.06.01-.04.02-.06.02-.05.03-.08.01-.05.02-.08.02-.08.04-.13.01-.05.02-.07.01-.06.02-.09.01-.05.02-.07,0-.04,0-.05.01-.05.01-.07,0-.06.01-.09.01-.08.02-.12v-.33l-.02,7.87v.17s0,.1-.01.15-.01.09-.02.13-.01.1-.02.15v.04s-.02.06-.03.09-.02.1-.04.14l-.04.13s-.03.1-.05.14l-.02.05-.03.08c-.02.05-.04.1-.06.15l-.06.13c-.02.05-.05.1-.08.15l-.04.07-.03.05c-.03.06-.07.12-.11.18-.02.04-.05.07-.07.11-.05.07-.09.13-.14.2l-.05.07v.02c-.09.1-.18.21-.27.31-.02.03-.05.05-.07.08-.07.08-.14.15-.23.23l-.05.05-.06.06s-.09.08-.14.13l-.14.12-.16.12c-.05.04-.1.08-.15.11l-.17.12c-.05.04-.11.07-.16.11s-.12.08-.18.12l-.11.07s-.08.05-.12.08c-.22.13-.45.24-.68.36l-.19.09c-.21.1-.43.19-.65.28-.03.01-.06.02-.09.03-.2.08-.41.14-.62.21-.04.01-.07.03-.11.04-.17.05-.35.1-.52.14-.13.04-.26.07-.4.11-.18.04-.37.08-.56.12-.11.02-.22.05-.33.07l-.08.02-.17.03c-.23.04-.47.07-.7.1l-.21.02s-.09,0-.13.01l-.28.02c-.23.02-.45.03-.68.05h-1.46c-.17-.01-.34-.02-.51-.03l-.23-.02-.24-.02c-.17-.02-.34-.04-.5-.06l-.24-.03c-.07-.01-.14-.02-.22-.03-.18-.03-.36-.06-.54-.09l-.25-.05-.17-.03c-.21-.05-.42-.1-.63-.15l-.26-.07-.14-.04-.21-.07c-.21-.06-.41-.14-.62-.21-.06-.02-.12-.04-.18-.06-.03-.01-.05-.02-.08-.03-.16-.06-.31-.13-.46-.19-.09-.04-.18-.07-.26-.12-.26-.12-.5-.25-.74-.39-1.68-.75-2.82-2.34-2.99-4.17l.04-7.84ZM100.97,51.09h0v.3c0,.05.01.1.02.14s.01.09.02.14.02.1.03.14.02.09.03.14.03.1.04.14.02.08.04.12h0c.02.06.04.11.05.15s.03.09.05.13.04.09.07.14.04.09.06.13.05.09.08.14.05.09.07.13.06.09.09.14.05.08.08.13.07.1.11.14.06.08.09.12.08.09.12.14.07.08.1.12.09.09.13.13.07.08.12.12.1.09.14.14.08.07.12.11.11.09.17.14l.12.1c.06.05.13.1.2.14.04.03.07.06.12.08.08.05.16.11.24.16.03.02.06.04.1.06.12.07.24.14.36.22.24.14.49.27.74.39.08.04.18.08.26.12.14.07.3.14.46.2l.08.03c.06.02.12.04.18.06.2.07.41.14.62.21.07.02.14.05.21.07.05.01.09.03.14.04.08.02.17.04.26.06.21.05.42.11.63.15.06.01.11.03.17.04.08.02.17.03.25.04.18.03.36.06.54.09.07.01.14.03.22.04s.16.02.24.03c.17.02.34.04.5.06.08,0,.16.02.24.03s.15,0,.23.01c.17.01.34.02.51.03.09,0,.17.01.26.01s.14,0,.21,0h.83c.05,0,.11,0,.16-.01.23,0,.46-.03.68-.04.09,0,.19-.01.28-.02l.13-.02.2-.02c.24-.03.47-.06.7-.1l.17-.03h.08c.11-.03.22-.06.33-.08.19-.04.38-.07.56-.12.13-.03.26-.07.4-.11.18-.05.35-.09.52-.14l.11-.03c.21-.07.41-.14.61-.22l.09-.03c.22-.09.43-.18.65-.28l.19-.09c.23-.11.46-.23.68-.36l.12-.07.11-.07s.08-.05.12-.07.04-.03.06-.04l.16-.11s.07-.05.11-.07l.06-.05.14-.11s.07-.05.1-.07l.06-.05.14-.12s.06-.05.09-.07l.06-.05.06-.05s.03-.03.05-.05.07-.06.1-.09.07-.08.11-.12l.02-.02.07-.08.03-.04s.07-.08.1-.12.08-.09.12-.14v-.02s.01,0,.01,0c.02-.02.03-.04.05-.06l.02-.03s.07-.09.1-.14l.03-.04s.04-.07.07-.1.06-.08.08-.13l.03-.06s.02-.03.03-.04.02-.05.04-.07.03-.06.05-.09.02-.04.03-.07.04-.08.05-.12.03-.06.04-.08.02-.05.03-.08.02-.04.03-.06.01-.04.02-.06.02-.05.03-.08l.02-.08s.02-.08.04-.12.01-.05.02-.07.01-.06.02-.08.01-.05.02-.07,0-.04,0-.05.01-.05.01-.07,0-.06.01-.09.01-.08.01-.12v-.06s0-.07,0-.1c0-.03,0-.05,0-.08v-.09l-.02,7.86v.17s0,.1-.01.15-.01.09-.02.13-.01.1-.02.15v.04s-.02.06-.03.09-.02.1-.04.14-.02.09-.04.13-.03.1-.05.14l-.02.05-.03.08c-.02.05-.04.1-.06.15s-.04.08-.06.13-.05.1-.08.15l-.04.07-.03.05c-.03.06-.07.12-.11.18-.02.04-.05.07-.07.11-.04.07-.09.13-.14.2-.02.02-.03.05-.05.07h-.01c-.08.12-.17.22-.26.32l-.07.08c-.07.08-.14.15-.23.23l-.05.05-.06.06-.14.13s-.09.08-.14.12l-.16.12-.15.11c-.05.04-.11.08-.17.12s-.11.07-.16.11l-.18.12-.11.07-.12.08c-.22.13-.45.24-.68.36l-.19.09c-.21.1-.43.19-.65.28l-.08.04c-.2.08-.41.14-.62.21l-.11.04c-.17.05-.35.1-.52.14-.13.04-.26.07-.4.11-.18.04-.37.08-.56.12-.11.02-.22.05-.33.07-.03,0-.06.01-.08.02l-.17.03c-.23.04-.46.07-.7.1l-.2.03h-.13s-.28.03-.28.03c-.23.02-.46.04-.68.05h-1.2c-.09,0-.17,0-.26,0-.17,0-.34-.02-.51-.03l-.23-.02h-.21c-.17-.02-.34-.04-.51-.06l-.24-.03-.22-.03c-.18-.03-.36-.06-.54-.09l-.25-.05c-.06-.01-.11-.02-.17-.03-.21-.05-.42-.1-.63-.15-.09-.02-.17-.04-.26-.07-.05-.01-.09-.02-.14-.04l-.21-.07c-.21-.07-.41-.14-.61-.21l-.18-.06s-.05-.02-.08-.03c-.16-.06-.31-.13-.46-.19-.09-.04-.18-.07-.26-.11-.26-.12-.5-.25-.74-.39-1.68-.75-2.82-2.34-2.99-4.17l.03-7.86ZM100.35,79.73h0v.3c0,.05.01.1.02.14s.01.09.02.14.02.1.03.14.02.09.03.14.03.1.04.14.02.09.04.13.04.09.05.14.03.09.05.13.04.09.06.14.04.09.06.13.05.09.08.14.05.09.07.13.06.09.09.14.06.09.08.13.07.09.1.14.06.08.09.12.08.09.12.14.07.08.1.12.09.09.13.14.07.08.11.12.1.09.14.14.08.07.12.11.11.09.17.14l.13.1c.06.05.13.1.19.14l.12.09c.07.05.14.1.23.15l.11.07c.12.07.24.15.36.22.24.14.49.27.74.39.08.04.18.08.26.12.14.07.3.14.45.2l.08.03.18.06c.2.07.41.14.61.21l.21.07.14.04c.08.02.17.04.26.06.21.06.42.11.63.15.06.01.11.03.17.04.08.02.17.03.25.04.18.03.36.07.54.09.07.01.14.03.22.04s.16.02.24.03c.17.02.34.04.5.06.08,0,.16.02.24.03s.14,0,.23.01c.17.01.34.02.51.03.08,0,.17.01.26.01s.14,0,.21,0h.83c.05,0,.11,0,.16-.01.23-.01.46-.03.68-.05.09,0,.18,0,.27-.02l.13-.02.21-.02c.24-.03.47-.06.7-.1l.17-.03h.08c.11-.03.22-.06.33-.08.19-.04.38-.07.56-.12.14-.03.26-.07.4-.11.18-.05.35-.09.52-.14l.11-.03c.21-.07.41-.14.62-.22l.09-.03c.22-.09.43-.18.65-.28l.19-.09c.23-.11.46-.23.68-.36l.12-.07.11-.07s.08-.05.12-.08l.06-.04.16-.11.13-.13.06-.05.14-.11s.07-.05.1-.07l.06-.05.14-.12s.06-.05.09-.07l.06-.06.06-.05s.03-.03.05-.05.07-.06.1-.09.07-.08.11-.12l.02-.02.07-.08.03-.04s.07-.08.1-.12.08-.09.12-.14v-.02s.02-.01.02-.01c.02-.02.03-.04.05-.07l.02-.03s.07-.09.1-.14l.02-.04s.04-.07.07-.1.05-.08.08-.12.02-.04.03-.06l.03-.04.04-.07s.03-.06.05-.09.02-.04.03-.07.04-.08.06-.12.03-.06.04-.08.02-.05.03-.08.02-.04.02-.06.01-.04.02-.06.02-.05.03-.07l.02-.08s.02-.08.04-.13.01-.05.02-.07.01-.06.02-.08.01-.05.02-.07v-.05s.02-.05.02-.07,0-.06.01-.09.01-.08.01-.12,0-.04,0-.06v-.27l-.02,7.86v.17s0,.1-.01.15-.01.09-.02.13-.01.1-.02.14v.04s-.03.09-.03.09c-.01.05-.02.1-.04.14s-.03.09-.04.13-.03.1-.05.14l-.02.05-.03.08c-.02.05-.04.1-.06.15s-.04.09-.06.13-.05.1-.08.15l-.04.07-.03.05c-.03.06-.07.12-.11.18-.02.04-.05.07-.07.11-.04.07-.09.13-.14.2-.02.02-.03.05-.05.07v.02c-.09.1-.18.21-.27.31l-.07.08c-.07.08-.15.15-.23.23l-.05.05-.06.06s-.1.08-.14.13-.09.08-.14.12l-.16.13-.14.11-.17.12-.16.11-.19.12-.11.07-.12.07c-.22.13-.45.25-.68.36l-.19.09c-.21.1-.43.19-.65.28l-.09.04c-.2.08-.41.14-.62.21-.04.01-.07.03-.11.04-.17.05-.35.1-.52.14-.13.04-.26.07-.4.11-.19.04-.37.08-.56.12-.11.02-.22.05-.33.06l-.07.05-.17.03c-.23.04-.47.07-.7.1l-.2.02h-.13s-.28.03-.28.03c-.23.02-.45.03-.68.04h-.44c-.19,0-.37,0-.56,0h-.46c-.17,0-.34-.02-.51-.03l-.23-.02c-.08,0-.16-.01-.24-.02-.17-.02-.34-.03-.51-.06l-.24-.03-.22-.03c-.18-.03-.36-.06-.54-.09-.08-.02-.17-.03-.25-.05l-.17-.03c-.21-.05-.42-.1-.63-.15l-.26-.07-.14-.04-.21-.07c-.21-.07-.41-.14-.62-.21l-.18-.06-.08-.04c-.15-.06-.3-.13-.46-.19-.09-.04-.18-.07-.26-.11-.25-.12-.5-.25-.74-.39-1.68-.75-2.82-2.34-2.99-4.17l.02-7.86ZM75.82,66.34h0v.3c0,.05.01.1.02.14s.01.09.02.14.02.1.03.14.02.09.03.13.03.1.04.14.02.09.04.13.04.1.05.14.03.09.05.13.04.1.07.14.04.09.06.13.05.1.08.14.05.08.07.13.06.09.09.14.05.08.08.13.07.09.1.14.06.08.09.12.08.09.12.14.07.08.1.12.09.09.13.14.07.08.11.12.1.09.14.14l.12.11c.05.05.11.09.17.14s.08.07.12.1l.2.14s.08.06.12.09c.07.05.14.1.23.15.04.02.07.05.11.07.12.07.24.14.36.22.24.14.49.27.74.39.08.04.17.08.26.11.15.07.3.14.46.2l.08.03c.06.02.12.04.18.06.2.07.41.14.61.21.07.02.14.05.21.07.05.01.09.03.14.04.08.02.17.04.26.06.21.05.42.11.63.15.06.01.11.03.17.04.08.02.17.03.25.04.18.03.36.06.54.09.07.01.14.03.22.04s.16.02.24.03c.17.02.34.04.5.06l.24.03c.07,0,.15,0,.23.01.17.01.34.02.51.03.09,0,.17.01.26.01s.14,0,.21,0h.83c.05,0,.11,0,.16-.01.23-.01.46-.03.68-.04.09,0,.18-.01.27-.02l.13-.02.21-.02c.24-.03.47-.06.7-.1l.17-.03h.08c.11-.03.22-.06.33-.08.19-.04.38-.07.56-.12.14-.03.26-.07.4-.11.18-.05.35-.09.52-.14l.11-.03c.21-.07.41-.14.62-.22l.09-.04c.22-.09.44-.18.65-.28l.19-.09c.23-.11.46-.23.68-.36l.12-.07s.07-.05.11-.07.08-.05.12-.07.04-.03.06-.04l.16-.11s.07-.05.11-.07.04-.03.06-.05l.14-.11s.07-.05.1-.07l.08-.07.14-.12s.06-.05.09-.07l.06-.05.06-.05s.03-.03.05-.05.07-.06.1-.09.07-.08.11-.11l.02-.02.07-.08.03-.04s.07-.08.1-.12.08-.09.12-.14v-.02h.01s.03-.04.05-.06l.02-.03s.07-.09.1-.14l.02-.04s.04-.07.07-.1.06-.08.08-.13c.01-.02.02-.04.03-.06l.03-.04s.02-.05.04-.07.03-.06.05-.09.02-.04.03-.07.04-.08.06-.12.03-.06.04-.09.02-.05.03-.08l.03-.06s.01-.04.02-.06.02-.05.03-.08.02-.05.02-.08.02-.08.04-.13.01-.05.02-.07.01-.06.02-.08.01-.05.02-.07,0-.04,0-.05.01-.05.01-.07,0-.06.01-.09.01-.08.02-.12v-.33l-.02,7.86v.17s0,.1-.01.15-.01.09-.02.13-.01.1-.02.14v.04s-.02.06-.03.09-.02.1-.03.14-.03.09-.04.13-.03.1-.05.14l-.02.05-.03.08c-.02.05-.04.1-.06.15s-.04.09-.06.13-.05.1-.08.15l-.04.07-.03.05c-.04.06-.07.12-.11.18-.02.04-.05.07-.07.11-.05.07-.09.13-.14.2l-.05.07h-.01c-.08.12-.17.22-.26.32l-.07.08c-.07.08-.14.15-.23.23l-.05.05-.04.07s-.09.08-.14.13-.09.08-.14.12l-.16.13-.14.11c-.05.04-.11.08-.17.12l-.16.11c-.06.04-.12.08-.18.12l-.11.07-.12.07c-.22.13-.45.24-.68.36l-.19.09c-.21.1-.43.19-.65.27-.03.01-.06.03-.09.04-.2.08-.41.14-.62.21l-.11.04c-.17.05-.35.1-.52.14-.13.04-.26.07-.4.11-.18.04-.37.08-.56.12-.11.02-.22.05-.33.07-.03,0-.05.01-.08.02l-.17.03c-.23.04-.47.07-.7.1l-.2.03h-.13s-.28.03-.28.03c-.23.02-.45.04-.68.05h-.45c-.19.01-.37.01-.56.01h-.46c-.17,0-.34-.02-.51-.03l-.23-.02-.24-.02c-.17-.02-.34-.04-.5-.06-.08-.01-.16-.02-.24-.03s-.14-.02-.21-.03c-.18-.03-.36-.06-.54-.09l-.25-.05-.17-.03c-.21-.05-.42-.1-.63-.15-.09-.02-.17-.04-.26-.07-.05-.01-.1-.03-.14-.04l-.21-.07c-.21-.07-.41-.14-.62-.21l-.18-.06s-.05-.02-.08-.03c-.16-.06-.31-.13-.46-.19-.09-.04-.18-.07-.26-.11-.26-.12-.5-.25-.74-.39-1.68-.74-2.82-2.34-2.99-4.17l.03-7.88ZM70.89,88.59v.17s0,.1-.01.15-.01.09-.02.13-.01.1-.02.15v.04s-.02.06-.03.09-.02.1-.04.14-.03.09-.04.13-.03.1-.05.14l-.02.05-.03.08c-.02.05-.04.1-.06.15s-.04.09-.06.13-.05.1-.08.15l-.04.07-.03.05c-.03.06-.07.12-.11.18-.02.04-.05.07-.07.11-.04.07-.09.13-.14.2-.02.02-.03.05-.05.07v.02c-.09.1-.18.21-.27.31l-.07.08c-.07.08-.15.15-.23.23l-.05.05-.06.05s-.1.09-.14.13l-.14.12-.16.12c-.05.04-.1.08-.15.11l-.17.12-.16.11c-.06.04-.12.08-.18.12l-.11.07-.12.08c-.22.13-.45.25-.68.36l-.19.09c-.21.1-.43.19-.65.28l-.09.03c-.2.08-.41.14-.62.21l-.11.04c-.17.05-.35.1-.52.14-.13.04-.26.07-.4.11-.18.04-.37.08-.56.12-.11.02-.22.05-.33.07l-.08.02-.17.03c-.23.04-.47.07-.7.1l-.2.02s-.09,0-.13.01c-.09.01-.18.02-.28.02-.23.02-.45.04-.68.05h-1.2c-.09,0-.17,0-.26,0-.17,0-.34-.02-.51-.03l-.23-.02-.24-.02c-.17-.02-.34-.03-.5-.06-.08-.01-.16-.02-.24-.03s-.14-.02-.22-.03c-.18-.03-.36-.06-.54-.09l-.25-.05-.17-.03c-.21-.05-.42-.1-.63-.15l-.26-.07s-.1-.02-.14-.04l-.21-.07c-.21-.07-.41-.14-.62-.21l-.18-.06s-.05-.02-.08-.03c-.16-.06-.31-.13-.46-.19-.09-.04-.18-.07-.26-.11-.25-.12-.5-.25-.74-.39-1.68-.75-2.82-2.34-2.99-4.17l.02-7.87h0v.16s0,.09,0,.14.01.1.02.14.01.09.02.13.02.1.03.14.02.09.03.13.03.1.04.14.02.09.04.13.04.1.05.14.03.09.05.13.04.1.07.14.04.09.06.13.05.09.08.14.05.09.07.13.06.09.09.14.05.09.08.13.07.09.1.14.06.08.09.12.08.09.12.14.07.08.1.12.09.09.13.14.07.08.11.12.1.09.14.14l.12.11c.05.05.11.09.17.14l.13.1.19.14.12.09c.07.05.14.1.23.15.04.02.07.05.11.07.12.07.24.14.36.22.24.14.49.27.74.39.08.04.17.07.26.11.15.07.3.14.46.2l.08.03c.06.02.12.04.18.06.2.07.41.14.62.21.07.02.14.05.21.07.05.01.09.03.14.04.08.02.17.04.26.06.21.05.42.11.63.15.06.01.11.03.17.04.08.02.17.03.25.04.18.03.36.06.54.09.07.01.14.03.21.04s.16.02.24.03c.17.02.34.04.51.06.08,0,.16.02.24.03s.15,0,.23.01c.17.01.34.02.51.03.08,0,.17.01.26.01s.14,0,.21,0h.83c.05,0,.11,0,.16-.01.23-.01.46-.03.68-.04.09,0,.18-.01.28-.02l.13-.02.21-.02c.24-.03.47-.06.7-.1l.17-.03h.08c.11-.03.22-.06.33-.08.19-.04.38-.07.56-.12.14-.03.27-.07.4-.11.18-.05.35-.09.52-.14l.11-.03c.21-.07.41-.14.62-.22l.09-.04c.22-.09.44-.18.65-.28l.19-.09c.23-.11.46-.23.68-.36l.12-.07.11-.07.12-.07.06-.04c.05-.03.11-.07.16-.11l.11-.07.06-.05c.05-.04.1-.07.14-.11l.1-.07.06-.05s.09-.08.14-.11.06-.05.09-.07l.06-.06s.04-.03.06-.05l.05-.05s.07-.06.1-.09.07-.08.11-.12l.02-.02s.05-.05.07-.08l.03-.04s.07-.08.1-.12.08-.09.12-.14v-.02s.02,0,.02,0l.05-.06.02-.03s.07-.09.1-.14l.03-.04s.04-.07.07-.1.05-.08.08-.12.02-.04.03-.06l.03-.04s.02-.05.04-.07.04-.06.05-.09.02-.04.03-.07.04-.08.05-.12.03-.06.04-.08.02-.05.03-.08.02-.04.02-.06.01-.04.02-.06.02-.05.03-.08.02-.05.02-.08.02-.08.04-.13.01-.05.02-.07.01-.06.02-.08.01-.05.02-.07v-.05s.02-.05.02-.07,0-.06.01-.09.01-.08.01-.12,0-.04,0-.07v-.26,7.87ZM83.9,107.75l-.24-.02c-.17-.02-.34-.04-.5-.06l-.24-.03-.22-.02c-.18-.03-.36-.06-.54-.09-.08-.02-.17-.03-.25-.05l-.17-.03c-.21-.05-.42-.1-.63-.15l-.26-.07s-.1-.02-.14-.04l-.21-.07c-.21-.06-.41-.14-.62-.21l-.18-.06s-.05-.02-.08-.03c-.16-.06-.31-.13-.46-.19-.09-.04-.18-.07-.26-.11-.26-.12-.5-.25-.74-.39-1.68-.75-2.82-2.34-2.99-4.17l.02-7.87h0v.3c0,.05.01.1.02.14s.01.09.02.14.02.1.03.14.02.09.03.13.03.1.04.14.02.09.04.13.04.1.05.14.03.09.05.13.04.1.07.14.04.09.06.13.05.09.08.14.05.09.07.13.06.09.09.14.05.08.08.13.07.09.11.14.06.08.09.12.08.09.12.14l.1.12s.09.09.13.14.07.08.12.12.1.09.14.14l.12.11c.05.05.11.09.17.14l.12.1c.06.05.13.1.2.14l.11.09c.08.05.16.11.24.16l.09.06c.12.07.24.14.36.22.24.14.49.27.74.39.08.04.18.08.26.11.14.07.3.14.46.2l.08.03.18.06c.2.07.41.14.62.21l.21.07.14.04c.08.02.17.04.26.06.21.05.42.11.63.15.06.01.11.03.17.04.08.02.17.03.25.04.18.03.36.07.54.09.07.01.14.03.22.04s.16.02.24.03c.17.02.34.04.51.06.08,0,.16.02.24.03s.15,0,.23.01c.17.01.34.02.51.03.09,0,.17.01.26.01s.14,0,.21,0h.83c.05,0,.11,0,.16-.01.23-.01.46-.03.68-.05.09,0,.19,0,.28-.02h.13s.2-.04.2-.04c.24-.03.47-.06.7-.1l.19-.04h.08c.11-.03.22-.06.33-.08.19-.04.37-.07.56-.12.14-.03.27-.07.4-.11.17-.05.35-.09.52-.14l.11-.03c.21-.07.41-.14.61-.22l.09-.04c.22-.09.44-.18.65-.28l.19-.09c.23-.11.46-.23.68-.36l.12-.07.11-.07.12-.07s.04-.03.06-.04l.16-.11s.07-.05.11-.07.04-.03.06-.05l.14-.11s.07-.05.1-.07l.06-.05s.09-.07.14-.11.06-.05.09-.07.04-.04.06-.06l.06-.05.05-.05s.07-.06.1-.09.07-.07.11-.11l.02-.02s.05-.05.07-.08l.04-.04s.07-.08.1-.12.08-.09.12-.14v-.02s.01,0,.01,0c.02-.02.03-.04.05-.06l.03-.04s.07-.09.1-.14l.03-.04s.04-.07.06-.1.06-.08.08-.13l.03-.06.03-.04.04-.07s.04-.06.05-.09l.03-.07s.04-.08.06-.12c.01-.03.03-.06.04-.09l.03-.08s.02-.04.02-.06.01-.04.02-.06.02-.05.03-.08.02-.05.02-.08.03-.08.04-.13.01-.05.02-.07l.02-.08s.01-.05.02-.07v-.05s.02-.07.02-.07c0-.03,0-.06.01-.09s.01-.08.02-.12v-.07s0-.06,0-.1v-.17l-.02,7.86v.02c0,.05,0,.1,0,.15s0,.1-.01.15-.01.09-.02.13-.01.1-.02.15v.04s-.02.06-.03.09-.02.1-.04.14l-.04.13s-.03.1-.05.14l-.02.05-.03.08-.06.15-.06.13s-.05.1-.08.14l-.04.07-.03.05c-.03.06-.07.12-.11.18-.02.04-.05.07-.07.11-.04.07-.09.13-.14.2l-.05.07h-.01c-.08.12-.17.22-.26.32l-.07.08c-.07.08-.15.15-.23.23l-.05.05-.06.05-.14.13s-.09.08-.14.12l-.16.12s-.1.08-.14.11l-.17.12-.16.11-.18.12-.11.07s-.08.05-.12.08c-.22.13-.45.25-.68.36l-.19.09c-.21.1-.43.19-.65.28-.03.01-.06.02-.08.03-.2.08-.41.14-.62.21l-.11.04c-.17.05-.35.1-.52.14-.13.04-.26.07-.4.11-.18.04-.37.08-.56.12-.11.02-.22.05-.33.07-.03,0-.05.01-.08.02l-.17.03c-.23.04-.47.07-.7.1l-.2.02h-.13s-.28.03-.28.03c-.23.02-.46.03-.68.04h-.44c-.19,0-.37,0-.56,0h-.46c-.17,0-.34-.02-.51-.03h-.21ZM158.51,80.98l-.06,19.66c0,1.28-.69,2.46-1.79,3.1l-67.1,38.96c-2.4,1.39-5.41-.34-5.41-3.12l.04-19.62c0-1.28.68-2.46,1.79-3.1l61.25-35.59,8.26-4.8c1.33-.77,3,.19,3,1.73v2.78Z"/>
</svg>