<?xml version="1.0" encoding="UTF-8"?>
<svg id="Layer_1" xmlns="http://www.w3.org/2000/svg" viewBox="0 0 200 200">
  <path d="M110.07,165.41h-49.46c-6.76,0-12.25-5.5-12.25-12.25v-76.46c0-6.76,5.5-12.25,12.25-12.25h49.46c6.76,0,12.25,5.5,12.25,12.25v76.46c0,6.76-5.5,12.25-12.25,12.25ZM60.61,74.44c-1.24,0-2.25,1.01-2.25,2.25v76.46c0,1.24,1.01,2.25,2.25,2.25h49.46c1.24,0,2.25-1.01,2.25-2.25v-76.46c0-1.24-1.01-2.25-2.25-2.25h-49.46Z"/>
  <g>
    <path d="M65.13,39.59v12.01h69.5v86.47h12.01V47.14c0-4.17-3.38-7.55-7.55-7.55h-73.97Z"/>
    <path d="M146.64,143.07h-12.01c-2.76,0-5-2.24-5-5V56.61h-64.5c-2.76,0-5-2.24-5-5v-12.01c0-2.76,2.24-5,5-5h73.97c6.92,0,12.55,5.63,12.55,12.55v90.93c0,2.76-2.24,5-5,5ZM139.63,133.07h2.01V47.14c0-1.41-1.14-2.55-2.55-2.55h-68.97v2.01h64.5c2.76,0,5,2.24,5,5v81.47Z"/>
  </g>
</svg>