<?xml version="1.0" encoding="UTF-8"?>
<svg id="Layer_1" xmlns="http://www.w3.org/2000/svg" viewBox="0 0 200 200">
  <path d="M156.39,136.12c.08-.27.14-.54.17-.82,0-.06,0-.12.01-.18.01-.13.02-.26.02-.39v-63.31c0-1.88-1.05-3.6-2.72-4.45l-52.76-26.97c-.07-.04-.15-.06-.22-.1-.06-.03-.13-.06-.19-.08-.26-.1-.53-.19-.8-.25-.05-.01-.1-.02-.16-.03-.28-.05-.57-.08-.86-.09-.02,0-.03,0-.05,0,0,0-.01,0-.02,0-.3,0-.59.04-.88.09-.06.01-.12.02-.19.04-.27.06-.54.14-.8.25-.06.02-.11.05-.17.08-.1.05-.2.09-.3.14l-52.76,28.14s-.04.03-.06.04c-.11.06-.22.13-.33.2-.08.05-.16.1-.23.15-.1.08-.2.16-.29.24-.07.06-.14.12-.21.18-.09.09-.17.18-.25.28-.06.07-.13.14-.19.21-.07.09-.14.2-.21.3-.06.08-.12.16-.17.25,0,0,0,.01-.01.02-.06.1-.1.21-.16.31-.04.09-.09.17-.13.26-.06.14-.11.28-.15.43-.02.06-.05.13-.07.19-.06.21-.1.43-.13.65,0,.04,0,.08,0,.11-.02.18-.04.37-.04.55,0,0,0,.02,0,.03v62.14c0,.14.01.27.03.41,0,.06,0,.11.01.16.03.28.09.56.17.83.02.07.04.13.06.19.1.28.21.56.35.82,0,0,0,0,0,.01.02.04.05.07.07.11.09.14.17.29.27.42.06.08.12.15.18.22.08.09.15.18.23.27.08.08.16.15.24.22.08.07.16.14.24.21.09.07.18.14.27.2.05.04.1.08.16.12l52.76,34c.82.53,1.77.8,2.71.8.14,0,.28-.02.42-.03.15.01.29.03.44.03.03,0,.05,0,.08,0,1.69-.03,3.23-.91,4.13-2.31l50.41-32.48c.06-.04.11-.08.17-.12.09-.06.18-.13.27-.2.08-.07.16-.14.24-.21.08-.07.16-.14.23-.22.08-.09.16-.18.24-.28.06-.07.12-.14.18-.22.11-.15.21-.31.3-.46.02-.03.04-.05.05-.08,0,0,0,0,0,0,.14-.26.25-.54.35-.82.02-.06.04-.13.06-.19ZM51.07,91.82l14.67,26.3-14.67,8.13v-34.43ZM73.2,110.96l-18.61-33.37h38.37l-19.76,33.37ZM116.39,125.53l-16.87,32.64-18.2-32.64h35.07ZM124.48,109.89l-16.62-32.3h33.31l-16.69,32.3ZM103.84,67.59v-14.97l29.29,14.97h-29.29ZM93.84,67.59h-27.76l27.76-14.81v14.81ZM70.61,126.86l15.45,27.7-30.25-19.5,14.81-8.2ZM126.95,126.89l14.89,8.18-28.67,18.48,13.78-26.66ZM131.54,118.01l15.06-29.14v37.42l-15.06-8.28Z"/>
</svg>