<?xml version="1.0" encoding="UTF-8"?>
<svg id="Layer_1" xmlns="http://www.w3.org/2000/svg" viewBox="0 0 200 200">
  <path d="M144.04,81.05c-.95-1.31-2.36-2.18-3.96-2.43-1.6-.25-3.2.13-4.52,1.08-.64.47-1.18,1.06-1.61,1.75l-29.85,34.66c-1.34-.39-2.71-.59-4.11-.59-8.19,0-14.85,6.66-14.85,14.85s6.66,14.86,14.85,14.86,14.86-6.67,14.86-14.86c0-2.23-.51-4.42-1.48-6.43l29.37-34.1s.1-.06.14-.1c1.31-.96,2.16-2.37,2.41-3.97.25-1.6-.15-3.2-1.1-4.51l-.16-.22ZM106.08,130.08c0,3.35-2.73,6.08-6.08,6.08s-6.07-2.73-6.07-6.08c0-3.35,2.72-6.07,6.07-6.07s6.08,2.72,6.08,6.07Z"/>
  <path d="M100,38.64c-41.23,0-74.77,33.54-74.77,74.77,0,16.64,5.37,32.4,15.52,45.58,1.14,1.48,2.94,2.37,4.81,2.37h108.89c1.87,0,3.67-.89,4.81-2.36,10.15-13.18,15.52-28.94,15.52-45.58,0-41.23-33.54-74.77-74.77-74.77ZM162.64,113.41c0,12.93-3.89,25.29-11.26,35.81H48.63c-7.37-10.53-11.26-22.89-11.26-35.81,0-16.7,6.52-32.42,18.37-44.27,11.84-11.84,27.57-18.37,44.27-18.37,34.53,0,62.63,28.1,62.63,62.63Z"/>
  <path d="M62.18,132.75c-1.52-2.97-5.18-4.16-8.16-2.65-2.98,1.52-4.17,5.18-2.65,8.18l.16.31c1.05,2.01,3.11,3.26,5.38,3.26.97,0,1.94-.24,2.81-.69,2.96-1.55,4.12-5.23,2.57-8.18l-.12-.22Z"/>
  <path d="M58.03,103.77l.16-.21c2.02-2.66,1.5-6.48-1.16-8.5-2.66-2.02-6.48-1.5-8.51,1.17l-.19.26c-.97,1.3-1.38,2.9-1.15,4.5.23,1.6,1.07,3.02,2.37,4,1.06.79,2.32,1.21,3.64,1.21,1.9,0,3.72-.91,4.85-2.42Z"/>
  <path d="M75.99,66.09c-1.58-.37-3.2-.11-4.58.74l-.28.17c-2.84,1.77-3.71,5.52-1.94,8.36,1.12,1.79,3.04,2.86,5.15,2.86,1.13,0,2.24-.32,3.2-.91l.24-.15c1.38-.85,2.35-2.19,2.72-3.77.37-1.58.11-3.21-.74-4.58-.85-1.38-2.19-2.35-3.77-2.72Z"/>
  <path d="M142.24,118.17l-.03.24c-.2,1.61.25,3.2,1.25,4.47,1,1.28,2.44,2.09,4.04,2.28.25.03.5.05.74.05,3.06,0,5.65-2.3,6.02-5.36l.04-.33c.37-3.33-2.03-6.34-5.35-6.71h0c-3.33-.37-6.33,2.03-6.71,5.36Z"/>
  <path d="M108.02,71.65l.29.06c.38.08.78.11,1.17.11,2.89,0,5.4-2.06,5.95-4.91.31-1.59-.01-3.21-.92-4.55-.91-1.34-2.28-2.26-3.87-2.57l-.29-.06c-1.59-.31-3.21.02-4.55.92-1.35.91-2.26,2.28-2.57,3.87-.64,3.28,1.51,6.48,4.79,7.12Z"/>
</svg>