<?xml version="1.0" encoding="UTF-8"?>
<svg id="Layer_1" xmlns="http://www.w3.org/2000/svg" viewBox="0 0 200 200">
  <path d="M105.35,51.18c-20.69,0-55.72,4.08-55.72,19.36v58.92c0,15.29,35.02,19.37,55.72,19.37s55.72-4.08,55.72-19.37v-58.92c0-15.29-35.02-19.36-55.72-19.36ZM151.07,101.18c-1.56,3.36-18.4,9.51-45.72,9.51s-44.16-6.15-45.72-9.51v-18.76c11.93,5.68,31.98,7.49,45.72,7.49s33.79-1.8,45.72-7.49v18.76ZM105.35,138.82c-27.31,0-44.15-6.15-45.72-9.51v-16.11c11.93,5.68,31.98,7.49,45.72,7.49s33.79-1.8,45.72-7.49v16.11c-1.56,3.36-18.41,9.51-45.72,9.51Z"/>
</svg>