<?xml version="1.0" encoding="UTF-8"?>
<svg id="Layer_1" xmlns="http://www.w3.org/2000/svg" viewBox="0 0 200 200">
  <defs>
    <style>
      .cls-1 {
        fill-rule: evenodd;
      }
    </style>
  </defs>
  <path class="cls-1" d="M143.09,124.62c-2.01,0-3.95.32-5.77.92l-5.99-5.99c3.55-5.67,5.6-12.38,5.6-19.56s-2.09-14.03-5.71-19.74l15.31-17.5c.87.2,1.78.3,2.72.3,6.8,0,12.31-5.51,12.31-12.31s-5.51-12.31-12.31-12.31-12.31,5.51-12.31,12.31c0,1.27.19,2.5.55,3.65l-14.56,16.64c-6.3-4.99-14.27-7.98-22.93-7.98-7.98,0-15.36,2.53-21.4,6.83l-5.02-5.02c1.15-2.41,1.8-5.11,1.8-7.96,0-10.2-8.27-18.47-18.47-18.47s-18.47,8.27-18.47,18.47,8.27,18.47,18.47,18.47c2.85,0,5.55-.65,7.96-1.8l5.02,5.02c-4.3,6.04-6.83,13.43-6.83,21.4,0,8.92,3.16,17.1,8.42,23.48l-6.03,7.53c-.77-.15-1.58-.23-2.4-.23-6.8,0-12.31,5.51-12.31,12.31s5.51,12.31,12.31,12.31,12.31-5.51,12.31-12.31c0-1.38-.23-2.71-.65-3.96l6.07-7.58c5.6,3.41,12.17,5.38,19.21,5.38,8.77,0,16.82-3.05,23.15-8.16l4.37,4.37c-1.84,2.87-2.9,6.28-2.9,9.94,0,10.2,8.27,18.47,18.47,18.47s18.47-8.27,18.47-18.47-8.27-18.47-18.47-18.47ZM60.47,61.92c-1.01.72-2.23,1.14-3.56,1.14-3.4,0-6.16-2.76-6.16-6.16,0-1.89.85-3.58,2.2-4.71.4-.33.83-.61,1.3-.84.15-.07.31-.14.47-.2.68-.26,1.42-.41,2.19-.41,3.4,0,6.16,2.76,6.16,6.16,0,2.07-1.03,3.9-2.59,5.02ZM124.13,104.96c-2.3,11.22-12.22,19.66-24.12,19.66-6.8,0-12.96-2.76-17.41-7.21,0,0-.01-.01-.02-.02-.53-.53-1.03-1.09-1.51-1.66-1.03-1.23-1.93-2.57-2.71-3.99-.25-.46-.48-.93-.7-1.4-1.46-3.14-2.27-6.64-2.27-10.34s.82-7.19,2.27-10.34c.22-.47.45-.94.7-1.4.77-1.42,1.68-2.76,2.71-3.99,4.52-5.44,11.33-8.9,18.95-8.9,11.9,0,21.83,8.44,24.12,19.66.33,1.6.5,3.26.5,4.96s-.17,3.36-.5,4.96ZM143.09,149.25c-3.4,0-6.16-2.76-6.16-6.16,0-2.07,1.03-3.9,2.59-5.02,1.01-.72,2.23-1.14,3.56-1.14,1.06,0,2.06.27,2.93.74,1.92,1.04,3.22,3.08,3.22,5.41,0,3.4-2.76,6.16-6.16,6.16Z"/>
</svg>