<?xml version="1.0" encoding="UTF-8"?>
<svg id="Layer_1" xmlns="http://www.w3.org/2000/svg" viewBox="0 0 200 200">
  <path d="M151.78,50.72c-9.33-4.28-19.33-7.43-29.78-9.24-.19-.03-.38.05-.48.23-1.29,2.29-2.71,5.27-3.71,7.62-11.25-1.68-22.44-1.68-33.45,0-1-2.4-2.47-5.33-3.77-7.62-.1-.17-.29-.26-.48-.23-10.45,1.8-20.45,4.95-29.78,9.24-.08.03-.15.09-.2.17-18.97,28.34-24.17,55.99-21.62,83.29.01.13.09.26.19.34,12.52,9.19,24.64,14.77,36.54,18.47.19.06.39-.01.51-.17,2.81-3.84,5.32-7.9,7.47-12.16.13-.25,0-.55-.25-.64-3.98-1.51-7.77-3.35-11.41-5.44-.29-.17-.31-.58-.05-.78.77-.57,1.53-1.17,2.27-1.78.13-.11.32-.13.47-.06,23.95,10.93,49.87,10.93,73.54,0,.16-.08.34-.05.48.06.73.6,1.5,1.21,2.27,1.78.27.2.25.61-.04.78-3.65,2.13-7.43,3.93-11.42,5.43-.26.1-.37.4-.25.65,2.2,4.26,4.71,8.31,7.47,12.15.12.16.32.23.51.17,11.96-3.7,24.08-9.28,36.6-18.47.11-.08.18-.2.19-.34,3.05-31.56-5.11-58.98-21.63-83.29-.04-.08-.11-.14-.19-.17ZM76.8,117.55c-7.21,0-13.15-6.62-13.15-14.75s5.83-14.75,13.15-14.75,13.27,6.68,13.15,14.75c0,8.13-5.83,14.75-13.15,14.75ZM125.42,117.55c-7.21,0-13.15-6.62-13.15-14.75s5.83-14.75,13.15-14.75,13.27,6.68,13.15,14.75c0,8.13-5.77,14.75-13.15,14.75Z"/>
</svg>