<?xml version="1.0" encoding="UTF-8"?>
<svg id="Layer_1" xmlns="http://www.w3.org/2000/svg" viewBox="0 0 200 200">
  <g>
    <path d="M100,131.27c-3.34,0-6.48-1.3-8.84-3.66l-29.39-29.39c-1.95-1.95-1.95-5.12,0-7.07,1.95-1.95,5.12-1.95,7.07,0l29.39,29.39c.64.64,1.38.73,1.77.73s1.13-.1,1.77-.73l29.39-29.39c1.95-1.95,5.12-1.95,7.07,0,1.95,1.95,1.95,5.12,0,7.07l-29.39,29.39c-2.36,2.36-5.5,3.66-8.84,3.66Z"/>
    <path d="M100,129.42c-2.76,0-5-2.24-5-5V53.21c0-2.76,2.24-5,5-5s5,2.24,5,5v71.21c0,2.76-2.24,5-5,5Z"/>
  </g>
  <path d="M134.7,151.79h-69.4c-2.76,0-5-2.24-5-5s2.24-5,5-5h69.4c2.76,0,5,2.24,5,5s-2.24,5-5,5Z"/>
</svg>