<?xml version="1.0" encoding="UTF-8"?>
<svg id="Layer_1" xmlns="http://www.w3.org/2000/svg" viewBox="0 0 200 200">
  <path d="M77.79,75.22c-10.04,0-18.21-8.17-18.21-18.21s8.17-18.21,18.21-18.21,18.21,8.17,18.21,18.21-8.17,18.21-18.21,18.21ZM77.79,48.8c-4.53,0-8.21,3.68-8.21,8.21s3.68,8.21,8.21,8.21,8.21-3.68,8.21-8.21-3.68-8.21-8.21-8.21Z"/>
  <path d="M122.21,75.22c-10.04,0-18.21-8.17-18.21-18.21s8.17-18.21,18.21-18.21,18.21,8.17,18.21,18.21-8.17,18.21-18.21,18.21ZM122.21,48.8c-4.53,0-8.21,3.68-8.21,8.21s3.68,8.21,8.21,8.21,8.21-3.68,8.21-8.21-3.68-8.21-8.21-8.21Z"/>
  <path d="M77.79,118.21c-10.04,0-18.21-8.17-18.21-18.21s8.17-18.21,18.21-18.21,18.21,8.17,18.21,18.21-8.17,18.21-18.21,18.21ZM77.79,91.79c-4.53,0-8.21,3.68-8.21,8.21s3.68,8.21,8.21,8.21,8.21-3.68,8.21-8.21-3.68-8.21-8.21-8.21Z"/>
  <path d="M122.21,118.21c-10.04,0-18.21-8.17-18.21-18.21s8.17-18.21,18.21-18.21,18.21,8.17,18.21,18.21-8.17,18.21-18.21,18.21ZM122.21,91.79c-4.53,0-8.21,3.68-8.21,8.21s3.68,8.21,8.21,8.21,8.21-3.68,8.21-8.21-3.68-8.21-8.21-8.21Z"/>
  <path d="M77.79,161.2c-10.04,0-18.21-8.17-18.21-18.21s8.17-18.21,18.21-18.21,18.21,8.17,18.21,18.21-8.17,18.21-18.21,18.21ZM77.79,134.78c-4.53,0-8.21,3.68-8.21,8.21s3.68,8.21,8.21,8.21,8.21-3.68,8.21-8.21-3.68-8.21-8.21-8.21Z"/>
  <g>
    <circle cx="122.21" cy="142.99" r="13.21"/>
    <path d="M122.21,161.2c-10.04,0-18.21-8.17-18.21-18.21s8.17-18.21,18.21-18.21,18.21,8.17,18.21,18.21-8.17,18.21-18.21,18.21ZM122.21,134.78c-4.53,0-8.21,3.68-8.21,8.21s3.68,8.21,8.21,8.21,8.21-3.68,8.21-8.21-3.68-8.21-8.21-8.21Z"/>
  </g>
</svg>