<?xml version="1.0" encoding="UTF-8"?>
<svg id="Layer_1" xmlns="http://www.w3.org/2000/svg" viewBox="0 0 200 200">
  <path d="M110.07,64.44h-49.46c-6.76,0-12.25,5.5-12.25,12.25v76.46c0,6.76,5.5,12.25,12.25,12.25h49.46c6.76,0,12.25-5.5,12.25-12.25v-76.46c0-6.76-5.5-12.25-12.25-12.25ZM112.32,153.16c0,1.24-1.01,2.25-2.25,2.25h-49.46c-1.24,0-2.25-1.01-2.25-2.25v-76.46c0-1.24,1.01-2.25,2.25-2.25h49.46c1.24,0,2.25,1.01,2.25,2.25v76.46Z"/>
  <path d="M139.09,34.59h-73.97c-2.76,0-5,2.24-5,5v12.01c0,2.76,2.24,5,5,5h64.5v81.47c0,2.76,2.24,5,5,5h12.01c2.76,0,5-2.24,5-5V47.14c0-6.92-5.63-12.55-12.55-12.55Z"/>
  <path d="M98.38,114.12h-8.04v-8.04c0-2.76-2.24-5-5-5s-5,2.24-5,5v8.04h-8.04c-2.76,0-5,2.24-5,5s2.24,5,5,5h8.04v8.04c0,2.76,2.24,5,5,5s5-2.24,5-5v-8.04h8.04c2.76,0,5-2.24,5-5s-2.24-5-5-5Z"/>
</svg>