<?xml version="1.0" encoding="UTF-8"?>
<svg id="Layer_1" xmlns="http://www.w3.org/2000/svg" viewBox="0 0 200 200">
  <path d="M147.34,76.3h0c0-.66-.13-1.31-.38-1.91s-.61-1.15-1.08-1.62l-18.72-18.72c-1.95-1.95-5.12-1.95-7.07,0L54.12,120c-1,1-1.53,2.37-1.46,3.78l.91,18.88c.13,2.67,2.33,4.76,4.99,4.76h.05l17.81-.16c1.31-.01,2.56-.54,3.49-1.46l51-51h0l14.96-14.96c.39-.39.69-.85.93-1.33.34-.68.53-1.43.53-2.2h0ZM74.29,137.28l-10.96.1-.57-11.87,45.9-45.9,11.65,11.65-46.02,46.02Z"/>
  <path d="M142.34,147.42h-38.46c-2.76,0-5-2.24-5-5s2.24-5,5-5h38.46c2.76,0,5,2.24,5,5s-2.24,5-5,5Z"/>
</svg>