<?xml version="1.0" encoding="UTF-8"?>
<svg id="Layer_1" xmlns="http://www.w3.org/2000/svg" viewBox="0 0 200 200">
  <path d="M106.82,147.81c-21.98,0-42.64-8.56-58.19-24.1l-16.95-16.95c-1.95-1.95-1.95-5.12,0-7.07l18.89-18.89c15.02-15.02,35-23.3,56.25-23.3s41.22,8.27,56.24,23.3l18.89,18.89c1.95,1.95,1.95,5.12,0,7.07l-16.95,16.95c-15.54,15.54-36.21,24.1-58.19,24.1ZM55.71,116.64c28.18,28.18,74.04,28.18,102.23,0l13.42-13.42-15.36-15.36c-13.13-13.13-30.6-20.37-49.17-20.37s-36.04,7.23-49.17,20.37l-15.36,15.36,13.42,13.42Z"/>
  <path d="M118.74,100.02c-4.82,0-8.72-3.9-8.72-8.72s3.89-8.7,8.69-8.72c-3.5-2.02-7.56-3.2-11.89-3.2-13.16,0-23.83,10.67-23.83,23.83s10.67,23.83,23.83,23.83,23.83-10.67,23.83-23.83c0-4.34-1.18-8.39-3.2-11.89-.01,4.81-3.91,8.69-8.72,8.69Z"/>
</svg>