<?xml version="1.0" encoding="UTF-8"?>
<svg id="Layer_1" xmlns="http://www.w3.org/2000/svg" viewBox="0 0 200 200">
  <defs>
    <style>
      .cls-1 {
        fill: #0866ff;
      }

      .cls-2 {
        fill: #fff;
      }
    </style>
  </defs>
  <path id="Initiator" class="cls-1" d="M160.63,100c0-33.48-27.14-60.63-60.63-60.63s-60.63,27.14-60.63,60.63c0,28.43,19.57,52.29,45.98,58.84v-40.32h-12.5v-18.53h12.5v-7.98c0-20.64,9.34-30.2,29.6-30.2,3.84,0,10.47.75,13.18,1.51v16.8c-1.43-.15-3.92-.23-7-.23-9.94,0-13.78,3.77-13.78,13.56v6.55h19.8l-3.4,18.53h-16.4v41.66c30.02-3.63,53.28-29.19,53.28-60.19Z"/>
  <path id="F" class="cls-2" d="M123.75,118.53l3.4-18.53h-19.8v-6.55c0-9.79,3.84-13.56,13.78-13.56,3.09,0,5.57.08,7,.23v-16.8c-2.71-.75-9.34-1.51-13.18-1.51-20.26,0-29.6,9.56-29.6,30.2v7.98h-12.5v18.53h12.5v40.32c4.69,1.16,9.6,1.79,14.65,1.79,2.49,0,4.94-.15,7.35-.44v-41.66h16.4Z"/>
</svg>