<?xml version="1.0" encoding="UTF-8"?>
<svg id="Layer_1" xmlns="http://www.w3.org/2000/svg" viewBox="0 0 200 200">
  <path d="M138.7,172.13H61.3c-12.21,0-22.13-9.93-22.13-22.13V50c0-12.21,9.93-22.13,22.13-22.13h33.25c2.76,0,5,2.24,5,5s-2.24,5-5,5h-33.25c-6.69,0-12.13,5.44-12.13,12.13v99.99c0,6.69,5.44,12.13,12.13,12.13h77.39c6.69,0,12.13-5.44,12.13-12.13v-59.3c0-2.76,2.24-5,5-5s5,2.24,5,5v59.3c0,12.2-9.93,22.13-22.13,22.13Z"/>
  <g>
    <path d="M150.51,68.55h-19.37c-7.07,0-12.79-5.73-12.79-12.79v-22.27s35.19,35.19,35.19,35.19l-3.02-.12Z"/>
    <path d="M153.53,73.67c-.07,0-.13,0-.2,0l-2.92-.12h-19.27c-9.81,0-17.79-7.98-17.79-17.79v-22.27c0-2.02,1.22-3.85,3.09-4.62,1.87-.77,4.02-.35,5.45,1.08l35.19,35.19c1.46,1.46,1.87,3.66,1.04,5.54-.8,1.82-2.6,2.99-4.58,2.99ZM123.34,45.55v10.2c0,4.3,3.5,7.79,7.79,7.79h10.2l-18-18Z"/>
  </g>
  <path d="M101.97,138.65h-31.71c-2.76,0-5-2.24-5-5s2.24-5,5-5h31.71c2.76,0,5,2.24,5,5s-2.24,5-5,5Z"/>
  <path d="M130.86,138.65h-8.85c-2.76,0-5-2.24-5-5s2.24-5,5-5h8.85c2.76,0,5,2.24,5,5s-2.24,5-5,5Z"/>
  <g>
    <path d="M130.86,114.34h-31.71c-2.76,0-5-2.24-5-5s2.24-5,5-5h31.71c2.76,0,5,2.24,5,5s-2.24,5-5,5Z"/>
    <path d="M78.61,114.34h-8.34c-2.76,0-5-2.24-5-5s2.24-5,5-5h8.34c2.76,0,5,2.24,5,5s-2.24,5-5,5Z"/>
    <path d="M92.68,90.03h-22.42c-2.76,0-5-2.24-5-5s2.24-5,5-5h22.42c2.76,0,5,2.24,5,5s-2.24,5-5,5Z"/>
  </g>
</svg>