<?xml version="1.0" encoding="UTF-8"?>
<svg id="Layer_1" xmlns="http://www.w3.org/2000/svg" viewBox="0 0 200 200">
  <path d="M107.16,144.86c-.91,0-1.82-.25-2.62-.74l-13.95-8.59c-1.48-.91-2.38-2.52-2.38-4.26v-14l-34.37-33.35c-.97-.94-1.52-2.24-1.52-3.59v-20.19c0-2.76,2.24-5,5-5h85.36c2.76,0,5,2.24,5,5v20.19c0,1.36-.55,2.66-1.53,3.6l-33.99,32.77v23.16c0,1.81-.98,3.48-2.56,4.37-.76.42-1.6.63-2.44.63ZM98.21,128.47l3.95,2.43v-16.33c0-1.36.55-2.66,1.53-3.6l33.99-32.77v-13.07H62.32v13.07l34.37,33.35c.97.94,1.52,2.24,1.52,3.59v13.32Z"/>
</svg>