<?xml version="1.0" encoding="UTF-8"?>
<svg id="Layer_1" xmlns="http://www.w3.org/2000/svg" viewBox="0 0 200 200">
  <path d="M97.58,61.81c-.77-1.88-2.6-3.11-4.63-3.11h-10.56c-2.07,0-3.93,1.28-4.67,3.21l-28.44,74.05c-.59,1.54-.39,3.27.55,4.62.93,1.36,2.47,2.17,4.12,2.17h10.41c2.1,0,3.98-1.32,4.7-3.3l6.94-19.13h24.03l7.4,19.22c.74,1.93,2.6,3.2,4.67,3.2h11.16c1.67,0,3.22-.83,4.15-2.21s1.11-3.14.48-4.68l-30.31-74.05ZM82.53,102.34l5.32-14.2c.06.15.11.3.17.45l5.18,13.74h-10.67Z"/>
  <path d="M141.22,57.25h-13.46c-2.76,0-5,2.24-5,5s2.24,5,5,5h13.28v64.88c0,.19-.16.35-.35.35h-.87c-2.76,0-5,2.24-5,5s2.24,5,5,5h.87c5.71,0,10.35-4.64,10.35-10.35v-65.05c0-5.42-4.41-9.83-9.83-9.83Z"/>
</svg>