<?xml version="1.0" encoding="UTF-8"?>
<svg id="Layer_1" xmlns="http://www.w3.org/2000/svg" viewBox="0 0 200 200">
  <path d="M123.26,151.75h-62.69c-6.18,0-11.21-5.03-11.21-11.21v-62.69c0-6.18,5.03-11.21,11.21-11.21h36.54c2.76,0,5,2.24,5,5s-2.24,5-5,5h-36.54c-.67,0-1.21.54-1.21,1.21v62.69c0,.67.54,1.21,1.21,1.21h62.69c.67,0,1.21-.54,1.21-1.21v-34c0-2.76,2.24-5,5-5s5,2.24,5,5v34c0,6.18-5.03,11.21-11.21,11.21Z"/>
  <g>
    <path d="M145.64,98.14c-2.76,0-5-2.24-5-5v-34.89h-34.89c-2.76,0-5-2.24-5-5s2.24-5,5-5h35.27c5.31,0,9.62,4.32,9.62,9.62v35.27c0,2.76-2.24,5-5,5ZM141.02,58.25h0,0Z"/>
    <path d="M88.96,114.93c-1.28,0-2.56-.49-3.54-1.46-1.95-1.95-1.95-5.12,0-7.07l53.69-53.69c1.95-1.95,5.12-1.95,7.07,0,1.95,1.95,1.95,5.12,0,7.07l-53.69,53.69c-.98.98-2.26,1.46-3.54,1.46Z"/>
  </g>
</svg>