<?xml version="1.0" encoding="UTF-8"?>
<svg id="Layer_1" xmlns="http://www.w3.org/2000/svg" viewBox="0 0 200 200">
  <path d="M136.49,47.68l.11-.17h-64.63c-24.11,0-43.73,19.62-43.73,43.73v36.56c0,15.69,12.76,28.45,28.45,28.45,7.09,0,13.88-2.62,19.11-7.38l13.46-12.21c7.37-6.68,18.49-6.68,25.87,0l13.46,12.21c5.25,4.76,12.03,7.38,19.11,7.38,15.93,0,28.88-12.75,28.88-28.41v-36.59c0-22.89-17.67-41.72-40.09-43.58ZM163.87,127.83c0,8.51-7.4,15.69-16.17,15.69-3.91,0-7.66-1.45-10.57-4.08l-13.46-12.21c-5.92-5.37-13.55-8.32-21.48-8.32s-15.56,2.96-21.48,8.32l-13.46,12.21c-2.9,2.63-6.65,4.08-10.57,4.08-8.67,0-15.73-7.06-15.73-15.73v-36.56c0-17.1,13.91-31.01,31.01-31.01h60.89c17.1,0,31.01,13.91,31.01,31.01v36.6Z"/>
  <path d="M81.91,85.31h-3.85v-3.85c0-3.51-2.85-6.36-6.36-6.36s-6.36,2.85-6.36,6.36v3.85h-3.85c-3.51,0-6.36,2.85-6.36,6.36s2.85,6.36,6.36,6.36h3.85v3.85c0,3.51,2.85,6.36,6.36,6.36s6.36-2.85,6.36-6.36v-3.85h3.85c3.51,0,6.36-2.85,6.36-6.36s-2.85-6.36-6.36-6.36Z"/>
  <path d="M143.33,85.31h-20.41c-3.51,0-6.36,2.85-6.36,6.36s2.85,6.36,6.36,6.36h20.41c3.51,0,6.36-2.85,6.36-6.36s-2.85-6.36-6.36-6.36Z"/>
</svg>