<?xml version="1.0" encoding="UTF-8"?>
<svg id="Layer_1" xmlns="http://www.w3.org/2000/svg" viewBox="0 0 200 200">
  <path d="M166.12,81.93l-62.42-31.12c-1.36-.68-2.95-.7-4.32-.07l-65.36,30.09c-1.77.82-2.91,2.59-2.91,4.54v28.53c0,1.92,1.1,3.67,2.83,4.5l42.93,20.7,1.69.97c.46.26.95.44,1.46.55l17.82,8.59c.69.33,1.43.5,2.17.5s1.49-.17,2.17-.5l63.89-30.81c1.73-.83,2.83-2.58,2.83-4.5v-27.49c0-1.9-1.07-3.63-2.77-4.47ZM101.38,60.83l11.16,5.57-11.36,6.36-11.6-6.5,11.79-5.43ZM62.79,97.2v24.02l-21.68-10.46v-22.19l22.84-10.51,14.25,7.57-12.85,7.2c-1.58.88-2.56,2.55-2.56,4.36ZM113.21,132.79l-13.21,6.37-13.96-6.73v-26.44l15.23-8.09,11.94,6.34v28.55ZM158.89,110.76l-22.42,10.81v-26.13c0-1.81-.98-3.48-2.56-4.36l-9.65-5.4,13.05-6.94,21.57,10.76v21.26Z"/>
</svg>