<?xml version="1.0" encoding="UTF-8"?>
<svg id="Layer_1" xmlns="http://www.w3.org/2000/svg" viewBox="0 0 200 200">
  <path d="M100.5,159.06c-5.28,0-12.78-3.28-18.5-18.93-3.88-10.62-6.02-24.65-6.02-39.48s2.14-28.86,6.02-39.48c5.72-15.64,13.22-18.93,18.5-18.93s12.78,3.28,18.5,18.93c3.88,10.62,6.02,24.65,6.02,39.48s-2.14,28.86-6.02,39.48c-5.72,15.64-13.22,18.93-18.5,18.93ZM100.5,52.24c-5.78,0-14.52,19.31-14.52,48.41,0,13.7,1.92,26.5,5.41,36.05,3.12,8.54,6.82,12.36,9.11,12.36,5.78,0,14.52-19.31,14.52-48.41,0-13.7-1.92-26.5-5.41-36.05-3.12-8.54-6.82-12.36-9.11-12.36Z"/>
  <path d="M100.5,125.17c-14.84,0-28.86-2.14-39.48-6.02-15.64-5.72-18.93-13.22-18.93-18.5s3.28-12.78,18.93-18.5c10.62-3.88,24.65-6.02,39.48-6.02s28.86,2.14,39.48,6.02c15.64,5.72,18.93,13.22,18.93,18.5s-3.28,12.78-18.93,18.5c-10.62,3.88-24.65,6.02-39.48,6.02ZM100.5,86.13c-13.7,0-26.5,1.92-36.05,5.41-8.54,3.12-12.36,6.82-12.36,9.11,0,5.78,19.31,14.52,48.41,14.52,13.7,0,26.5-1.92,36.05-5.41,8.54-3.12,12.36-6.82,12.36-9.11,0-5.78-19.31-14.52-48.41-14.52Z"/>
  <path d="M100,160.34c-33.27,0-60.34-27.07-60.34-60.34s27.07-60.34,60.34-60.34,60.34,27.07,60.34,60.34-27.07,60.34-60.34,60.34ZM100,49.66c-27.76,0-50.34,22.58-50.34,50.34s22.58,50.34,50.34,50.34,50.34-22.58,50.34-50.34-22.58-50.34-50.34-50.34Z"/>
</svg>