<?xml version="1.0" encoding="UTF-8"?>
<svg id="Layer_1" xmlns="http://www.w3.org/2000/svg" viewBox="0 0 200 200">
  <path d="M100,34.66c-25.12,0-45.52,20.75-45.52,46.28,0,10.71,3.58,20.59,9.58,28.43,0,0,0,0,0,.01,3.49,4.78,10.6,13.61,17.15,23.36,6.56,9.77,12.38,20.55,13.29,27.85,0,.01,0,.02,0,.04.37,2.69,2.67,4.71,5.33,4.71s5.02-2.03,5.34-4.76c.88-7.09,6.46-17.44,12.84-26.94,6.39-9.51,13.45-18.27,17.19-23.34-.03.04.1-.14.17-.22,6.33-7.95,10.14-18.1,10.14-29.12,0-25.54-20.4-46.28-45.52-46.28ZM100,40.1c1.63,0,3.18.3,4.76.49l-18.53,23.02-14.36-11.8c7.24-7.23,17.15-11.7,28.13-11.7ZM110.74,41.76c10.9,3.07,19.83,10.62,24.88,20.65l-14.34,17.82c-.39-11.66-9.72-21.07-21.28-21.07-1.39,0-2.6.55-3.92.81l14.65-18.21ZM68.41,55.96l14.43,11.86-20.88,25.94c-1.32-4.04-2.13-8.32-2.13-12.83,0-9.47,3.28-18.06,8.57-24.98ZM100,64.61c8.92,0,16.07,7.27,16.07,16.34s-7.15,16.34-16.07,16.34-16.07-7.27-16.07-16.34,7.15-16.34,16.07-16.34ZM137.95,68.11c1.32,4.06,2.21,8.32,2.21,12.84,0,9.76-3.36,18.7-8.96,25.73-.05.07-.1.14-.15.21.17-.27.08-.13-.13.15-3.57,4.84-10.78,13.77-17.34,23.54-6.56,9.76-12.6,20.25-13.73,29.35,0,0,0,.01,0,.02,0,0,.05-.03-.02-.03-.02,0-.02,0-.03-.02-1.09-8.73-6.77-18.76-12.99-28.22l51.13-63.55ZM78.71,81.57c.35,11.7,9.71,21.15,21.29,21.15,1.35,0,2.53-.54,3.81-.79l-20.15,25.05c-6.02-8.65-12.43-16.92-15.33-20.9-.01-.02-.03-.04-.04-.05-1.58-2.06-2.53-4.56-3.71-6.91l14.12-17.55Z"/>
</svg>