<?xml version="1.0" encoding="UTF-8"?>
<svg id="Layer_1" xmlns="http://www.w3.org/2000/svg" viewBox="0 0 200 200">
  <defs>
    <style>
      .cls-1 {
        fill: #5695f6;
      }

      .cls-2 {
        fill: #48b564;
      }

      .cls-3 {
        fill: #ed5748;
      }

      .cls-4 {
        fill: #2c85eb;
      }

      .cls-5 {
        fill: #fcc60e;
      }
    </style>
  </defs>
  <path class="cls-2" d="M136.03,105.7h.03s-11.55,16.94-21.26,29.53c-8.39,10.88-10.85,20.19-11.55,24.69-.28,1.65-1.62,2.88-3.25,2.88s-2.97-1.23-3.25-2.88c-.7-4.5-3.16-13.82-11.55-24.69-1.29-1.68-2.6-3.43-3.92-5.21l31.71-37.68,25.52-30.27c2.82,5.91,4.38,12.53,4.38,19.55,0,8.88-2.54,17.13-6.86,24.08Z"/>
  <path class="cls-5" d="M112.99,92.34l-31.71,37.68c-8.64-11.58-17.34-24.32-17.34-24.32h.03c-.92-1.47-1.75-2.97-2.45-4.53l25.49-30.27c-2.42,2.91-3.86,6.65-3.86,10.72,0,9.31,7.54,16.85,16.85,16.85,5.24,0,9.93-2.39,12.99-6.13Z"/>
  <path class="cls-4" d="M113.48,39.46l-26.25,31.19-20.1-17.52c7.84-9.74,19.67-15.93,32.87-15.93,4.72,0,9.25.8,13.48,2.27Z"/>
  <path class="cls-3" d="M87.22,70.65l-.21.25-25.49,30.27c-2.82-5.91-4.41-12.53-4.41-19.55,0-10.85,3.77-20.8,10.02-28.49l20.1,17.52Z"/>
  <path class="cls-1" d="M112.99,92.34c2.42-2.91,3.86-6.65,3.86-10.72,0-9.31-7.54-16.85-16.85-16.85-5.24,0-9.93,2.39-12.99,6.13l26.47-31.43c11,3.74,20.01,11.98,25.03,22.61l-25.52,30.27Z"/>
</svg>