<?xml version="1.0" encoding="UTF-8"?>
<svg id="Layer_1" xmlns="http://www.w3.org/2000/svg" viewBox="0 0 200 200">
  <path d="M167.05,77.81c-.19-.78-.58-1.52-1.19-2.12l-4.59-4.61,1.79,3.32c-1.28-.1-2.58.33-3.55,1.3l-11.33,11.33-24.84-24.84c-1.75-1.75-4.6-1.75-6.36,0-1.75,1.75-1.75,4.6,0,6.36l30.29,30.3s.06.06.06.16c0,.08-.03.13-.07.17l-12.87,12.87c-.13.1-.19.12-.19.12-.01,0-.08-.02-.22-.13l-47.25-47.24c-.1-.1-.1-.23,0-.33l12.91-12.91c.15-.15.25-.09.34,0l6.96,6.96c1.75,1.75,4.6,1.75,6.36,0,.85-.85,1.32-1.98,1.32-3.18s-.47-2.33-1.32-3.18l-1.51-1.51,11.33-11.33c1.75-1.75,1.75-4.6,0-6.36-1.75-1.75-4.6-1.75-6.36,0l-11.41,11.41c-3.63-2.75-8.77-2.45-12.05.83l-12.91,12.91c-1.86,1.84-2.81,4.29-2.68,6.91.12,2.39,1.13,4.65,2.82,6.36-14.57,12.17-25.91,13.32-35.94,14.34l-1.65.17c-5.7.57-10.17,5.31-10.38,11.02-.37,10.24-1.09,30.63-1.62,46.25-.04,1.2.39,2.34,1.21,3.22s1.93,1.38,3.13,1.42c1.22.04,2.34-.38,3.22-1.2.88-.82,1.39-1.94,1.43-3.14.54-15.62,1.25-36.01,1.62-46.23.05-1.27,1.01-2.28,2.29-2.4l1.5-.14c9.26-.88,24.67-2.35,41.62-16.96l34.16,34.16c-14.5,17.03-15.93,31.19-16.98,41.56l-.16,1.52c-.13,1.29-1.14,2.26-2.39,2.3-11.03.39-32.39,1.14-49.13,1.73l-6.51.23,27.69-27.69c4.77,2.78,10.79,2.75,15.9-.1,5.34-2.98,8.56-8.44,8.41-14.2.1-6.65-3.79-12.41-10.15-15.04-6.35-2.63-13.16-1.29-17.76,3.46-.75.74-4.45,4.61-3.85,8.11.17.97.77,2.32,2.7,3.22,1.11.45,2.33.44,3.43-.03,1.11-.47,1.97-1.35,2.43-2.49.81-2.19,2.78-3.81,5.27-4.34,2.56-.54,5.08.16,6.75,1.87,3.45,3.68,2.4,7.97-.03,10.41-2.5,2.5-6.68,3.48-10.37.02-1.75-1.75-4.6-1.75-6.36,0l-.28.28h0c-1.73,1.74-11.61,11.62-20.42,20.42-11.73,11.73-14.68,14.67-15.44,15.52l-.04-.04c-.86.84-1.33,1.97-1.34,3.18,0,1.22.47,2.35,1.32,3.2,2.15,2.15,5.08,3.36,8.08,3.36.15,0,.31,0,.46,0,3.56-.12,8.19-.28,13.28-.47,15.63-.54,36.02-1.25,46.24-1.62,6.17-.16,11.19-5.55,11.19-11.92.82-8.61,2.06-21.53,14.36-36.05,1.68,1.68,3.95,2.69,6.39,2.81,2.68.13,5.13-.82,6.89-2.67l12.9-12.9c1.67-1.61,2.66-3.92,2.7-6.36.04-2.1-.63-4.14-1.85-5.73l11.4-11.4c.68-.68,1.1-1.54,1.25-2.43l1.97,1.97-2.03-3.78Z"/>
</svg>