<?xml version="1.0" encoding="UTF-8"?>
<svg id="Layer_1" xmlns="http://www.w3.org/2000/svg" viewBox="0 0 200 200">
  <path d="M178.42,99.99c0-1.4-.53-4.88-5.46-6.91l-12.47-5.13,12.47-5.13c4.93-2.02,5.46-5.51,5.46-6.91s-.53-4.88-5.46-6.9l-62.16-25.58c-4.37-1.8-11.45-1.8-15.79,0l-62.15,25.58c-4.93,2.02-5.46,5.5-5.46,6.9s.53,4.89,5.46,6.91l12.47,5.14-12.47,5.14c-4.93,2.03-5.46,5.51-5.46,6.91s.53,4.88,5.46,6.9l12.47,5.14-12.47,5.13c-4.93,2.02-5.46,5.5-5.46,6.9s.53,4.88,5.46,6.91l62.15,25.58c2.2.9,5,1.4,7.9,1.4s5.69-.5,7.89-1.4l62.16-25.58c4.93-2.03,5.46-5.51,5.46-6.91s-.53-4.88-5.46-6.9l-12.48-5.14,12.48-5.14c4.93-2.03,5.46-5.5,5.46-6.9ZM110.8,132.47l37.17-15.29,16.74,6.89-57.54,23.67c-2.14.88-6.37.88-8.53,0l-57.53-23.67,16.74-6.89,37.16,15.29c2.21.91,5.02,1.41,7.9,1.41s5.67-.5,7.89-1.41ZM98.65,99.58l-57.54-23.68,57.54-23.68c2.07-.85,6.45-.85,8.53,0l57.54,23.69-57.54,23.67c-2.07.85-6.45.85-8.53,0ZM107.17,123.66c-2.14.89-6.37.88-8.53,0l-57.53-23.67,16.74-6.89,37.15,15.29c2.19.9,4.99,1.4,7.9,1.4s5.7-.5,7.89-1.4l37.17-15.29,16.73,6.89-57.52,23.67h0Z"/>
</svg>