<?xml version="1.0" encoding="UTF-8"?>
<svg id="Layer_1" xmlns="http://www.w3.org/2000/svg" viewBox="0 0 200 200">
  <path d="M100.18,150.72c-2.96,0-5.93-1.12-8.18-3.37h0l-43.21-43.08c-5.98-5.98-9.27-13.92-9.27-22.37s3.29-16.39,9.26-22.37c6.29-6.29,14.65-9.75,23.55-9.75s17.26,3.46,23.55,9.75l4.38,4.38,5.23-5.23c12.51-12.51,32.87-12.51,45.39,0,6.2,6.2,9.62,14.45,9.62,23.22s-3.42,17.02-9.62,23.22l-42.52,42.25c-2.25,2.24-5.21,3.36-8.17,3.36ZM99.05,140.27c.62.62,1.63.62,2.25,0l42.51-42.23c4.3-4.3,6.68-10.04,6.68-16.14s-2.38-11.84-6.69-16.15c-8.61-8.61-22.63-8.61-31.24,0l-8.77,8.77c-1.95,1.95-5.12,1.95-7.07,0l-7.91-7.91c-4.4-4.4-10.25-6.83-16.48-6.83s-12.08,2.42-16.48,6.83c-4.09,4.09-6.34,9.52-6.34,15.3s2.25,11.21,6.34,15.3l43.21,43.08Z"/>
</svg>