<?xml version="1.0" encoding="UTF-8"?>
<svg id="Layer_1" xmlns="http://www.w3.org/2000/svg" viewBox="0 0 200 200">
  <path d="M106.09,167.75c-2.76,0-5-2.24-5-5s2.24-5,5-5c26.32,0,47.74-21.41,47.74-47.74s-21.41-47.74-47.74-47.74-47.74,21.41-47.74,47.74c0,10.04,3.14,19.67,8.84,27.68v-19.79c0-2.76,2.24-5,5-5s5,2.24,5,5v32.51c0,1.94-1.13,3.71-2.89,4.53-1.76.82-3.84.55-5.33-.7-13.1-11.01-20.62-27.13-20.62-44.23,0-31.84,25.9-57.74,57.74-57.74s57.74,25.9,57.74,57.74-25.9,57.74-57.74,57.74Z"/>
  <path d="M72.19,155.56h-31.02c-2.76,0-5-2.24-5-5s2.24-5,5-5h31.02c2.76,0,5,2.24,5,5s-2.24,5-5,5Z"/>
  <path d="M126.16,42.25h-36.37c-2.76,0-5-2.24-5-5s2.24-5,5-5h36.37c2.76,0,5,2.24,5,5s-2.24,5-5,5Z"/>
</svg>