<?xml version="1.0" encoding="UTF-8"?>
<svg id="Layer_1" xmlns="http://www.w3.org/2000/svg" viewBox="0 0 200 200">
  <path d="M142.9,69.31l-32.93-21.35c-6.06-3.93-13.89-3.93-19.96,0l-32.93,21.35c-5.24,3.39-8.36,9.15-8.36,15.39v51.95c0,10.11,8.23,18.34,18.34,18.34h65.85c10.11,0,18.34-8.23,18.34-18.34v-51.95c0-6.24-3.13-11.99-8.36-15.39ZM141.27,136.65c0,4.6-3.74,8.34-8.34,8.34h-65.85c-4.6,0-8.34-3.74-8.34-8.34v-51.95c0-2.84,1.42-5.45,3.8-7l32.93-21.35c1.38-.89,2.96-1.34,4.54-1.34s3.16.45,4.54,1.34l32.93,21.35c2.38,1.54,3.8,4.16,3.8,7v51.95Z"/>
  <rect x="85.3" y="103.88" width="29.39" height="29.39" rx="5" ry="5"/>
</svg>