<?xml version="1.0" encoding="UTF-8"?>
<svg id="Layer_1" xmlns="http://www.w3.org/2000/svg" viewBox="0 0 200 200">
  <path d="M76.98,38.57h42.7c3.46,0,6.27-2.81,6.27-6.27s-2.81-6.27-6.27-6.27h-42.7c-3.46,0-6.27,2.81-6.27,6.27s2.81,6.27,6.27,6.27Z"/>
  <path d="M146.17,65.91l3.59-3.59c2.36-2.44,2.36-6.27,0-8.71-2.4-2.49-6.38-2.56-8.89-.13l-3.56,3.57c-11.1-9.05-25-14.01-39.36-13.94-16.55.05-32.1,6.55-43.76,18.29-11.67,11.74-18.06,27.33-18.01,43.88.11,34.11,27.89,61.78,61.97,61.78h.2c34.17-.11,61.88-28,61.78-62.17,0-14.23-4.94-28-13.94-38.98ZM147.57,104.89c-.03,27.12-22.12,49.21-49.24,49.24-27.15,0-49.24-22.09-49.24-49.24s22.09-49.24,49.24-49.24,49.24,22.09,49.24,49.24Z"/>
  <path d="M104.68,98.62h-12.95c-4.15.41-7.82-2.45-8.46-6.54.64-4.09,4.31-6.95,8.46-6.55h27.95c3.46,0,6.27-2.8,6.27-6.26s-2.81-6.27-6.27-6.27h-15.08v-6.54c0-3.46-2.81-6.27-6.27-6.27s-6.27,2.81-6.27,6.27v6.54h-.08c-11.04-.57-20.57,7.92-21.27,18.95v.13s0,.13,0,.13c.7,11.03,10.25,19.53,21.26,18.95h12.95c4.15-.42,7.82,2.45,8.46,6.54-.64,4.09-4.31,6.96-8.46,6.55h-27.95c-3.46,0-6.27,2.8-6.27,6.26s2.81,6.27,6.27,6.27h15.08v6.17c0,3.46,2.81,6.27,6.27,6.27s6.27-2.81,6.27-6.27v-6.17h.08c11.04.57,20.57-7.92,21.26-18.95v-.13s0-.13,0-.13c-.7-11.03-10.23-19.52-21.26-18.95Z"/>
</svg>