<?xml version="1.0" encoding="UTF-8"?>
<svg id="Layer_1" xmlns="http://www.w3.org/2000/svg" viewBox="0 0 200 200">
  <path d="M136.93,41.07H63.07c-12.13,0-22,9.87-22,22v73.87c0,12.13,9.87,22,22,22h73.87c12.13,0,22-9.87,22-22V63.07c0-12.13-9.87-22-22-22ZM148.93,136.93c0,6.62-5.38,12-12,12H63.07c-6.62,0-12-5.38-12-12V63.07c0-6.62,5.38-12,12-12h73.87c6.62,0,12,5.38,12,12v73.87Z"/>
  <path d="M121.7,97.1c-1.41-1.41-3.27-2.18-5.26-2.18s-3.86.77-5.26,2.18l-5.63,5.63-10.75-10.75c-1.41-1.41-3.29-2.18-5.29-2.18-2,0-3.87.8-5.27,2.23l-24.4,24.83c-2.11,2.15-2.72,5.33-1.55,8.1,1.17,2.77,3.86,4.56,6.86,4.56h.02l70.84-.17c3.02,0,5.71-1.81,6.86-4.6,1.15-2.79.52-5.97-1.62-8.1l-19.53-19.53ZM71.25,119.49l18.3-18.62,10.74,10.74c1.41,1.41,3.27,2.18,5.26,2.18s3.86-.77,5.26-2.18l5.63-5.63,13.37,13.36-58.56.14Z"/>
  <path d="M116.49,88.95c6.72,0,12.18-5.46,12.18-12.18s-5.46-12.18-12.18-12.18-12.18,5.46-12.18,12.18,5.46,12.18,12.18,12.18Z"/>
</svg>