<?xml version="1.0" encoding="UTF-8"?>
<svg id="Layer_1" xmlns="http://www.w3.org/2000/svg" viewBox="0 0 200 200">
  <path d="M100,159.31c-32.7,0-59.31-26.61-59.31-59.31s26.61-59.31,59.31-59.31,59.31,26.61,59.31,59.31-26.61,59.31-59.31,59.31ZM100,50.69c-27.19,0-49.31,22.12-49.31,49.31s22.12,49.31,49.31,49.31,49.31-22.12,49.31-49.31-22.12-49.31-49.31-49.31Z"/>
  <path d="M100,132.23c-2.76,0-5-2.24-5-5v-27.23c0-2.76,2.24-5,5-5s5,2.24,5,5v27.23c0,2.76-2.24,5-5,5Z"/>
  <path d="M100,83.75c-2.76,0-5-2.24-5-5v-.51c0-2.76,2.24-5,5-5s5,2.24,5,5v.51c0,2.76-2.24,5-5,5Z"/>
</svg>