<?xml version="1.0" encoding="UTF-8"?>
<svg id="Layer_1" xmlns="http://www.w3.org/2000/svg" viewBox="0 0 200 200">
  <path d="M71.99,38.88c-6.55.31-11.02,1.36-14.93,2.89-4.05,1.58-7.48,3.69-10.89,7.12-3.42,3.43-5.51,6.86-7.08,10.91-1.52,3.92-2.54,8.39-2.83,14.95-.29,6.56-.35,8.66-.32,25.37.03,16.71.11,18.81.42,25.38.31,6.55,1.36,11.02,2.89,14.93,1.58,4.05,3.69,7.47,7.12,10.89,3.43,3.41,6.86,5.51,10.92,7.08,3.91,1.51,8.39,2.54,14.94,2.83,6.56.29,8.66.35,25.37.32,16.72-.03,18.81-.11,25.38-.42,6.55-.31,11.02-1.36,14.93-2.89,4.05-1.58,7.48-3.69,10.89-7.12,3.41-3.43,5.51-6.86,7.08-10.92,1.52-3.91,2.55-8.39,2.83-14.94.29-6.57.36-8.67.32-25.38-.03-16.71-.11-18.81-.42-25.37-.31-6.55-1.36-11.02-2.89-14.93-1.58-4.05-3.69-7.47-7.12-10.89-3.43-3.41-6.86-5.51-10.92-7.08-3.92-1.52-8.39-2.55-14.94-2.83-6.56-.29-8.66-.35-25.37-.32-16.71.03-18.81.1-25.37.42M72.71,150.14c-6-.26-9.26-1.26-11.43-2.09-2.88-1.11-4.93-2.45-7.09-4.59-2.16-2.15-3.49-4.2-4.62-7.07-.84-2.17-1.86-5.43-2.14-11.43-.31-6.49-.37-8.43-.4-24.87-.03-16.43.03-18.38.31-24.87.26-6,1.26-9.26,2.09-11.43,1.11-2.88,2.44-4.93,4.59-7.09,2.15-2.16,4.2-3.49,7.07-4.62,2.17-.85,5.42-1.85,11.42-2.14,6.49-.31,8.44-.37,24.86-.4,16.43-.03,18.38.03,24.87.31,6,.26,9.26,1.25,11.43,2.09,2.88,1.11,4.93,2.44,7.09,4.59,2.16,2.15,3.5,4.19,4.62,7.07.85,2.16,1.85,5.42,2.14,11.42.31,6.49.38,8.44.41,24.87.03,16.43-.03,18.38-.31,24.87-.26,6-1.26,9.26-2.09,11.43-1.11,2.87-2.44,4.93-4.59,7.09-2.15,2.15-4.2,3.49-7.07,4.62-2.17.85-5.42,1.85-11.42,2.14-6.49.31-8.44.37-24.87.4-16.43.03-18.37-.03-24.87-.31M122.88,67.1c0,4.08,3.32,7.38,7.4,7.37,4.08,0,7.38-3.32,7.37-7.4,0-4.08-3.32-7.38-7.4-7.37-4.08,0-7.38,3.32-7.37,7.4M65.88,100.06c.03,17.45,14.21,31.57,31.66,31.54,17.45-.03,31.58-14.21,31.54-31.66-.03-17.45-14.21-31.58-31.67-31.54-17.45.03-31.57,14.21-31.54,31.66M76.96,100.03c-.02-11.33,9.15-20.53,20.48-20.55,11.33-.02,20.53,9.14,20.56,20.47.02,11.33-9.15,20.53-20.48,20.55-11.33.02-20.53-9.15-20.55-20.48"/>
</svg>