<?xml version="1.0" encoding="UTF-8"?>
<svg id="Layer_1" xmlns="http://www.w3.org/2000/svg" viewBox="0 0 200 200">
  <path d="M153.27,96c-4.87-15.93-16.96-28.83-32.48-34.75v-.97c5.13-2.62,8.09-10.5,7.15-16.03-1.03-6.04-6.41-10.43-12.48-10.23h-27.91c-6.01,0-11.12,4.3-12.13,10.23-1.13,6.59,2.56,13.45,6.81,15.87v1.04c-14.88,5.77-26.35,17.64-31.58,32.76-5.38,15.53-3.47,32.44,5.23,46.39,8.71,13.94,23.06,23.08,39.3,25.07,2.05.33,4.16.54,6.33.62,17.09,0,33.36-8.21,43.52-21.95,10.16-13.74,13.24-31.7,8.24-48.04ZM130.47,144.26c-9.24,8.33-21.62,12.27-33.98,10.8-13.27-1.55-25.31-9.3-32.19-20.74-6.9-11.43-8.14-25.69-3.32-38.15,4.81-12.45,15.33-22.17,28.13-25.99,2.33-.7,3.89-2.89,3.79-5.25v-3.56h5.13c2.94,0,5.33-2.39,5.33-5.33s-2.39-5.34-5.33-5.34h-10.35c-.66-.43-1.76-2.94-1.76-4.39,0-.9.74-1.64,1.65-1.64h27.89c.91,0,1.65.74,1.65,1.64,0,1.45-1.1,3.96-1.76,4.39-2.89.06-5.21,2.43-5.21,5.34v8.95c-.1,2.44,1.46,4.63,3.8,5.33,9.91,2.96,18.46,9.38,24.08,18.08,5.61,8.7,7.95,19.13,6.57,29.38h0c-1.24,9.22-5.4,17.78-11.82,24.42l-2.27,2.05Z"/>
  <path d="M140.17,104.93c-5.55-5.64-13.28-8.88-21.2-8.88h-.02c-4.56-.04-9.07,1.02-13.08,3.03-.47.22-.93.46-1.39.72-5.27-2.49-11.08-3.79-16.9-3.76-7.57-.09-14.99,2.04-21.35,6.13-.96.59-1.89,1.27-2.78,2.04-1.01.91-1.63,2.16-1.75,3.51v.16c0,.56-.05,1.14-.09,1.75-.05.66-.09,1.34-.09,2.05-.03,10.73,4.1,20.83,11.65,28.45,7.55,7.61,17.61,11.84,28.35,11.9,1.68,0,3.38-.12,5.04-.33,9.73-1.24,18.64-5.96,25.11-13.3,6.48-7.34,10.05-16.78,10.05-26.58v-2.24l.17-.07-.19-1.42c-.16-1.19-.68-2.28-1.53-3.19ZM131.05,111.02v.82c0,7.2-2.62,14.13-7.37,19.53-4.76,5.4-11.3,8.87-18.43,9.78l-1.91.24c-.6.01-1.21,0-1.84-.02-4.47.02-8.92-1-12.92-2.98-4.86-2.36-8.97-6.01-11.9-10.55-2.23-3.45-3.71-7.33-4.35-11.37,4.58,2.72,9.86,4.19,15.21,4.19,1.14.02,2.29-.05,3.45-.19,5.43-.75,10.4-3.45,13.92-7.53.94-.98,1.99-1.85,3.13-2.57l.1-.06c.82-.59,1.71-1.13,2.65-1.6,2.52-1.28,5.34-1.97,8.16-2h.02c4.41,0,8.67,1.52,12.07,4.31Z"/>
</svg>