<?xml version="1.0" encoding="UTF-8"?>
<svg id="Layer_1" xmlns="http://www.w3.org/2000/svg" viewBox="0 0 200 200">
  <defs>
    <style>
      .cls-1 {
        fill-rule: evenodd;
      }
    </style>
  </defs>
  <path class="cls-1" d="M78.02,165.07h-16.68c-2.73,0-4.25-1.54-4.25-4.27V39.09c0-2.74,1.54-4.27,4.25-4.27h16.68c2.73,0,4.26,1.54,4.26,4.27v39.83h56.34c2.73,0,4.25,1.54,4.25,4.27v16.92c0,2.74-1.53,4.27-4.25,4.27h-38.29l41.19,41.37c1.87,1.89,1.87,4.11,0,6.16l-11.58,11.8c-1.88,2.05-4.25,1.88-6.13,0l-41.53-41.71v38.8c0,2.74-1.53,4.27-4.25,4.27h0Z"/>
</svg>