<?xml version="1.0" encoding="UTF-8"?>
<svg id="Layer_1" xmlns="http://www.w3.org/2000/svg" viewBox="0 0 200 200">
  <path d="M109.1,116.79c-6.12,0-12.23-2.33-16.89-6.98-1.95-1.95-1.95-5.12,0-7.07,1.95-1.95,5.12-1.95,7.07,0,5.41,5.41,14.22,5.41,19.63,0l21.36-21.36c2.62-2.62,4.07-6.11,4.07-9.82s-1.44-7.19-4.07-9.82c-2.62-2.62-6.11-4.07-9.81-4.07s-7.19,1.44-9.82,4.07l-17.27,17.27c-1.95,1.95-5.12,1.95-7.07,0-1.95-1.95-1.95-5.12,0-7.07l17.27-17.27c4.51-4.51,10.51-6.99,16.89-6.99s12.38,2.48,16.89,6.99c4.51,4.51,6.99,10.51,6.99,16.89s-2.48,12.38-6.99,16.89l-21.36,21.36c-4.66,4.66-10.77,6.98-16.89,6.98Z"/>
  <path d="M69.54,152.33c-6.38,0-12.38-2.48-16.89-6.99-9.31-9.31-9.31-24.46,0-33.77l21.36-21.36c9.31-9.31,24.46-9.31,33.77,0,1.95,1.95,1.95,5.12,0,7.07-1.95,1.95-5.12,1.95-7.07,0-5.41-5.41-14.22-5.41-19.63,0l-21.36,21.36c-5.41,5.41-5.41,14.22,0,19.63,5.41,5.41,14.22,5.41,19.63,0l17.49-17.49c1.95-1.95,5.12-1.95,7.07,0,1.95,1.95,1.95,5.12,0,7.07l-17.49,17.49c-4.51,4.51-10.51,6.99-16.89,6.99Z"/>
</svg>