<?xml version="1.0" encoding="UTF-8"?>
<svg id="Layer_1" xmlns="http://www.w3.org/2000/svg" viewBox="0 0 200 200">
  <path d="M125.2,166.19h-50.4c-11.2,0-20.31-9.11-20.31-20.31v-50.4c0-11.2,9.11-20.31,20.31-20.31h50.4c11.2,0,20.31,9.11,20.31,20.31v50.4c0,11.2-9.11,20.31-20.31,20.31ZM74.8,85.17c-5.69,0-10.31,4.63-10.31,10.31v50.4c0,5.69,4.63,10.31,10.31,10.31h50.4c5.69,0,10.31-4.63,10.31-10.31v-50.4c0-5.69-4.63-10.31-10.31-10.31h-50.4Z"/>
  <path d="M74.24,85.17c-2.76,0-5-2.24-5-5v-15.6c0-16.96,13.8-30.76,30.76-30.76s30.76,13.8,30.76,30.76v11.29c0,2.76-2.24,5-5,5s-5-2.24-5-5v-11.29c0-11.45-9.31-20.76-20.76-20.76s-20.76,9.31-20.76,20.76v15.6c0,2.76-2.24,5-5,5Z"/>
  <path d="M100,131.7c-8.8,0-15.96-7.16-15.96-15.96s7.16-15.96,15.96-15.96,15.96,7.16,15.96,15.96-7.16,15.96-15.96,15.96ZM100,109.78c-3.29,0-5.96,2.67-5.96,5.96s2.67,5.96,5.96,5.96,5.96-2.67,5.96-5.96-2.67-5.96-5.96-5.96Z"/>
  <path d="M100,146.2c-2.76,0-5-2.24-5-5v-14.51c0-2.76,2.24-5,5-5s5,2.24,5,5v14.51c0,2.76-2.24,5-5,5Z"/>
</svg>