<?xml version="1.0" encoding="UTF-8"?>
<svg id="Layer_1" xmlns="http://www.w3.org/2000/svg" viewBox="0 0 200 200">
  <path d="M46.63,132.63v-63.86c0-6.33,5.15-11.49,11.49-11.49h56.67c6.33,0,11.49,5.15,11.49,11.49v12.15c0,2.76-2.24,5-5,5s-5-2.24-5-5v-12.15c0-.82-.67-1.49-1.49-1.49h-56.67c-.82,0-1.49.67-1.49,1.49v63.86c0,.82.67,1.49,1.49,1.49h56.67c.82,0,1.49-.67,1.49-1.49v-11.39c0-2.76,2.24-5,5-5s5,2.24,5,5v11.39c0,6.33-5.15,11.49-11.49,11.49h-56.67c-6.33,0-11.49-5.15-11.49-11.49Z"/>
  <path d="M82.68,100.7c0-2.76,2.24-5,5-5h60.36c2.76,0,5,2.24,5,5s-2.24,5-5,5h-60.36c-2.76,0-5-2.24-5-5Z"/>
  <path d="M134.62,84.17c0-1.28.49-2.56,1.46-3.54,1.95-1.95,5.12-1.95,7.07,0l12.42,12.42c4.38,4.38,4.38,11.5,0,15.88l-11.83,11.83c-1.95,1.95-5.12,1.95-7.07,0-1.95-1.95-1.95-5.12,0-7.07l11.83-11.83c.48-.48.48-1.26,0-1.74l-12.42-12.42c-.98-.98-1.46-2.26-1.46-3.54Z"/>
</svg>