<?xml version="1.0" encoding="UTF-8"?>
<svg id="Layer_1" xmlns="http://www.w3.org/2000/svg" viewBox="0 0 200 200">
  <path d="M60.69,101.19c-1.12-.06-2.17.04-3.03.22-7.21,1.45-11.29,7.59-10.49,15.57.73,7.21,8.02,13.3,14.78,13.48.7.02,1.39-.03,2.07-.15,7.31-1.25,9.23-9.19,8.02-16.99-1.36-8.81-7.32-11.91-11.36-12.13ZM67.86,122.05c-.27.62-1.33,1.48-2.85,1.42-1.56-.12-3.31-1.26-3.54-4.09-.12-1.4.41-3.1.74-3.99.63-1.72.06-3.52-1.41-4.49-.86-.57-1.9-.76-2.91-.54-.99.21-1.84.8-2.38,1.64-.45.7-.72,1.58-.87,2.05-.04.13-.07.23-.09.29-.33.89-.86,1.15-1.22,1.1-.17-.02-.4-.14-.55-.54-.41-1.11-.08-4.27,2.02-6.59,1.33-1.47,3.42-2.22,5.45-1.96,2.11.27,3.87,1.55,4.95,3.6,1.43,2.73.16,5.59-.61,7.3-.08.19-.16.36-.22.51-.48,1.13-.5,2.13-.07,2.79.33.51.92.81,1.62.82.33,0,.62-.06.89-.12.38-.09.76-.18,1,.12.09.1.22.32.06.69Z"/>
  <path d="M162.36,114.99c-.85-1.04-1.87-1.88-2.98-2.48-.09-.31-.19-.63-.29-.96-.12-.38-.24-.74-.36-1.08,1.73-3.65,1.59-6.83,1.29-8.58-.46-2.96-1.72-5.45-3.98-7.82-2.75-2.89-7.33-4.74-10.97-5.84-.04-1.73-.1-3.7-.15-4.92-.07-1.63-.22-5-1.28-8.41-.78-2.8-1.94-5.37-3.37-7.54,5.52-6.63,8.52-13.48,8.51-19.59-.02-9.9-7.72-16.3-19.63-16.3-5.66,0-12.11,1.43-18.66,4.15-.01,0-.37.16-.87.37-1.99-1.96-4.62-4.53-4.8-4.68-3-2.62-6.72-3.94-11.06-3.94-5.17,0-11.11,1.92-17.65,5.69-5.64,3.26-11.71,7.92-17.54,13.47-11.89,11.33-21.48,24.9-25.64,36.29-1.79,4.89-2.56,9.33-2.28,13.19.33,4.69,2.23,8.63,5.5,11.38l2.03,1.72c-.64,2.79-.81,5.73-.5,8.81.59,5.82,3.53,11.36,8.31,15.58,3.84,3.4,8.54,5.61,13.27,6.29,4.25,8.48,10.73,15.62,18.9,20.78,8.81,5.56,19.34,8.68,30.48,9.01.71.02,1.43.03,2.13.03h0c11.49,0,22.26-2.83,31.12-8.17,9.13-5.5,16.12-13.61,20.22-23.43.01-.04.03-.07.04-.11.71-1.82,3.02-8.23,3.02-14.25,0-4.35-1.52-7.12-2.79-8.68ZM157.77,136.22c-7.87,18.86-26.65,29.36-49.02,28.69-20.86-.62-38.65-11.63-46.43-29.57-4.71,0-9.56-2.07-13.25-5.33-3.89-3.44-6.28-7.9-6.75-12.55-.36-3.62.08-6.99,1.22-9.92l-4.37-3.7c-20.01-16.89,42.57-86.45,62.58-68.99.1.09,6.81,6.67,6.82,6.69.03-.01,3.7-1.57,3.72-1.58,17.55-7.27,31.8-3.76,31.82,7.84,0,6.03-3.83,13.06-9.99,19.44,2.23,2.07,4.02,5.31,5.04,9.01.86,2.73,1.01,5.51,1.09,7.28.11,2.46.23,8.18.24,8.29.16.05,1.93.54,2.47.69,4.71,1.32,8.06,3.09,9.7,4.81,1.64,1.72,2.45,3.39,2.75,5.34.28,1.58.24,4.36-1.84,7.47,0,0,.54,1.17,1.05,2.83.52,1.66.9,3.04.95,3.24,1.9,0,4.9,2.19,4.9,7.48s-2.18,11.23-2.7,12.55Z"/>
  <path d="M154.62,120.5c-1.01-.62-2.21-.4-2.21-.4,0,0-.55-3.77-2.11-7.19-4.62,3.65-10.57,6.21-15.1,7.51-5.23,1.5-12.3,2.65-20.19,2.18-4.38-.35-7.27-1.63-8.36,1.91,10,3.66,20.59,2.09,20.59,2.09.2-.02.39.13.41.33.02.17-.08.33-.23.4,0,0-8.13,3.78-21.04-.22.36,3.03,3.31,4.39,4.72,4.94,1.78.69,3.72,1.01,3.72,1.01,16,2.75,30.96-6.4,34.33-8.7.25-.17.42,0,.22.3-.19.29-.21.31-.33.47-4.12,5.32-15.2,11.47-29.62,11.47-6.29,0-12.57-2.22-14.88-5.62-3.58-5.28-.18-12.99,5.79-12.19,0,0,2.04.23,2.61.3,7.46.83,18.25-.22,27.15-4.34,8.14-3.78,11.21-7.94,10.75-11.3-.13-.91-.53-1.86-1.4-2.75-1.46-1.43-3.78-2.55-7.7-3.64-1.29-.36-2.17-.59-3.11-.91-1.68-.55-2.51-1-2.7-4.16-.08-1.38-.32-6.19-.41-8.18-.15-3.49-.57-8.25-3.53-10.22-.77-.51-1.63-.76-2.53-.81-.88-.04-1.32.12-1.5.15-1.69.29-2.68,1.18-3.93,2.22-3.69,3.07-6.8,3.58-10.26,3.43-2.07-.09-4.26-.41-6.77-.56-.49-.03-.98-.06-1.47-.08-5.8-.3-12.02,4.71-13.05,11.82-1.44,9.9,5.73,15.01,7.8,18.02.26.36.57.87.57,1.35,0,.57-.37,1.03-.74,1.42,0,0,0,0,0,0-5.92,6.08-7.81,15.75-5.58,23.8.28,1.01.63,1.97,1.05,2.89,5.23,12.22,21.46,17.92,37.31,12.74,2.12-.69,4.13-1.55,6.02-2.54,3.56-1.74,6.66-4.14,9.22-6.89,4.2-4.39,6.71-9.17,7.68-15.06.48-3.15-.22-4.37-1.17-4.96ZM133.28,100.26c-.02,1.3-.81,2.35-1.76,2.33-.95-.02-1.7-1.09-1.68-2.39.02-1.3.81-2.35,1.76-2.33.95.02,1.7,1.09,1.68,2.39ZM128.93,84.86c1.85-.3,2.74,1.62,3.4,4.78.44,2.13.36,4.08-.13,5.22-.85-.12-1.78-.12-2.75,0-.74-.94-1.4-2.46-1.77-4.24-.66-3.16-.59-5.45,1.26-5.75ZM122.72,101.86c.42-.85,1.71-1.08,2.88-.5,1.17.57,1.78,1.73,1.36,2.58-.42.85-1.71,1.08-2.88.5-1.17-.57-1.78-1.73-1.36-2.58ZM115.48,100.9c-.19.3-.6.24-1.46.15-1.57-.18-3.15-.28-5.54.58,0,0-.87.35-1.26.35-.11,0-.2-.04-.28-.11-.06-.05-.13-.15-.13-.31,0-.35.32-.86.84-1.31.61-.53,1.56-1.1,3.28-1.37,2.37-.28,4.11.82,4.51,1.48.17.28.11.47.05.55ZM102.25,97.64c-.31-.04-.44-.18-.48-.35-.12-.55.72-1.44,1.6-2.09,2.68-1.93,6.15-2.34,9.07-1.09,1.42.61,2.77,1.69,3.42,2.75.32.52.38.92.17,1.13-.32.34-1.13-.05-2.45-.63s-3.04-1.23-5.11-1.1c-2.94.18-5.48,1.47-6.21,1.38Z"/>
  <path d="M122.39,61.76c.25.06.42-.38.19-.51-3.35-1.88-8.49-3.15-12.14-3.18-.18,0-.28-.21-.17-.35.63-.85,1.49-1.69,2.28-2.29.18-.14.07-.42-.15-.41-5.19.32-11.11,2.8-14.52,5.12-.17.11-.38-.04-.34-.23.27-1.28,1.1-2.96,1.54-3.75.1-.19-.1-.39-.29-.29-5.47,2.8-11.58,7.78-16.54,13.51-.18.2.08.49.3.33,4.28-3.12,10.16-6.01,17.85-7.89,8.62-2.1,16.92-1.22,21.98-.06Z"/>
  <path d="M103.87,43.99s-5.45-6.32-7.09-6.78c-10.12-2.73-31.97,12.34-45.92,32.25-5.65,8.06-13.73,22.32-9.86,29.66.48.91,3.17,3.25,4.62,4.45,2.42-3.52,6.38-6.06,10.87-6.93,5.72-15.34,15.26-29.49,27.9-39.21,9.38-7.82,19.49-13.43,19.49-13.43Z"/>
</svg>