<?xml version="1.0" encoding="UTF-8"?>
<svg id="Layer_1" xmlns="http://www.w3.org/2000/svg" viewBox="0 0 200 200">
  <path d="M150.41,81.75c-.61-26.62-21.91-48.23-48.5-49.22-13.84-.51-26.94,4.49-36.9,14.08-9.96,9.59-15.44,22.49-15.44,36.31,0,9.41,2.62,18.6,7.57,26.57l32.15,52.06c2.31,3.74,6.31,5.97,10.7,5.97s8.39-2.23,10.7-5.97l32.15-52.05c5.17-8.32,7.78-17.91,7.56-27.74ZM134.35,104.22h0s-32.15,52.07-32.15,52.07c-.68,1.1-1.76,1.22-2.19,1.22s-1.51-.12-2.19-1.22l-32.16-52.07c-3.97-6.39-6.07-13.76-6.07-21.3,0-11.08,4.4-21.42,12.38-29.11,7.6-7.33,17.51-11.31,28.04-11.31.52,0,1.03,0,1.55.03,21.31.79,38.39,18.12,38.87,39.45.18,7.89-1.92,15.58-6.06,22.24Z"/>
  <path d="M100,63.99c-10.36,0-18.79,8.43-18.79,18.79s8.43,18.79,18.79,18.79,18.79-8.43,18.79-18.79-8.43-18.79-18.79-18.79Z"/>
</svg>