<?xml version="1.0" encoding="UTF-8"?>
<svg id="Layer_1" xmlns="http://www.w3.org/2000/svg" viewBox="0 0 202.92 200">
  <path d="M82.69,99.48c0,10.31-15.47,10.31-15.47,0s15.47-10.32,15.47,0"/>
  <path d="M110.65,99.48c0,10.31-15.47,10.31-15.47,0s15.47-10.32,15.47,0"/>
  <path d="M138.61,99.48c0,10.31-15.47,10.31-15.47,0s15.47-10.32,15.47,0"/>
  <path d="M161.71,164.27l-7.74-31.87-.19-.77.4-.69c5.03-8.78,7.69-18.97,7.69-29.46,0-32.94-26.49-59.8-59.29-60.4h-1.12c-33.31,0-60.41,27.1-60.41,60.41s26.8,60.05,59.74,60.4h.16s.16.03.16.03l54.04,9.37c.32.06.62.09.98.09,1.6,0,3.09-.65,4.2-1.83,1.32-1.41,1.84-3.38,1.38-5.27ZM142,131.73l.07.27,5.71,23.53.72,2.96-3-.52-43.05-7.46c-.37-.06-.69-.09-.98-.09-26.99,0-48.94-21.95-48.94-48.94s21.95-48.94,48.94-48.94,48.94,21.95,48.94,48.94c0,9.43-2.62,18.43-7.57,26.03-.81,1.24-1.11,2.76-.83,4.22Z"/>
</svg>