<?xml version="1.0" encoding="UTF-8"?>
<svg id="Layer_1" xmlns="http://www.w3.org/2000/svg" viewBox="0 0 200 200">
  <path d="M106.84,98.87h-12.95c-4.15.41-7.82-2.45-8.46-6.54.64-4.09,4.31-6.95,8.46-6.55h27.95c3.46,0,6.27-2.8,6.27-6.26s-2.81-6.27-6.27-6.27h-15.08v-6.54c0-3.46-2.81-6.27-6.27-6.27s-6.27,2.81-6.27,6.27v6.54h-.08c-11.04-.57-20.57,7.92-21.27,18.95v.13s0,.13,0,.13c.7,11.03,10.25,19.53,21.26,18.95h12.95c4.15-.42,7.82,2.45,8.46,6.54-.64,4.09-4.31,6.96-8.46,6.55h-27.95c-3.46,0-6.27,2.8-6.27,6.26s2.81,6.27,6.27,6.27h15.08v6.17c0,3.46,2.81,6.27,6.27,6.27s6.27-2.81,6.27-6.27v-6.17h.08c11.04.57,20.57-7.92,21.26-18.95v-.13s0-.13,0-.13c-.7-11.03-10.23-19.52-21.26-18.95Z"/>
  <path d="M162.36,105.53c.05-16.55-6.34-32.14-18.01-43.88-11.11-11.18-25.73-17.59-41.39-18.23-.65-.03-1.29-.05-1.94-.05-.14,0-.29-.01-.43-.01-.08,0-.16,0-.24,0s-.16,0-.24,0c-.14,0-.29.01-.43.01-.65,0-1.3.03-1.94.05-15.66.64-30.28,7.05-41.39,18.23-11.67,11.74-18.06,27.33-18.01,43.88.11,33.91,27.57,61.44,61.38,61.76.16,0,.32.01.48.02h.31c.16,0,.32-.01.48-.02,33.81-.32,61.27-27.85,61.38-61.76ZM100.34,154.38c-27.08-.08-49.09-22.14-49.09-49.24s22.01-49.16,49.09-49.24c27.08.08,49.09,22.14,49.09,49.24s-22.01,49.16-49.09,49.24Z"/>
</svg>