<?xml version="1.0" encoding="UTF-8"?>
<svg id="Layer_1" xmlns="http://www.w3.org/2000/svg" viewBox="0 0 200 200">
  <path d="M100,163.05c-34.76,0-63.05-28.28-63.05-63.05s28.28-63.05,63.05-63.05c.17,0,.33,0,.5.01h.14c2.23.03,4.17,1.52,4.77,3.66.6,2.15-.3,4.43-2.19,5.6-10.54,6.5-16.83,17.76-16.83,30.12,0,19.51,15.87,35.37,35.37,35.37,13.41,0,25.5-7.44,31.57-19.42,1.01-1.99,3.21-3.07,5.4-2.65,2.19.42,3.84,2.23,4.04,4.45.19,2.02.28,4.01.28,5.9,0,34.76-28.28,63.05-63.04,63.05ZM85.54,48.96c-22.25,6.31-38.59,26.8-38.59,51.04,0,29.25,23.8,53.05,53.05,53.05,25.78,0,47.33-18.49,52.07-42.91-8.17,7.36-18.87,11.59-30.32,11.59-25.02,0-45.37-20.35-45.37-45.37,0-10.11,3.28-19.65,9.16-27.39Z"/>
</svg>