<?xml version="1.0" encoding="UTF-8"?>
<svg id="Layer_1" xmlns="http://www.w3.org/2000/svg" viewBox="0 0 200 200">
  <path d="M100.05,48.42c-3.03-1.32-6.56-.72-8.98,1.53l-28.58,26.52h-12.83c-4.59,0-8.32,3.73-8.32,8.32v31c0,4.59,3.73,8.32,8.32,8.32h12.86l28.61,26.02c1.56,1.42,3.57,2.16,5.6,2.16,1.14,0,2.28-.23,3.36-.71,3.01-1.33,4.95-4.32,4.95-7.61V56.04c0-3.31-1.96-6.3-4.99-7.62ZM95.04,140.15l-27.23-24.76c-.92-.84-2.12-1.3-3.36-1.3h-13.11v-27.63h13.11c1.26,0,2.48-.48,3.4-1.34l27.19-25.23v80.26Z"/>
  <path d="M143.75,99.95l13.44-13.44c1.95-1.95,1.95-5.12,0-7.07-1.95-1.95-5.12-1.95-7.07,0l-13.44,13.44-13.44-13.44c-1.95-1.95-5.12-1.95-7.07,0-1.95,1.95-1.95,5.12,0,7.07l13.44,13.44-13.44,13.44c-1.95,1.95-1.95,5.12,0,7.07.98.98,2.26,1.46,3.54,1.46s2.56-.49,3.54-1.46l13.44-13.44,13.44,13.44c.98.98,2.26,1.46,3.54,1.46s2.56-.49,3.54-1.46c1.95-1.95,1.95-5.12,0-7.07l-13.44-13.44Z"/>
</svg>