<?xml version="1.0" encoding="UTF-8"?>
<svg id="Layer_1" xmlns="http://www.w3.org/2000/svg" viewBox="0 0 200 200">
  <path d="M82.81,160.43c-2.26,0-4.36-1.23-5.48-3.22-4.33-7.68-10.72-13.99-18.5-18.26-2.02-1.11-3.27-3.21-3.27-5.49,0-2.28,1.25-4.39,3.27-5.5,7.78-4.29,14.18-10.63,18.5-18.33,1.11-1.99,3.22-3.23,5.48-3.23h0c2.27,0,4.37,1.23,5.48,3.22,4.32,7.7,10.73,14,18.53,18.25,0,0,0,0,0,0,2.03,1.1,3.29,3.21,3.3,5.5,0,2.29-1.26,4.4-3.29,5.51-7.81,4.26-14.22,10.59-18.53,18.31-1.11,1.99-3.21,3.23-5.48,3.24h-.01ZM68.91,133.45c5.39,3.76,10.09,8.41,13.89,13.75,3.81-5.37,8.52-10.04,13.94-13.82-5.41-3.75-10.12-8.4-13.93-13.75-3.8,5.37-8.51,10.04-13.91,13.82ZM102.04,136.65s0,0,0,0c0,0,0,0,0,0Z"/>
  <path d="M111.1,105.48c-2.39,0-4.6-1.3-5.78-3.4-5.62-9.97-13.93-18.17-24.02-23.71-2.13-1.17-3.46-3.39-3.46-5.79,0-2.4,1.32-4.62,3.45-5.8,10.1-5.57,18.41-13.8,24.02-23.8,1.18-2.1,3.4-3.41,5.79-3.41h0c2.39,0,4.61,1.31,5.79,3.41,5.61,9.99,13.93,18.19,24.07,23.69,2.15,1.17,3.48,3.39,3.48,5.81,0,2.41-1.33,4.64-3.47,5.81,0,0,0,0,0,0-10.15,5.54-18.47,13.76-24.07,23.78-1.17,2.1-3.39,3.41-5.78,3.42h-.01ZM91.04,72.57c7.95,5.23,14.76,11.97,20.05,19.84,5.29-7.92,12.12-14.68,20.12-19.92-7.98-5.21-14.81-11.95-20.1-19.84-5.29,7.9-12.1,14.67-20.07,19.93ZM138.57,73.9h0,0ZM136.18,69.51s0,0,0,0c0,0,0,0,0,0h0Z"/>
</svg>