<?xml version="1.0" encoding="UTF-8"?>
<svg id="Layer_1" xmlns="http://www.w3.org/2000/svg" viewBox="0 0 200 200">
  <g>
    <path d="M115.24,158.6c-2.76,0-5-2.24-5-5s2.24-5,5-5c12.26,0,22.23-9.97,22.23-22.23v-52.74c0-12.26-9.97-22.23-22.23-22.23-2.76,0-5-2.24-5-5s2.24-5,5-5c17.77,0,32.23,14.46,32.23,32.23v52.74c0,17.77-14.46,32.23-32.23,32.23Z"/>
    <path d="M156.45,105h-13.98c-2.76,0-5-2.24-5-5s2.24-5,5-5h13.98c2.76,0,5,2.24,5,5s-2.24,5-5,5Z"/>
  </g>
  <g>
    <path d="M84.76,158.6c-17.77,0-32.23-14.46-32.23-32.23v-52.74c0-17.77,14.46-32.23,32.23-32.23,2.76,0,5,2.24,5,5s-2.24,5-5,5c-12.26,0-22.23,9.97-22.23,22.23v52.74c0,12.26,9.97,22.23,22.23,22.23,2.76,0,5,2.24,5,5s-2.24,5-5,5Z"/>
    <path d="M57.53,105h-13.98c-2.76,0-5-2.24-5-5s2.24-5,5-5h13.98c2.76,0,5,2.24,5,5s-2.24,5-5,5Z"/>
  </g>
</svg>