<?xml version="1.0" encoding="UTF-8"?>
<svg id="Layer_1" xmlns="http://www.w3.org/2000/svg" viewBox="0 0 200 200">
  <path d="M140.4,31.26H59.6c-8.9,0-16.15,7.24-16.15,16.15v105.19c0,8.9,7.24,16.15,16.15,16.15h80.8c8.9,0,16.15-7.24,16.15-16.15V47.4c0-8.9-7.24-16.15-16.15-16.15ZM146.55,152.59c0,3.39-2.76,6.15-6.15,6.15H59.6c-3.39,0-6.15-2.76-6.15-6.15V47.4c0-3.39,2.76-6.15,6.15-6.15h80.8c3.39,0,6.15,2.76,6.15,6.15v105.19Z"/>
  <path d="M126.98,124.21h-54.45c-2.76,0-5,2.24-5,5s2.24,5,5,5h54.45c2.76,0,5-2.24,5-5s-2.24-5-5-5Z"/>
  <path d="M126.98,102.3h-54.45c-2.76,0-5,2.24-5,5s2.24,5,5,5h54.45c2.76,0,5-2.24,5-5s-2.24-5-5-5Z"/>
  <path d="M72.53,90.39h33.86c2.76,0,5-2.24,5-5s-2.24-5-5-5h-33.86c-2.76,0-5,2.24-5,5s2.24,5,5,5Z"/>
</svg>