<?xml version="1.0" encoding="UTF-8"?>
<svg id="Layer_1" xmlns="http://www.w3.org/2000/svg" viewBox="0 0 200 200">
  <path d="M105.83,37.9c-7.48,0-15.01,1.01-22.59,2.81-19.73,4.71-32.34,16.68-36.79,36.42-2.03,9.01-2.62,18.52-2.62,27.71.23,4.16.29,8.33.73,12.47,1.34,12.46,3.13,24.86,10.5,35.5,4.26,6.15,10.37,9.28,16.48,9.28,5.7,0,11.39-2.73,15.57-8.27,3.75-4.98,6.82-10.71,9.1-16.53,5.45-13.89,15.21-21.77,29.64-25.51,7.14-1.85,14.71-5.41,20.03-10.39,19.33-18.08,12.81-48.51-12.1-58.3-9.19-3.61-18.52-5.21-27.96-5.21h0Z"/>
</svg>