<?xml version="1.0" encoding="UTF-8"?>
<svg id="Layer_1" xmlns="http://www.w3.org/2000/svg" viewBox="0 0 200 200">
  <path d="M135.84,176.56h-71.69c-15.81,0-28.67-12.86-28.67-28.67V52.11c0-15.81,12.86-28.67,28.67-28.67h35.84c2.76,0,5,2.24,5,5s-2.24,5-5,5h-35.84c-10.3,0-18.67,8.38-18.67,18.67v95.77c0,10.3,8.38,18.67,18.67,18.67h71.69c10.29,0,18.67-8.38,18.67-18.67v-58.93c0-2.76,2.24-5,5-5s5,2.24,5,5v58.93c0,15.81-12.86,28.67-28.67,28.67Z"/>
  <path d="M162.36,66l-40.03-40.03c-1.43-1.43-3.58-1.86-5.45-1.08-1.87.77-3.09,2.6-3.09,4.62v25.34c0,10.78,8.77,19.55,19.55,19.55h21.94l3.34.13c.07,0,.13,0,.2,0,1.98,0,3.78-1.17,4.58-2.99.83-1.89.41-4.09-1.04-5.54Z"/>
  <path d="M62.61,139.46c-2.1,0-3.99-.52-5.55-1.61-2.97-2.09-4.99-6.73-.93-12.94,6.72-10.28,23.15-14.19,27.75-15.11,2.77-5.47,4.63-11.32,5.89-16.58-1.54-1.94-12.31-16.04-8.63-26.81,1.58-4.61,4.05-7.16,7.34-7.58,3.29-.42,6.3,1.4,8.95,5.41,3.59,5.44,5.12,12.16,4.29,18.92-.27,2.16-.65,4.77-1.21,7.66l12.03,15.87c2.58-.02,5.19.05,7.76.24,13.29.97,20.97,8.57,20.7,15.35-.16,4.12-3.36,8.26-10.15,8.26-.02,0-.05,0-.07,0-12.8-.05-22.58-12.99-22.99-13.54l-.12-.16c-7.09.36-13.56,1.3-17.37,1.94-.95,1.56-1.97,3.07-3.08,4.53-7.54,9.98-17.37,16.13-24.62,16.14ZM73.53,123.59c-2.91,1.35-5.67,3.02-7.61,5.02,2.02-.84,4.68-2.39,7.61-5.02ZM122.31,117.26c2.24,1.6,4.82,2.91,7.41,3.22-1.33-1.15-3.72-2.54-7.41-3.22ZM97.33,103.2c-.51,1.55-1.06,3.12-1.68,4.69,1.51-.19,3.13-.37,4.83-.54l-3.15-4.15ZM90.38,72.13c.14,1.5.66,3.24,1.4,5.04-.22-1.76-.69-3.46-1.4-5.04Z"/>
</svg>