<?xml version="1.0" encoding="UTF-8"?>
<svg id="Layer_1" xmlns="http://www.w3.org/2000/svg" viewBox="0 0 200 200">
  <path d="M126.26,152.86c-.21,0-.43,0-.65-.01-4.83-.15-9.79-.12-14.59-.09-2.17.01-4.34.03-6.51.03-2.93,0-5.86-.01-8.79-.02-7.33-.03-14.91-.05-22.33.08-5.38.09-9.95-2.06-13.98-6.59-11.36-12.76-10.67-37.23,1.39-49.41,7.28-7.36,16.62-7.91,23.79-1.42,7.24,6.55,22.75,6.33,30.74-.43,7.43-6.29,16.48-5.8,23.63,1.27,11.96,11.84,13.09,36.1,2.29,49-4.28,5.1-9.19,7.59-14.99,7.59ZM117.2,142.74c2.9,0,5.82.03,8.73.12,2.97.1,5.19-1.07,7.66-4.01,7.39-8.81,6.52-27.37-1.66-35.46-4.51-4.46-7.79-2.74-10.14-.75-11.94,10.11-32.87,10.22-43.91.22-1.17-1.06-4.71-4.27-9.97,1.04-8.24,8.32-8.78,27.01-1.03,35.72,2.11,2.37,3.9,3.28,6.34,3.24,7.53-.13,15.16-.11,22.54-.08,2.92.01,5.84.02,8.76.02h0c2.13,0,4.29-.01,6.44-.03,2.05-.01,4.14-.03,6.24-.03Z"/>
  <path d="M100.09,93.91c-15.35,0-27.42-12.1-27.48-27.6-.03-7.4,2.82-14.35,8.03-19.58,5.21-5.23,12.16-8.06,19.57-8.1,15.21.02,27.64,12.44,27.7,27.69.03,7.36-2.85,14.28-8.1,19.49-5.23,5.2-12.2,8.07-19.62,8.1h0s-.06,0-.09,0ZM100.18,48.63c-4.72,0-9.14,1.83-12.46,5.16-3.32,3.33-5.13,7.76-5.11,12.47.04,9.9,7.72,17.64,17.49,17.64.02,0,.04,0,.06,0h0c4.77-.02,9.25-1.86,12.61-5.19,3.34-3.31,5.17-7.7,5.15-12.36-.04-9.76-7.98-17.71-17.71-17.72h-.02Z"/>
</svg>