<?xml version="1.0" encoding="UTF-8"?>
<svg id="Layer_1" xmlns="http://www.w3.org/2000/svg" viewBox="0 0 200 200">
  <path d="M161.25,83.4l-25.64-32.92c-2.75-3.52-6.99-5.59-11.42-5.59h-48.39c-4.43,0-8.72,2.07-11.42,5.64l-25.64,32.92c-4.43,5.74-3.95,13.93,1.2,19.09l49.83,49.79c2.8,2.84,6.51,4.24,10.22,4.24h0c3.71,0,7.42-1.4,10.22-4.24l49.83-49.83c5.16-5.11,5.69-13.35,1.2-19.09ZM153.2,95.69l-49.83,49.83c-1.88,1.88-4.92,1.88-6.8,0l-49.83-49.83c-1.69-1.69-1.88-4.43-.39-6.36l25.64-32.92c.92-1.2,2.31-1.88,3.81-1.88h48.39c1.49,0,2.89.67,3.76,1.88l25.64,32.92c1.49,1.93,1.35,4.63-.39,6.36Z"/>
  <path d="M116.39,104.65c-3.05-1.53-6.62-1.53-8.14,1.02l-8.65,10.18-8.65-10.69c-2.04-2.04-5.09-2.55-7.13-.51-2.04,1.53-2.54,5.09-.51,7.13l12.72,15.27c1.02,1.02,2.54,2.04,4.07,2.04s3.05-.51,4.07-2.04l12.72-15.27c1.53-2.04,1.53-5.6-.51-7.13Z"/>
</svg>