<?xml version="1.0" encoding="UTF-8"?>
<svg id="Layer_1" xmlns="http://www.w3.org/2000/svg" viewBox="0 0 200 200">
  <path d="M163.48,62.06l-.41-.24c-.45-1.81-1.4-3.45-2.75-4.75v-.5l-.33.19c-.5-.44-1.04-.83-1.63-1.17l-57.21-33.03c-3.14-1.81-6.89-1.81-10.03,0l-57.19,33.02c-.6.34-1.15.74-1.65,1.18l-.33-.19v.5c-1.35,1.3-2.3,2.94-2.74,4.76l-.42.24.33.19c-.13.66-.2,1.33-.2,2.02v66.05c0,3.62,1.87,6.87,5.02,8.7l57.21,33.01c.59.34,1.21.62,1.84.83v.37l.42-.24c.9.26,1.82.4,2.75.4s1.85-.13,2.75-.4l.42.24v-.37c.63-.21,1.25-.49,1.85-.84l57.19-33.01c3.15-1.81,5.02-5.07,5.02-8.7v-66.03c0-.69-.06-1.38-.2-2.04l.32-.18ZM119.96,104.82l17.84-10.74c.71-.43,1.14-1.19,1.14-2.02v-12.3l11.96-6.91v56.06l-48.54,28.02v-56.06l14.03-8.1v10.02c0,1.83,2,2.96,3.57,2.02ZM89.88,100.88v56.06l-48.54-28.02v-56.06l48.54,28.02ZM47.58,62.06l14.41-8.32,46.66,29.11-12.53,7.24-48.54-28.03ZM134.5,67.93l-46.64-29.13,8.26-4.77,48.54,28.02-10.16,5.87Z"/>
</svg>