<?xml version="1.0" encoding="UTF-8"?>
<svg id="Layer_1" xmlns="http://www.w3.org/2000/svg" viewBox="0 0 200 200">
  <path d="M138.09,97.79c3.72,0,7.11,1.69,9.33,4.64.87,1.15,2.14,1.89,3.57,2.09,1.43.2,2.85-.18,4.01-1.05,1.32-1,2.12-2.59,2.14-4.27v-37.51c0-2.98-2.43-5.41-5.41-5.41h-26.93c1.1-2.67,1.65-5.42,1.65-8.23,0-12.38-10.08-22.46-22.46-22.46s-22.46,10.08-22.46,22.46c0,2.81.56,5.56,1.65,8.23h-26.93c-2.98,0-5.41,2.43-5.41,5.41v26.89c-2.64-1.07-5.39-1.61-8.23-1.61-12.38,0-22.46,10.08-22.46,22.46s10.08,22.46,22.46,22.46c2.81,0,5.56-.56,8.23-1.66v26.94c0,2.98,2.43,5.41,5.41,5.41h95.48c2.98,0,5.41-2.43,5.41-5.41v-37.5c0-1.45-.55-2.81-1.57-3.83-1.02-1.03-2.37-1.6-3.82-1.6h-.03c-1.68,0-3.29.8-4.32,2.15-2.23,2.98-5.63,4.69-9.32,4.69-6.42,0-11.64-5.22-11.64-11.64s5.22-11.64,11.64-11.64ZM115.63,109.43c0,12.38,10.08,22.46,22.46,22.46,2.81,0,5.56-.56,8.23-1.66v21.53H61.66v-32.09c.01-2.98-2.4-5.42-5.38-5.44h-.03c-1.68,0-3.29.8-4.32,2.15-2.23,2.98-5.63,4.69-9.32,4.69-6.42,0-11.64-5.22-11.64-11.64s5.22-11.64,11.64-11.64c3.72,0,7.11,1.69,9.33,4.64,1.8,2.38,5.2,2.84,7.58,1.04,1.34-1.02,2.12-2.57,2.14-4.27v-32.1h32.08c1.44-.01,2.81-.53,3.84-1.54,1.03-1.01,1.61-2.36,1.62-3.81.02-1.76-.82-3.43-2.22-4.43-2.95-2.21-4.63-5.59-4.63-9.27,0-6.42,5.22-11.64,11.64-11.64s11.64,5.22,11.64,11.64c0,3.68-1.69,7.06-4.6,9.24-2.42,1.74-2.98,5.13-1.24,7.55,1.03,1.43,2.67,2.27,4.43,2.26h32.1v21.48c-2.64-1.07-5.39-1.61-8.23-1.61-12.38,0-22.46,10.08-22.46,22.46Z"/>
</svg>