<?xml version="1.0" encoding="UTF-8"?>
<svg id="Layer_1" xmlns="http://www.w3.org/2000/svg" viewBox="0 0 200 200">
  <path d="M100,160.1c-33.14,0-60.1-26.96-60.1-60.1s26.96-60.1,60.1-60.1,60.1,26.96,60.1,60.1-26.96,60.1-60.1,60.1ZM100,49.9c-27.63,0-50.1,22.48-50.1,50.1s22.48,50.1,50.1,50.1,50.1-22.48,50.1-50.1-22.48-50.1-50.1-50.1Z"/>
  <path d="M105.31,115.16h-11.07c-.03-1.59-.04-2.56-.04-2.91,0-3.59.59-6.54,1.78-8.86s3.56-4.92,7.12-7.81c3.56-2.89,5.69-4.79,6.38-5.69,1.07-1.42,1.61-2.98,1.61-4.69,0-2.37-.95-4.41-2.84-6.1s-4.45-2.54-7.66-2.54-5.69.88-7.77,2.65-3.52,4.46-4.3,8.07l-11.2-1.39c.32-5.18,2.53-9.58,6.62-13.2,4.1-3.62,9.47-5.43,16.13-5.43,7,0,12.58,1.83,16.71,5.49,4.14,3.66,6.21,7.92,6.21,12.78,0,2.69-.76,5.24-2.28,7.64-1.52,2.4-4.77,5.67-9.75,9.81-2.58,2.14-4.17,3.86-4.8,5.17s-.9,3.63-.85,6.99ZM94.24,136.44v-12.2h12.2v12.2h-12.2Z"/>
</svg>