<?xml version="1.0" encoding="UTF-8"?>
<svg id="Layer_1" xmlns="http://www.w3.org/2000/svg" viewBox="0 0 200 200">
  <path d="M101.18,156.08c-7.28,0-14.55-1.44-21.47-4.31-20.79-8.62-34.37-28.75-34.59-51.26-.03-2.76,2.19-5.02,4.95-5.05.02,0,.03,0,.05,0,2.74,0,4.97,2.21,5,4.95.18,18.5,11.33,35.03,28.42,42.12,11.36,4.71,23.88,4.72,35.25.02,11.37-4.7,20.22-13.55,24.93-24.91,1.06-2.55,3.98-3.76,6.53-2.7,2.55,1.06,3.76,3.98,2.7,6.53-5.74,13.83-16.51,24.6-30.35,30.32-6.91,2.86-14.17,4.29-21.43,4.29Z"/>
  <path d="M152.17,102.3c-2.64,0-4.85-2.07-4.99-4.73-.95-17.61-12.08-33.35-28.35-40.1-11.36-4.71-23.88-4.72-35.25-.02-11.37,4.7-20.22,13.55-24.93,24.91-1.06,2.55-3.99,3.76-6.53,2.7-2.55-1.06-3.76-3.98-2.7-6.53,5.74-13.83,16.51-24.6,30.35-30.32,13.83-5.72,29.07-5.72,42.9.02,19.81,8.22,33.36,27.37,34.51,48.8.15,2.76-1.97,5.11-4.72,5.26-.09,0-.18,0-.27,0Z"/>
  <path d="M151.76,103.36c-1.06,0-2.13-.34-3.04-1.03l-15.3-11.72c-2.19-1.68-2.61-4.82-.93-7.01,1.68-2.19,4.82-2.61,7.01-.93l11.33,8.68,8.68-11.33c1.68-2.19,4.82-2.61,7.01-.93,2.19,1.68,2.61,4.82.93,7.01l-11.72,15.3c-.98,1.29-2.47,1.96-3.97,1.96Z"/>
  <path d="M36.52,115.89c-1.06,0-2.13-.34-3.04-1.03-2.19-1.68-2.61-4.82-.93-7.01l11.72-15.3c.81-1.05,2-1.74,3.31-1.92,1.31-.17,2.65.18,3.7.99l15.3,11.72c2.19,1.68,2.61,4.82.93,7.01-1.68,2.19-4.82,2.61-7.01.93l-11.33-8.68-8.68,11.33c-.98,1.29-2.47,1.96-3.97,1.96Z"/>
</svg>