<?xml version="1.0" encoding="UTF-8"?>
<svg id="Layer_1" xmlns="http://www.w3.org/2000/svg" viewBox="0 0 200 200">
  <path d="M79.53,87.76h-19.93c-5.71,0-10.36-4.65-10.36-10.36v-19.93c0-5.71,4.65-10.36,10.36-10.36h19.93c5.71,0,10.36,4.65,10.36,10.36v19.93c0,5.71-4.65,10.36-10.36,10.36ZM59.6,57.11c-.2,0-.36.16-.36.36v19.93c0,.2.16.36.36.36h19.93c.2,0,.36-.16.36-.36v-19.93c0-.2-.16-.36-.36-.36h-19.93Z"/>
  <path d="M145.85,86.45h-42.82c-2.76,0-5-2.24-5-5s2.24-5,5-5h42.82c2.76,0,5,2.24,5,5s-2.24,5-5,5Z"/>
  <path d="M145.85,57.11h-42.82c-2.76,0-5-2.24-5-5s2.24-5,5-5h42.82c2.76,0,5,2.24,5,5s-2.24,5-5,5Z"/>
  <path d="M96.96,143.79h-42.82c-2.76,0-5-2.24-5-5s2.24-5,5-5h42.82c2.76,0,5,2.24,5,5s-2.24,5-5,5Z"/>
  <path d="M145.76,113.74H54.15c-2.76,0-5-2.24-5-5s2.24-5,5-5h91.61c2.76,0,5,2.24,5,5s-2.24,5-5,5Z"/>
  <path d="M144.94,152.89h-29.3c-1.82,0-3.49-.99-4.37-2.57-.88-1.59-.83-3.53.13-5.07l15.38-24.66c.93-1.5,2.58-2.4,4.35-2.35,1.76.04,3.38,1,4.25,2.54l13.93,24.66c.87,1.55.86,3.44-.04,4.98-.9,1.54-2.54,2.48-4.32,2.48ZM124.65,142.89h11.73l-5.57-9.87-6.15,9.87Z"/>
</svg>