<?xml version="1.0" encoding="UTF-8"?>
<svg id="Layer_1" xmlns="http://www.w3.org/2000/svg" viewBox="0 0 200 200">
  <g>
    <circle cx="76.29" cy="124.26" r="13.51"/>
    <path d="M76.29,142.77c-10.21,0-18.51-8.3-18.51-18.51s8.31-18.51,18.51-18.51,18.51,8.3,18.51,18.51-8.3,18.51-18.51,18.51ZM76.29,115.74c-4.69,0-8.51,3.82-8.51,8.51s3.82,8.51,8.51,8.51,8.51-3.82,8.51-8.51-3.82-8.51-8.51-8.51Z"/>
  </g>
  <path d="M114.22,142.77c-2.76,0-5-2.24-5-5v-11.09c0-19.49-15.85-35.34-35.34-35.34h-13.84c-2.76,0-5-2.24-5-5s2.24-5,5-5h13.84c25,0,45.34,20.34,45.34,45.34v11.09c0,2.76-2.24,5-5,5Z"/>
  <path d="M139.97,144.36c-2.76,0-5-2.24-5-5v-16.98c0-31.29-25.46-56.74-56.75-56.74h-18.19c-2.76,0-5-2.24-5-5s2.24-5,5-5h18.19c36.8,0,66.75,29.94,66.75,66.74v16.98c0,2.76-2.24,5-5,5Z"/>
</svg>