<?xml version="1.0" encoding="UTF-8"?>
<svg id="Layer_1" xmlns="http://www.w3.org/2000/svg" viewBox="0 0 200 200">
  <path d="M155.5,62.07c-2.32-5.61-6.02-9.33-11.15-14.48l-1.47-1.47c-5.22-5.22-9-9-14.67-11.34-5.67-2.34-11.01-2.34-18.39-2.34h-30.63c-17.28,0-28.7,0-37.73,9.02-9.02,9.02-9.02,20.44-9.02,37.73v32.27c0,17.07.08,28.38,9.03,37.35,9.02,9.02,20.44,9.02,37.73,9.02h31.88c17.28,0,28.7,0,37.73-9.02,9.02-9.02,9.02-20.44,9.02-37.73v-30.63c0-7.4,0-12.74-2.34-18.39ZM88.64,97.77l-21.11-21.11c-2.53-2.53-6.65-2.53-9.19,0-2.53,2.53-2.53,6.66,0,9.19l26.95,26.95c2.63,2.63,6.13,4.08,9.85,4.08s7.22-1.45,9.85-4.08l26.95-26.95c1.23-1.23,1.9-2.86,1.9-4.59s-.68-3.37-1.9-4.59c-1.23-1.23-2.86-1.9-4.59-1.9s-3.37.68-4.59,1.9l-21.11,21.11v-54.11s5.96,0,5.96,0c6.07,0,10.45,0,14.95,1.86,4.5,1.86,7.6,4.96,11.89,9.25l1.24,1.24c4.21,4.23,7.26,7.29,9.09,11.73,1.86,4.48,1.86,8.87,1.86,14.95v25.98c0,14.24,0,23.65-7.15,30.8-7.16,7.15-16.57,7.15-30.8,7.15h-27.05c-14.24,0-23.65,0-30.8-7.15-7.15-7.16-7.15-16.57-7.15-30.8v-.41s0-26.65,0-26.65c0-14.24,0-23.65,7.15-30.8,7.16-7.15,16.57-7.15,30.8-7.15h7.03v54.11Z"/>
</svg>