<?xml version="1.0" encoding="UTF-8"?>
<svg id="Layer_1" xmlns="http://www.w3.org/2000/svg" viewBox="0 0 200 200">
  <path d="M95.04,130.57c-21.45,0-38.9-17.45-38.9-38.9s17.45-38.9,38.9-38.9,38.9,17.45,38.9,38.9c0,9.75-3.62,19.08-10.2,26.26-7.35,8.03-17.81,12.64-28.7,12.64ZM95.04,62.77c-15.94,0-28.9,12.96-28.9,28.9s12.96,28.9,28.9,28.9c8.09,0,15.86-3.42,21.32-9.39,4.89-5.34,7.58-12.27,7.58-19.51,0-15.94-12.96-28.9-28.9-28.9Z"/>
  <path d="M138.86,147.23c-1.28,0-2.56-.49-3.54-1.46l-23.25-23.25c-1.95-1.95-1.95-5.12,0-7.07,1.95-1.95,5.12-1.95,7.07,0l23.25,23.25c1.95,1.95,1.95,5.12,0,7.07-.98.98-2.26,1.46-3.54,1.46Z"/>
</svg>