<?xml version="1.0" encoding="UTF-8"?>
<svg id="Layer_1" xmlns="http://www.w3.org/2000/svg" viewBox="0 0 200 200">
  <path d="M148.14,107.32c-3.11-1.08-5.2-4.02-5.2-7.32s2.09-6.23,5.2-7.32c4.05-1.41,6.2-5.67,4.91-9.7-.93-2.9-2.12-5.75-3.53-8.48-1.93-3.75-6.46-5.23-10.32-3.37-2.96,1.43-6.52.83-8.84-1.5s-2.93-5.88-1.5-8.84c1.85-3.85.37-8.38-3.37-10.32-2.73-1.41-5.58-2.59-8.48-3.52-4.03-1.29-8.29.86-9.7,4.91-1.09,3.11-4.03,5.2-7.32,5.2s-6.23-2.09-7.32-5.2c-1.41-4.05-5.67-6.2-9.7-4.91-2.9.93-5.75,2.12-8.48,3.53-3.75,1.94-5.23,6.47-3.37,10.32,1.43,2.96.83,6.52-1.5,8.84-2.33,2.33-5.88,2.93-8.84,1.5-3.85-1.85-8.38-.37-10.32,3.37-1.41,2.73-2.59,5.58-3.52,8.48-1.29,4.03.86,8.29,4.91,9.7,3.11,1.09,5.2,4.03,5.2,7.32s-2.09,6.23-5.2,7.32c-4.05,1.41-6.2,5.67-4.91,9.7.93,2.9,2.12,5.75,3.53,8.48,1.93,3.75,6.46,5.23,10.32,3.37,2.96-1.43,6.52-.83,8.84,1.5,2.33,2.33,2.93,5.88,1.5,8.84-1.85,3.85-.37,8.38,3.37,10.32,2.73,1.41,5.58,2.59,8.48,3.53.79.25,1.59.37,2.37.37,3.22,0,6.19-2.03,7.33-5.28,1.09-3.11,4.03-5.2,7.32-5.2s6.23,2.09,7.32,5.2c1.41,4.05,5.67,6.2,9.7,4.91,2.9-.93,5.75-2.12,8.48-3.53,3.75-1.94,5.23-6.47,3.37-10.32-1.43-2.96-.83-6.52,1.5-8.84s5.88-2.93,8.84-1.5c3.85,1.85,8.38.37,10.32-3.37,1.41-2.73,2.59-5.58,3.52-8.48,1.29-4.03-.86-8.29-4.91-9.7ZM142.85,115.92c-.39,1.05-.83,2.09-1.3,3.12-6.34-2.15-13.44-.56-18.26,4.25-4.81,4.81-6.4,11.92-4.25,18.26-1.02.47-2.07.9-3.12,1.3-2.96-6-9.11-9.91-15.92-9.91s-12.96,3.9-15.92,9.91c-1.05-.39-2.09-.83-3.12-1.3,2.15-6.33.56-13.44-4.25-18.26-4.81-4.81-11.92-6.41-18.26-4.25-.47-1.02-.9-2.07-1.3-3.12,6-2.96,9.91-9.11,9.91-15.92s-3.9-12.96-9.91-15.92c.39-1.05.83-2.09,1.3-3.12,6.33,2.15,13.44.56,18.26-4.25,4.81-4.81,6.4-11.92,4.25-18.26,1.02-.47,2.07-.91,3.12-1.3,2.96,6,9.11,9.91,15.92,9.91s12.96-3.9,15.92-9.91c1.05.39,2.09.83,3.12,1.3-2.15,6.33-.56,13.44,4.25,18.26s11.92,6.41,18.26,4.25c.47,1.02.9,2.07,1.3,3.12-6,2.96-9.91,9.11-9.91,15.92s3.9,12.96,9.91,15.92Z"/>
  <path d="M100,85.65c-7.91,0-14.35,6.44-14.35,14.35s6.44,14.35,14.35,14.35,14.35-6.44,14.35-14.35-6.44-14.35-14.35-14.35Z"/>
</svg>