<?xml version="1.0" encoding="UTF-8"?>
<svg id="Layer_1" xmlns="http://www.w3.org/2000/svg" viewBox="0 0 200 200">
  <path d="M132.02,156.12h-63.86c-6.33,0-11.49-5.15-11.49-11.49v-56.67c0-6.33,5.15-11.49,11.49-11.49h12.15c2.76,0,5,2.24,5,5s-2.24,5-5,5h-12.15c-.82,0-1.49.67-1.49,1.49v56.67c0,.82.67,1.49,1.49,1.49h63.86c.82,0,1.49-.67,1.49-1.49v-56.67c0-.82-.67-1.49-1.49-1.49h-11.39c-2.76,0-5-2.24-5-5s2.24-5,5-5h11.39c6.33,0,11.49,5.15,11.49,11.49v56.67c0,6.33-5.15,11.49-11.49,11.49Z"/>
  <path d="M100.09,120.07c-2.76,0-5-2.24-5-5v-60.36c0-2.76,2.24-5,5-5s5,2.24,5,5v60.36c0,2.76-2.24,5-5,5Z"/>
  <path d="M83.56,68.13c-1.28,0-2.56-.49-3.54-1.46-1.95-1.95-1.95-5.12,0-7.07l12.42-12.42c4.38-4.38,11.5-4.38,15.88,0l11.83,11.83c1.95,1.95,1.95,5.12,0,7.07-1.95,1.95-5.12,1.95-7.07,0l-11.83-11.83c-.48-.48-1.26-.48-1.74,0l-12.42,12.42c-.98.98-2.26,1.46-3.54,1.46Z"/>
</svg>