<?xml version="1.0" encoding="UTF-8"?>
<svg id="Layer_1" xmlns="http://www.w3.org/2000/svg" viewBox="0 0 200 200">
  <defs>
    <style>
      .cls-1 {
        fill: #95bf47;
      }

      .cls-2 {
        fill: #fff;
      }

      .cls-3 {
        fill: #5e8e3e;
      }
    </style>
  </defs>
  <path class="cls-1" d="M148.46,58.72c-.11-.65-.65-1.08-1.19-1.08s-10.06-.22-10.06-.22c0,0-8.01-7.79-8.76-8.55s-2.38-.54-2.92-.32c0,0-1.51.43-4,1.19-.43-1.41-1.08-3.03-1.95-4.76-2.81-5.41-7.03-8.33-12.01-8.33h0c-.32,0-.65,0-1.08.11-.11-.22-.32-.32-.43-.54-2.16-2.38-4.98-3.46-8.33-3.35-6.49.22-12.98,4.87-18.18,13.2-3.68,5.84-6.49,13.2-7.36,18.94-7.47,2.27-12.66,3.9-12.77,4-3.79,1.19-3.9,1.3-4.33,4.87-.32,2.71-10.28,78.99-10.28,78.99l82.67,14.28,35.82-8.87c-.11-.11-14.72-98.9-14.82-99.55ZM117.41,51.04c-1.95.54-4.11,1.3-6.38,1.95,0-3.25-.43-7.9-1.95-11.79,4.87.97,7.25,6.49,8.33,9.85ZM106.59,54.39c-4.33,1.3-9.09,2.81-13.85,4.22,1.3-5.09,3.9-10.17,6.93-13.53,1.19-1.19,2.81-2.6,4.65-3.46,1.95,3.79,2.38,9.09,2.27,12.77ZM97.82,37.19c1.51,0,2.81.32,3.9.97-1.73.97-3.46,2.27-5.09,4-4.11,4.44-7.25,11.36-8.55,17.96-3.9,1.19-7.79,2.38-11.36,3.46,2.27-10.39,11.04-26.08,21.1-26.4Z"/>
  <g>
    <path class="cls-3" d="M147.27,57.64c-.54,0-10.06-.22-10.06-.22,0,0-8.01-7.79-8.76-8.55-.32-.32-.65-.43-1.08-.54v118.7l35.82-8.87s-14.61-98.79-14.72-99.55c-.11-.54-.65-.97-1.19-.97Z"/>
    <path class="cls-2" d="M108.54,78.75l-4.11,15.58s-4.65-2.16-10.17-1.73c-8.12.54-8.12,5.63-8.12,6.93.43,6.93,18.72,8.44,19.8,24.78.76,12.88-6.82,21.64-17.75,22.29-13.2.87-20.45-6.93-20.45-6.93l2.81-11.9s7.25,5.52,13.09,5.09c3.79-.22,5.19-3.35,5.09-5.52-.54-9.09-15.47-8.55-16.45-23.48-.76-12.55,7.47-25.32,25.65-26.4,7.03-.54,10.6,1.3,10.6,1.3Z"/>
  </g>
</svg>