<?xml version="1.0" encoding="UTF-8"?>
<svg id="Layer_1" xmlns="http://www.w3.org/2000/svg" viewBox="0 0 200 200">
  <path d="M121.6,48.56s-1.52.43-4.01,1.19c-.43-1.41-1.08-3.03-1.95-4.76-2.82-5.41-7.04-8.34-12.02-8.34h0c-.32,0-.65,0-1.08.11-.11-.22-.32-.32-.43-.54-2.17-2.38-4.98-3.47-8.34-3.36-6.5.22-13,4.87-18.19,13.21-3.68,5.85-6.5,13.21-7.26,18.95-7.47,2.27-12.67,3.9-12.78,4.01-3.79,1.19-3.9,1.3-4.33,4.87-.65,2.71-10.5,79.06-10.5,79.06l81.87,14.19V48.35c-.43.11-.76.11-.97.22ZM102.65,54.41c-4.33,1.3-9.1,2.82-13.75,4.22,1.3-5.09,3.9-10.18,6.93-13.54,1.19-1.19,2.82-2.6,4.66-3.47,1.84,3.9,2.27,9.21,2.17,12.78ZM93.88,37.19c1.52,0,2.82.32,3.9.97-1.73.87-3.47,2.27-5.09,3.9-4.12,4.44-7.26,11.37-8.56,17.98-3.9,1.19-7.8,2.38-11.37,3.47,2.27-10.29,11.05-25.99,21.12-26.32ZM81.21,96.75c.43,6.93,18.74,8.45,19.82,24.8.76,12.89-6.82,21.66-17.76,22.31-13.21.87-20.47-6.93-20.47-6.93l2.82-11.91s7.26,5.52,13.1,5.09c3.79-.22,5.2-3.36,5.09-5.52-.54-9.1-15.49-8.56-16.46-23.5-.87-12.45,7.36-25.12,25.56-26.32,7.04-.43,10.61,1.3,10.61,1.3l-4.12,15.59s-4.66-2.17-10.18-1.73c-8.01.54-8.12,5.63-8.01,6.82ZM106.99,53.11c0-3.25-.43-7.91-1.95-11.8,4.98.97,7.36,6.5,8.45,9.85-1.95.54-4.12,1.19-6.5,1.95Z"/>
  <path d="M125.29,166.71l34-8.45s-14.62-98.87-14.73-99.52c-.11-.65-.65-1.08-1.19-1.08s-10.07-.22-10.07-.22c0,0-5.85-5.63-8.01-7.8v117.07Z"/>
</svg>