<?xml version="1.0" encoding="UTF-8"?>
<svg id="Layer_1" xmlns="http://www.w3.org/2000/svg" viewBox="0 0 200 200">
  <path d="M103.25,152.84c-2.09,0-4.16-.71-5.87-2.11l-33.4-27.17h-16.63c-5.15,0-9.33-4.19-9.33-9.33v-26.74c0-5.15,4.19-9.33,9.33-9.33h16.63l33.4-27.17c2.82-2.29,6.61-2.75,9.9-1.19,3.28,1.56,5.32,4.79,5.32,8.43v85.26c0,3.64-2.04,6.87-5.32,8.43-1.29.62-2.67.92-4.03.92ZM48.02,113.57h17.74c1.15,0,2.26.4,3.15,1.12l33.69,27.4V59.64l-33.69,27.4c-.89.73-2.01,1.12-3.15,1.12h-17.74v25.41Z"/>
  <path d="M127.91,130.4c-.65,0-1.31-.13-1.95-.4-2.54-1.08-3.73-4.01-2.65-6.56,6.5-15.3,6.65-32.21.43-47.62-1.03-2.56.2-5.47,2.76-6.51,2.56-1.03,5.47.2,6.51,2.76,7.22,17.89,7.05,37.52-.49,55.27-.81,1.9-2.66,3.05-4.6,3.05Z"/>
  <path d="M147.06,152.18c-.65,0-1.31-.13-1.95-.4-2.54-1.08-3.73-4.01-2.65-6.56,12.44-29.29,12.73-61.68.81-91.19-1.03-2.56.2-5.47,2.76-6.51,2.56-1.03,5.47.2,6.51,2.76,12.92,31.99,12.6,67.09-.88,98.84-.81,1.9-2.66,3.05-4.6,3.05Z"/>
</svg>