<?xml version="1.0" encoding="UTF-8"?>
<svg id="Layer_1" xmlns="http://www.w3.org/2000/svg" viewBox="0 0 200 200">
  <path d="M99.08,43.58c-30.49,0-55.04,24.56-55.04,55.04s24.56,55.04,55.04,55.04,55.04-24.56,55.04-55.04-24.56-55.04-55.04-55.04ZM120.4,125.91c-.8,0-1.61-.4-2.41-.8-7.64-4.42-16.9-6.84-26.95-6.84-5.63,0-11.26.8-16.49,2.01-.8,0-2.01.4-2.41.4-2.01,0-3.22-1.61-3.22-3.22,0-2.01,1.21-3.22,2.82-3.62,6.43-1.61,12.87-2.41,19.71-2.41,11.26,0,21.72,2.81,30.57,8.05,1.21.8,2.01,1.61,2.01,3.62-.4,1.61-2.01,2.82-3.62,2.82ZM126.03,112.24c-1.21,0-2.01-.4-2.82-.8-8.44-5.23-20.11-8.45-33.38-8.45-6.44,0-12.47.81-16.9,2.02-1.21.4-1.61.4-2.41.4-2.41,0-4.02-2.01-4.02-4.02,0-2.41,1.21-3.62,3.22-4.42,6.03-1.61,12.07-2.82,20.51-2.82,13.68,0,26.95,3.22,37.41,9.65,1.61.8,2.41,2.41,2.41,4.02,0,2.42-1.61,4.43-4.02,4.43ZM132.46,96.15c-1.21,0-1.61-.4-2.82-.8-9.65-5.63-24.13-8.85-38.21-8.85-7.24,0-14.48.81-20.92,2.41-.81,0-1.61.4-2.82.4-2.82.4-4.83-2.01-4.83-4.83s1.61-4.42,3.62-4.83c7.64-2.41,15.69-3.22,24.94-3.22,15.29,0,31.37,3.22,43.44,10.06,1.61.81,2.81,2.41,2.81,4.83-.4,2.82-2.41,4.83-5.23,4.83Z"/>
</svg>