<?xml version="1.0" encoding="UTF-8"?>
<svg id="Layer_1" xmlns="http://www.w3.org/2000/svg" viewBox="0 0 200 200.75">
  <path d="M130.24,43.67h-60.49c-14.82,0-26.84,12.02-26.84,26.84v60.49c0,14.82,12.02,26.84,26.84,26.84h60.49c14.82,0,26.84-12.02,26.84-26.84v-60.49c0-14.82-12.02-26.84-26.84-26.84ZM134.88,126.1c0,5.27-4.27,9.54-9.54,9.54h-50.69c-5.27,0-9.54-4.27-9.54-9.54v-50.69c0-5.27,4.27-9.54,9.54-9.54h50.69c5.27,0,9.54,4.27,9.54,9.54v50.69Z"/>
  <path d="M84.14,84.9h31.71v31.71h-31.71v-31.71Z"/>
</svg>