<?xml version="1.0" encoding="UTF-8"?>
<svg id="Layer_1" xmlns="http://www.w3.org/2000/svg" viewBox="0 0 200 200">
  <path d="M153.7,87.18c-.94-2.88-3.38-4.95-6.39-5.38l-27.79-4.04-12.43-25.18h0c-1.34-2.72-4.06-4.41-7.1-4.41s-5.75,1.69-7.1,4.41l-12.43,25.18-27.79,4.04c-3,.44-5.45,2.5-6.39,5.38-.94,2.89-.17,5.99,2,8.11l20.11,19.6-4.75,27.68c-.51,2.99.69,5.96,3.15,7.74,2.46,1.78,5.65,2.01,8.33.6l24.85-13.07,24.85,13.07c1.17.61,2.43.92,3.69.92,1.63,0,3.26-.51,4.64-1.52,2.45-1.78,3.66-4.75,3.15-7.74l-4.75-27.68,20.11-19.6c2.17-2.12,2.94-5.23,2-8.11Z"/>
</svg>