<?xml version="1.0" encoding="UTF-8"?>
<svg id="Layer_1" xmlns="http://www.w3.org/2000/svg" viewBox="0 0 200 200">
  <path d="M72.28,151.18c-1.76,0-3.51-.55-5.01-1.64-2.65-1.92-3.95-5.12-3.4-8.35l4.53-26.43-19.21-18.72c-2.34-2.28-3.17-5.64-2.16-8.75,1.01-3.11,3.65-5.34,6.89-5.81l26.54-3.86,11.87-24.05c1.45-2.93,4.38-4.76,7.65-4.76s6.21,1.82,7.65,4.76l11.87,24.05,26.54,3.86c3.24.47,5.88,2.7,6.89,5.81,1.01,3.11.18,6.46-2.16,8.75l-19.21,18.72,4.53,26.43c.55,3.23-.75,6.42-3.4,8.35s-6.09,2.17-8.99.65l-23.74-12.48-23.74,12.48c-1.26.66-2.62.99-3.98.99ZM58.31,90.95l17.63,17.19c2.01,1.96,2.93,4.78,2.45,7.55l-4.16,24.27,21.79-11.46c2.49-1.31,5.46-1.31,7.94,0l21.79,11.46-4.16-24.27c-.47-2.77.44-5.59,2.45-7.55l17.63-17.19-24.36-3.54c-2.78-.4-5.18-2.15-6.43-4.67l-10.9-22.08-10.9,22.08c-1.24,2.52-3.64,4.26-6.42,4.67l-24.37,3.54ZM144.63,91.38h0,0ZM98.69,58s0,0,0,0h0Z"/>
</svg>