<?xml version="1.0" encoding="UTF-8"?>
<svg id="Layer_1" xmlns="http://www.w3.org/2000/svg" viewBox="0 0 200 200">
  <path d="M83.39,33.59c-1.47,0-2.89.57-3.94,1.62-1.04,1.04-1.63,2.46-1.62,3.94,0,1.47.59,2.87,1.63,3.91,1.04,1.03,2.46,1.61,3.92,1.6h33.21c3.04-.01,5.51-2.48,5.51-5.51,0-1.47-.57-2.88-1.6-3.92-1.04-1.04-2.44-1.63-3.91-1.63h-33.21Z"/>
  <path d="M99.98,55.72c-30.49,0-55.3,24.85-55.3,55.34s24.82,55.34,55.3,55.34,55.34-24.85,55.34-55.34-24.85-55.34-55.34-55.34ZM99.98,66.79c24.51,0,44.27,19.76,44.27,44.28s-19.76,44.28-44.27,44.28-44.28-19.77-44.28-44.28,19.76-44.28,44.28-44.28Z"/>
  <path d="M140.33,62.87l-9.07,9.07c-1.04,1.04-1.63,2.45-1.63,3.92s.59,2.88,1.63,3.92c1.04,1.04,2.45,1.63,3.92,1.63s2.88-.59,3.92-1.63l9.07-9.07c1.04-1.04,1.63-2.45,1.63-3.92s-.58-2.88-1.63-3.92c-1.04-1.04-2.45-1.63-3.92-1.63s-2.88.59-3.92,1.63Z"/>
  <path d="M99.98,77.86c-1.47,0-2.88.59-3.91,1.64-1.03,1.04-1.61,2.45-1.6,3.91v27.65c0,2.23,1.35,4.25,3.41,5.11,2.07.86,4.44.39,6.02-1.19l11.07-11.07h0c1.04-1.04,1.63-2.45,1.63-3.92s-.59-2.88-1.63-3.92c-1.04-1.04-2.46-1.63-3.92-1.63s-2.88.59-3.92,1.63l-1.59,1.59v-14.25c0-1.47-.58-2.89-1.62-3.93-1.04-1.04-2.46-1.63-3.94-1.63h0Z"/>
</svg>