<?xml version="1.0" encoding="UTF-8"?>
<svg id="Layer_1" xmlns="http://www.w3.org/2000/svg" viewBox="0 0 200 200">
  <path d="M45.02,46.81c-3.91,0-7.08,3.17-7.08,7.08v25.25c0,6.17,2.3,12.04,6.49,16.59v58.68c0,3.91,3.17,7.08,7.08,7.08h99.85c3.91,0,7.08-3.17,7.08-7.08v-58.69c4.19-4.56,6.49-10.42,6.49-16.58v-25.25c0-3.91-3.17-7.08-7.08-7.08H45.02ZM112.64,128.99v22.4h-22.4v-22.4h22.4ZM115.89,79.14c0,12.6-16.23,21.49-28.89,6.86v-29.1h28.89v22.24ZM76.91,85.68c-6.96,8.81-16.49,9.88-23.01,5.06-3.31-2.45-5.47-6.17-5.88-10.53v-23.31h28.89v28.78ZM148.37,102.32v49.07h-25.64v-25.89c0-3.64-2.95-6.6-6.6-6.6h-29.37c-3.64,0-6.6,2.95-6.6,6.6v25.89h-25.64v-49.07c2.57.89,5.24,1.34,7.96,1.34,7.71,0,14.85-3.58,19.49-9.68,4.64,6.1,11.77,9.68,19.49,9.68s14.85-3.58,19.49-9.68c4.64,6.1,11.77,9.68,19.49,9.68,2.71,0,5.37-.45,7.96-1.35ZM148.98,90.74c-6.57,4.84-16.14,3.74-23.01-5.21v-28.63h28.89v22.24c0,2.98-.92,5.87-2.67,8.35-.86,1.22-1.94,2.32-3.21,3.26Z"/>
</svg>