<?xml version="1.0" encoding="UTF-8"?>
<svg id="Layer_1" xmlns="http://www.w3.org/2000/svg" viewBox="0 0 199.99 200">
  <path d="M54.34,93.98c4.35,0,7.88-3.54,7.88-7.88v-14.28c0-1.77-.6-3.47-1.7-4.86,3.79-17.99,19.71-30.97,38.15-30.97s34.37,12.98,38.15,30.97c-1.1,1.39-1.7,3.09-1.7,4.86v14.28c0,4.35,3.54,7.88,7.88,7.88s7.88-3.54,7.88-7.88v-14.28c0-2.58-1.33-4.99-3.52-6.46-4.59-23.24-24.97-40.03-48.69-40.03-23.72,0-44.09,16.79-48.69,40.02-2.2,1.46-3.54,3.88-3.54,6.47v14.28c0,4.35,3.54,7.88,7.88,7.88Z"/>
  <path d="M143.4,112.34c-8.21-8.12-18.6-8.68-27.13-1.46-9.17,7.77-26.97,8.02-35.28.5-8.23-7.45-18.95-6.81-27.31,1.63-13.84,13.98-14.63,42.06-1.6,56.71,4.63,5.2,9.88,7.66,16.05,7.56,8.52-.15,17.21-.12,25.62-.09,3.37.01,6.73.02,10.1.03,2.49,0,4.98-.02,7.46-.03,5.51-.04,11.21-.08,16.76.1.25,0,.5.01.74.01,6.66,0,12.29-2.86,17.2-8.72,12.4-14.8,11.1-42.65-2.62-56.24ZM137.23,161.21c-2.83,3.38-5.38,4.71-8.79,4.6-3.34-.1-6.7-.14-10.03-.14-2.41,0-4.81.02-7.17.03-2.46.02-4.92.03-7.38.03h0c-3.35,0-6.71-.01-10.06-.03-8.47-.03-17.23-.06-25.87.09-2.78.05-4.85-.99-7.28-3.72-8.89-9.99-8.28-31.45,1.18-41,6.04-6.1,10.11-2.41,11.45-1.2,12.68,11.48,36.7,11.36,50.4-.25,2.7-2.29,6.46-4.26,11.64.86,9.39,9.29,10.38,30.59,1.9,40.71Z"/>
  <path d="M98.92,46.19h-.03c-8.49,0-16.46,3.3-22.43,9.3-5.98,6-9.25,13.98-9.22,22.47.08,17.78,13.92,31.68,31.55,31.68h.11c8.51-.03,16.51-3.33,22.52-9.29,6.03-5.99,9.33-13.93,9.3-22.38-.07-17.5-14.33-31.76-31.79-31.78ZM113.32,92.19c-3.85,3.83-8.99,5.94-14.47,5.96h-.07c-11.21,0-20.02-8.88-20.07-20.25-.02-5.41,2.06-10.5,5.87-14.32,3.81-3.82,8.89-5.92,14.3-5.92h.02c11.17.01,20.28,9.14,20.33,20.34.02,5.34-2.08,10.38-5.91,14.18Z"/>
</svg>