<?xml version="1.0" encoding="UTF-8"?>
<svg id="Layer_1" xmlns="http://www.w3.org/2000/svg" viewBox="0 0 200 200">
  <path d="M100,142.6c-23.49,0-42.6-19.11-42.6-42.6s19.11-42.6,42.6-42.6,42.6,19.11,42.6,42.6-19.11,42.6-42.6,42.6ZM100,67.4c-17.98,0-32.6,14.62-32.6,32.6s14.62,32.6,32.6,32.6,32.6-14.62,32.6-32.6-14.62-32.6-32.6-32.6Z"/>
  <path d="M100,67.4c-2.76,0-5-2.24-5-5v-26.57c0-2.76,2.24-5,5-5s5,2.24,5,5v26.57c0,2.76-2.24,5-5,5Z"/>
  <path d="M100,169.17c-2.76,0-5-2.24-5-5v-26.57c0-2.76,2.24-5,5-5s5,2.24,5,5v26.57c0,2.76-2.24,5-5,5Z"/>
  <path d="M62.4,105h-26.57c-2.76,0-5-2.24-5-5s2.24-5,5-5h26.57c2.76,0,5,2.24,5,5s-2.24,5-5,5Z"/>
  <path d="M164.17,105h-26.57c-2.76,0-5-2.24-5-5s2.24-5,5-5h26.57c2.76,0,5,2.24,5,5s-2.24,5-5,5Z"/>
  <path d="M73.41,78.41c-1.28,0-2.56-.49-3.54-1.46l-18.79-18.79c-1.95-1.95-1.95-5.12,0-7.07,1.95-1.95,5.12-1.95,7.07,0l18.79,18.79c1.95,1.95,1.95,5.12,0,7.07-.98.98-2.26,1.46-3.54,1.46Z"/>
  <path d="M145.38,150.38c-1.28,0-2.56-.49-3.54-1.46l-18.79-18.79c-1.95-1.95-1.95-5.12,0-7.07,1.95-1.95,5.12-1.95,7.07,0l18.79,18.79c1.95,1.95,1.95,5.12,0,7.07-.98.98-2.26,1.46-3.54,1.46Z"/>
  <path d="M54.62,150.38c-1.28,0-2.56-.49-3.54-1.46-1.95-1.95-1.95-5.12,0-7.07l18.79-18.79c1.95-1.95,5.12-1.95,7.07,0,1.95,1.95,1.95,5.12,0,7.07l-18.79,18.79c-.98.98-2.26,1.46-3.54,1.46Z"/>
  <path d="M126.59,78.41c-1.28,0-2.56-.49-3.54-1.46-1.95-1.95-1.95-5.12,0-7.07l18.79-18.79c1.95-1.95,5.12-1.95,7.07,0,1.95,1.95,1.95,5.12,0,7.07l-18.79,18.79c-.98.98-2.26,1.46-3.54,1.46Z"/>
</svg>