<?xml version="1.0" encoding="UTF-8"?>
<svg id="Layer_1" xmlns="http://www.w3.org/2000/svg" viewBox="0 0 197.08 200">
  <path d="M98.55,68.73c-22.06,0-40.01,17.95-40.01,40.01s17.72,39.78,39.57,40.01l34.65,6.01c.29.06.56.07.85.07,1.36,0,2.67-.56,3.63-1.57,1.15-1.22,1.59-2.94,1.2-4.56l-4.97-20.44c3.35-5.85,5.1-12.55,5.1-19.53,0-22.06-17.95-40.01-40.01-40.01h0ZM123.34,128.61l3.66,15.09-27.6-4.79c-.28-.04-.56-.07-.85-.07-16.59,0-30.1-13.5-30.1-30.1s13.5-30.1,30.1-30.1,30.1,13.5,30.1,30.1c0,5.8-1.61,11.33-4.64,15.99-.75,1.15-.99,2.55-.67,3.88h0Z"/>
  <path d="M159.83,96.24c-5.34-29-30.75-51.07-61.28-51.07-30.52,0-55.94,22.07-61.28,51.07-2.57,1.4-4.38,4.04-4.38,7.17v18.48c0,4.56,3.7,8.26,8.26,8.26s8.26-3.7,8.26-8.26v-18.48c0-2.24-.91-4.25-2.35-5.73,4.63-24.21,25.93-42.58,51.47-42.58s46.84,18.37,51.47,42.58c-1.44,1.49-2.35,3.5-2.35,5.73v18.48c0,4.56,3.7,8.26,8.26,8.26s8.26-3.7,8.26-8.26v-18.48c0-3.14-1.81-5.76-4.38-7.17h.02Z"/>
  <path d="M85.58,108.65c0,6.61-9.92,6.61-9.92,0s9.92-6.61,9.92,0"/>
  <path d="M103.51,108.65c0,6.61-9.92,6.61-9.92,0s9.92-6.61,9.92,0"/>
  <path d="M121.44,108.65c0,6.61-9.92,6.61-9.92,0s9.92-6.61,9.92,0"/>
</svg>