<?xml version="1.0" encoding="UTF-8"?>
<svg id="Layer_1" xmlns="http://www.w3.org/2000/svg" viewBox="0 0 200 200">
  <g>
    <path d="M25.21,150.35c-1.62,0-3.18-.79-4.12-2.17-1.16-1.69-1.17-3.9-.04-5.61l50.41-75.58c1.53-2.3,4.64-2.92,6.93-1.39,2.3,1.53,2.92,4.64,1.39,6.93l-43.48,65.19,73.53-16.54c2.69-.61,5.37,1.09,5.98,3.78.61,2.69-1.09,5.37-3.78,5.98l-85.71,19.28c-.37.08-.73.12-1.1.12Z"/>
    <g>
      <ellipse cx="95.56" cy="96.55" rx="14.39" ry="33.17" transform="translate(-37.41 68.75) rotate(-33.49)"/>
      <path d="M109.82,130.34c-3.23,0-7.39-1.08-12.53-4.42-6.29-4.09-12.64-10.72-17.9-18.67-5.26-7.95-8.87-16.39-10.18-23.78-2.1-11.89,2.41-16.86,5.29-18.76,2.88-1.9,9.22-4.12,19.34,2.47,6.29,4.09,12.64,10.72,17.9,18.67s8.87,16.39,10.18,23.78c2.1,11.89-2.41,16.86-5.29,18.76-1.42.94-3.67,1.95-6.81,1.95ZM81.29,72.76c-.56,0-.98.1-1.27.29-1.08.71-1.84,3.73-.96,8.68,1.06,5.98,4.22,13.27,8.67,20,4.45,6.73,9.93,12.49,15.02,15.81,4.21,2.74,7.29,3.22,8.36,2.51,1.08-.71,1.84-3.73.96-8.68-1.06-5.98-4.22-13.27-8.67-20-4.45-6.73-9.93-12.49-15.02-15.81-3.09-2.01-5.56-2.8-7.09-2.8Z"/>
    </g>
  </g>
  <path d="M90.21,87c-1.04,0-2.1-.33-3-1-2.21-1.66-2.66-4.79-1-7,.2-.27,15.84-21.4,19.78-44.06.47-2.72,3.06-4.54,5.78-4.07,2.72.47,4.54,3.06,4.07,5.78-4.36,25.1-20.93,47.41-21.63,48.35-.98,1.31-2.48,2-4,2Z"/>
  <path d="M131.53,83.69c-1.58,0-3.14-.75-4.11-2.15-1.57-2.27-1.01-5.38,1.25-6.95.51-.36,12.67-8.73,26.15-10.58,2.74-.38,5.26,1.54,5.63,4.27.38,2.74-1.54,5.26-4.27,5.63-11.05,1.52-21.7,8.81-21.8,8.88-.87.6-1.86.89-2.84.89Z"/>
  <path d="M129.81,109.57c-2,0-3.89-1.21-4.66-3.19-1-2.57.28-5.47,2.85-6.47.33-.13,8.23-3.15,16.02-2.35,2.75.28,4.75,2.73,4.47,5.48-.28,2.75-2.73,4.75-5.48,4.47-5.35-.54-11.33,1.7-11.39,1.73-.59.23-1.21.34-1.81.34Z"/>
  <path d="M173.41,96.04c-3.52,0-6.38-2.86-6.38-6.38s2.86-6.38,6.38-6.38,6.38,2.86,6.38,6.38-2.86,6.38-6.38,6.38Z"/>
  <path d="M141.59,136.06c-3.52,0-6.38-2.86-6.38-6.38s2.86-6.38,6.38-6.38,6.38,2.86,6.38,6.38-2.86,6.38-6.38,6.38Z"/>
  <path d="M136.66,56.76c-3.52,0-6.38-2.86-6.38-6.38s2.86-6.38,6.38-6.38,6.38,2.86,6.38,6.38-2.86,6.38-6.38,6.38Z"/>
  <path d="M74.72,51.61c-3.52,0-6.38-2.86-6.38-6.38s2.86-6.38,6.38-6.38,6.38,2.86,6.38,6.38-2.86,6.38-6.38,6.38Z"/>
  <path d="M58.7,143.02c-.65,0-1.3-.13-1.93-.39-2.55-1.07-3.74-4-2.68-6.54h0c.11-.26,10.84-26.19,7.63-43.89-.49-2.72,1.31-5.32,4.03-5.81,2.71-.49,5.32,1.31,5.81,4.03,3.73,20.63-7.76,48.36-8.25,49.54-.8,1.91-2.66,3.07-4.61,3.07Z"/>
</svg>