<?xml version="1.0" encoding="UTF-8"?>
<svg id="Layer_1" xmlns="http://www.w3.org/2000/svg" viewBox="0 0 200 200">
  <path d="M86.57,160.84c-4.17,0-8.09-1.62-11.04-4.57l-32.36-32.36c-2.74-2.74-4.24-6.38-4.24-10.25s1.51-7.51,4.24-10.25l53.14-53.14c14.79-14.79,38.86-14.79,53.65,0,14.79,14.79,14.79,38.86,0,53.65l-52.34,52.34c-2.95,2.95-6.87,4.57-11.04,4.57ZM123.14,49.18c-7.15,0-14.31,2.72-19.75,8.17l-53.14,53.14c-.85.85-1.32,1.98-1.32,3.18s.47,2.33,1.32,3.18l32.36,32.36h0c1.06,1.06,2.47,1.65,3.97,1.65s2.91-.58,3.97-1.65l52.34-52.34c10.89-10.89,10.89-28.61,0-39.51-5.44-5.44-12.6-8.17-19.75-8.17Z"/>
  <g>
    <circle cx="121.8" cy="78.44" r="9.46"/>
    <path d="M121.8,92.9c-3.86,0-7.5-1.5-10.23-4.24-5.64-5.64-5.64-14.81,0-20.45s14.81-5.64,20.45,0c5.64,5.64,5.64,14.81,0,20.45h0c-2.73,2.73-6.36,4.24-10.23,4.24ZM121.8,73.98c-1.14,0-2.29.44-3.16,1.31-1.74,1.74-1.74,4.57,0,6.31.84.84,1.96,1.31,3.16,1.31s2.31-.46,3.16-1.31h0c1.74-1.74,1.74-4.57,0-6.31-.87-.87-2.01-1.3-3.16-1.3Z"/>
  </g>
</svg>