<?xml version="1.0" encoding="UTF-8"?>
<svg id="Layer_1" xmlns="http://www.w3.org/2000/svg" viewBox="0 0 200 200">
  <g>
    <path d="M87.77,146.88c-3.27,0-6.54-1.24-9.02-3.73l-36.36-36.36c-2.21-2.21-3.42-5.14-3.42-8.26s1.22-6.06,3.42-8.26l55.12-55.12c14.79-14.79,38.86-14.79,53.65,0,7.17,7.16,11.11,16.69,11.11,26.82s-3.95,19.66-11.11,26.82l-54.36,54.36c-2.49,2.49-5.76,3.73-9.02,3.73ZM124.33,34.04c-7.15,0-14.31,2.72-19.75,8.17l-55.12,55.12c-.43.43-.49.93-.49,1.19s.06.76.49,1.19l36.36,36.36c1.08,1.08,2.83,1.08,3.91,0l54.36-54.36c5.28-5.28,8.18-12.29,8.18-19.75s-2.91-14.48-8.18-19.75c-5.45-5.45-12.6-8.17-19.75-8.17Z"/>
    <g>
      <circle cx="122.99" cy="63.3" r="9.46"/>
      <path d="M122.99,77.75c-3.7,0-7.41-1.41-10.23-4.23-5.64-5.64-5.64-14.81,0-20.45,5.64-5.64,14.81-5.64,20.45,0,5.64,5.64,5.64,14.81,0,20.45-2.82,2.82-6.52,4.23-10.23,4.23ZM122.99,58.84c-1.14,0-2.29.44-3.16,1.31-1.74,1.74-1.74,4.57,0,6.31,1.74,1.74,4.57,1.74,6.31,0,1.74-1.74,1.74-4.57,0-6.31-.87-.87-2.01-1.31-3.16-1.31Z"/>
    </g>
  </g>
  <path d="M87.01,175.97c-3.08,0-6.16-1.17-8.5-3.52l-37.68-37.68c-4.11-4.11-4.11-10.81,0-14.92l9.65-9.65c1.95-1.95,5.12-1.95,7.07,0,1.95,1.95,1.95,5.12,0,7.07l-9.65,9.65c-.11.11-.16.24-.16.39s.05.28.16.39l37.68,37.68c.79.79,2.08.79,2.87,0l54.88-54.88c7.55-7.55,10.13-18.54,6.73-28.67-.88-2.62.53-5.45,3.15-6.33,2.62-.88,5.45.53,6.33,3.15,4.62,13.76,1.12,28.67-9.14,38.92l-54.88,54.88c-2.34,2.34-5.42,3.52-8.5,3.52Z"/>
</svg>