<?xml version="1.0" encoding="UTF-8"?>
<svg id="Layer_1" xmlns="http://www.w3.org/2000/svg" viewBox="0 0 200 200">
  <path d="M148.67,67.39h-65.33c-2.76,0-5-2.24-5-5s2.24-5,5-5h65.33c2.76,0,5,2.24,5,5s-2.24,5-5,5Z"/>
  <path d="M148.67,92.94h-65.33c-2.76,0-5-2.24-5-5s2.24-5,5-5h65.33c2.76,0,5,2.24,5,5s-2.24,5-5,5Z"/>
  <path d="M148.67,118.5H51.33c-2.76,0-5-2.24-5-5s2.24-5,5-5h97.33c2.76,0,5,2.24,5,5s-2.24,5-5,5Z"/>
  <path d="M148.67,144.05H51.33c-2.76,0-5-2.24-5-5s2.24-5,5-5h97.33c2.76,0,5,2.24,5,5s-2.24,5-5,5Z"/>
  <path d="M51.33,100.17c-1.28,0-2.56-.49-3.54-1.46-1.95-1.95-1.95-5.12,0-7.07l13.58-13.58-13.58-13.58c-1.95-1.95-1.95-5.12,0-7.07,1.95-1.95,5.12-1.95,7.07,0l17.11,17.11c1.95,1.95,1.95,5.12,0,7.07l-17.11,17.11c-.98.98-2.26,1.46-3.54,1.46Z"/>
</svg>