<?xml version="1.0" encoding="UTF-8"?>
<svg id="Layer_1" xmlns="http://www.w3.org/2000/svg" viewBox="0 0 200 200">
  <g>
    <circle cx="103.99" cy="51.45" r="15.74"/>
    <path d="M103.99,72.2c-11.44,0-20.74-9.31-20.74-20.74s9.31-20.74,20.74-20.74,20.74,9.31,20.74,20.74-9.31,20.74-20.74,20.74ZM103.99,40.71c-5.92,0-10.74,4.82-10.74,10.74s4.82,10.74,10.74,10.74,10.74-4.82,10.74-10.74-4.82-10.74-10.74-10.74Z"/>
  </g>
  <g>
    <circle cx="103.99" cy="99.33" r="15.74"/>
    <path d="M103.99,120.08c-11.44,0-20.74-9.31-20.74-20.74s9.31-20.74,20.74-20.74,20.74,9.31,20.74,20.74-9.31,20.74-20.74,20.74ZM103.99,88.59c-5.92,0-10.74,4.82-10.74,10.74s4.82,10.74,10.74,10.74,10.74-4.82,10.74-10.74-4.82-10.74-10.74-10.74Z"/>
  </g>
  <g>
    <circle cx="103.99" cy="147.22" r="15.74"/>
    <path d="M103.99,167.96c-11.44,0-20.74-9.31-20.74-20.74s9.31-20.74,20.74-20.74,20.74,9.31,20.74,20.74-9.31,20.74-20.74,20.74ZM103.99,136.47c-5.92,0-10.74,4.82-10.74,10.74s4.82,10.74,10.74,10.74,10.74-4.82,10.74-10.74-4.82-10.74-10.74-10.74Z"/>
  </g>
</svg>