<?xml version="1.0" encoding="UTF-8"?>
<svg id="Layer_1" xmlns="http://www.w3.org/2000/svg" viewBox="0 0 200 200">
  <path d="M110.18,165.79c-.69,0-1.39-.1-2.06-.3-8.87-2.68-18.34-10.95-18.41-26.08-.09-1.62-.58-12.6,2.7-22.91h-28.83c-8.93,0-16.4-5.72-17.01-13.02-.29-3.49.93-6.92,3.44-9.64.53-.57,1.1-1.1,1.71-1.59-1.41-2.12-2.2-4.68-2.2-7.52,0-4.41,2.39-8.44,6.06-11.1-.88-1.89-1.34-4.15-1.34-6.69v-.23c0-7.24,4.07-11.84,9.07-13.6-.39-1.47-.6-3.09-.6-4.84h0v-.04c.02-7.47,7.2-14.01,15.37-14.01h60.04c8.48,0,15.37,5.85,15.37,13.04v46.92c0,1.25-.47,2.45-1.31,3.38-.23.26-23.41,25.73-30.04,46.04-3.23,9.89-4.47,14.48-4.95,16.6-.44,1.95-1.68,3.64-3.4,4.64-1.1.64-2.35.97-3.61.97ZM111.01,155.92h0,0ZM63.18,98.42c-2.35,0-4.58.84-5.82,2.18-.61.66-.89,1.35-.83,2.04h0c.15,1.82,3.2,3.85,7.05,3.85h36.42c1.79,0,3.44.96,4.34,2.51s.88,3.46-.02,5.01c-5.57,9.54-4.64,24.75-4.63,24.9,0,.11.01.23.01.34,0,9.32,4.8,13.61,8.53,15.54.94-3.46,2.41-8.25,4.39-14.31,6.42-19.65,25.6-42.26,30.86-48.22v-45.01c0-1.24-2.09-3.04-5.37-3.04h-60.04c-3.07,0-5.37,2.45-5.37,4.04,0,4.03,1.37,4.03,2.37,4.03,2.76,0,5,2.24,5,5s-2.24,5-5,5h-6.98c-3.59,0-3.87,3.39-3.87,4.42v.23c0,3.42,1.02,3.42,2.87,3.42,2.76,0,5,2.24,5,5s-2.24,5-5,5h-1.35c-3.75,0-6.23,2.63-6.23,4.37,0,3.34,3.31,3.7,4.73,3.7,2.76,0,5,2.24,5,5s-2.24,5-5,5h-1.06Z"/>
</svg>