<?xml version="1.0" encoding="UTF-8"?>
<svg id="Layer_1" xmlns="http://www.w3.org/2000/svg" viewBox="0 0 200 200">
  <path d="M121.93,165.69h-60.04c-8.48,0-15.37-5.85-15.37-13.04v-46.92c0-1.25.47-2.45,1.31-3.38.23-.26,23.41-25.73,30.04-46.04,2.93-8.98,4.22-13.63,4.78-15.95.53-2.18,1.96-4.04,3.92-5.1,1.96-1.06,4.29-1.24,6.4-.5,4.05,1.44,17.25,7.54,17.33,25.73.09,1.62.58,12.6-2.7,22.91h28.83c8.93,0,16.4,5.72,17.01,13.02h0c.29,3.49-.93,6.92-3.44,9.64-.53.57-1.1,1.1-1.71,1.59,1.41,2.12,2.2,4.68,2.2,7.52,0,4.41-2.39,8.44-6.06,11.1.88,1.89,1.34,4.15,1.34,6.69v.22c0,7.24-4.07,11.84-9.07,13.6.39,1.47.6,3.09.6,4.84h0v.04c-.02,7.47-7.2,14.01-15.37,14.01ZM56.52,107.64v45.01c0,1.24,2.09,3.04,5.37,3.04h60.04c3.07,0,5.37-2.45,5.37-4.04,0-4.03-1.37-4.03-2.37-4.03-2.76,0-5-2.24-5-5s2.24-5,5-5h6.98c3.59,0,3.87-3.39,3.87-4.42v-.22c0-3.42-1.02-3.42-2.87-3.42-2.76,0-5-2.24-5-5s2.24-5,5-5h1.35c3.75,0,6.23-2.63,6.23-4.37,0-3.34-3.31-3.7-4.73-3.7-2.76,0-5-2.24-5-5s2.24-5,5-5h1.06c2.35,0,4.58-.84,5.82-2.18.61-.66.89-1.35.83-2.04h0c-.15-1.82-3.2-3.85-7.05-3.85h-36.42c-1.79,0-3.44-.96-4.34-2.51s-.88-3.46.02-5.01c5.57-9.54,4.64-24.75,4.63-24.9,0-.11-.01-.23-.01-.34,0-9.23-4.68-13.55-8.55-15.54-.96,3.54-2.42,8.34-4.37,14.31-6.42,19.65-25.6,42.26-30.86,48.22Z"/>
</svg>