<?xml version="1.0" encoding="UTF-8"?>
<svg id="Layer_1" xmlns="http://www.w3.org/2000/svg" viewBox="0 0 200 200">
  <path d="M163.28,93.31h-28.39c-10.74,0-19.48-8.74-19.48-19.48v-28.39c0-10.74,8.74-19.48,19.48-19.48h28.39c10.74,0,19.48,8.74,19.48,19.48v28.39c0,10.74-8.74,19.48-19.48,19.48ZM134.89,35.96c-5.23,0-9.48,4.25-9.48,9.48v28.39c0,5.23,4.25,9.48,9.48,9.48h28.39c5.23,0,9.48-4.25,9.48-9.48v-28.39c0-5.23-4.25-9.48-9.48-9.48h-28.39Z"/>
  <rect x="62.81" y="88.8" width="52.87" height="52.87" rx="15.82" ry="15.82"/>
  <path d="M53.69,174.04h-10.61c-5.74,0-10.41-4.67-10.41-10.41v-10.61c0-5.74,4.67-10.41,10.41-10.41h10.61c5.74,0,10.41,4.67,10.41,10.41v10.61c0,5.74-4.67,10.41-10.41,10.41ZM43.08,152.6c-.23,0-.41.19-.41.41v10.61c0,.23.19.41.41.41h10.61c.23,0,.41-.19.41-.41v-10.61c0-.23-.19-.41-.41-.41h-10.61Z"/>
</svg>