<?xml version="1.0" encoding="UTF-8"?>
<svg id="Layer_1" xmlns="http://www.w3.org/2000/svg" viewBox="0 0 200 200">
  <path d="M155.57,93.31h-28.39c-10.74,0-19.48-8.74-19.48-19.48v-28.39c0-10.74,8.74-19.48,19.48-19.48h28.39c10.74,0,19.48,8.74,19.48,19.48v28.39c0,10.74-8.74,19.48-19.48,19.48ZM127.18,35.96c-5.23,0-9.48,4.25-9.48,9.48v28.39c0,5.23,4.25,9.48,9.48,9.48h28.39c5.23,0,9.48-4.25,9.48-9.48v-28.39c0-5.23-4.25-9.48-9.48-9.48h-28.39Z"/>
  <path d="M92.14,141.67h-21.22c-8.73,0-15.82-7.1-15.82-15.82v-21.22c0-8.73,7.1-15.82,15.82-15.82h21.22c8.73,0,15.82,7.1,15.82,15.82v21.22c0,8.73-7.1,15.82-15.82,15.82ZM70.92,98.8c-3.21,0-5.82,2.61-5.82,5.82v21.22c0,3.21,2.61,5.82,5.82,5.82h21.22c3.21,0,5.82-2.61,5.82-5.82v-21.22c0-3.21-2.61-5.82-5.82-5.82h-21.22Z"/>
  <path d="M45.98,174.04h-10.61c-5.74,0-10.41-4.67-10.41-10.41v-10.61c0-5.74,4.67-10.41,10.41-10.41h10.61c5.74,0,10.41,4.67,10.41,10.41v10.61c0,5.74-4.67,10.41-10.41,10.41ZM35.36,152.6c-.23,0-.41.19-.41.41v10.61c0,.23.19.41.41.41h10.61c.23,0,.41-.19.41-.41v-10.61c0-.23-.19-.41-.41-.41h-10.61Z"/>
</svg>