<?xml version="1.0" encoding="UTF-8"?>
<svg id="Layer_1" xmlns="http://www.w3.org/2000/svg" viewBox="0 0 200 200">
  <g id="Layer_1-2">
    <path d="M145.89,57.36c-7.37-4.81-12.69-12.5-14.35-21.46-.36-1.94-.56-3.93-.56-5.97h-23.53l-.04,94.28c-.39,10.56-9.09,19.03-19.74,19.03-3.31,0-6.43-.83-9.18-2.27-6.3-3.31-10.6-9.91-10.6-17.5,0-10.91,8.87-19.78,19.77-19.78,2.04,0,3.99.34,5.84.91v-24.02c-1.91-.26-3.85-.42-5.84-.42-23.88,0-43.3,19.42-43.3,43.3,0,14.65,7.32,27.61,18.49,35.45,7.03,4.94,15.59,7.85,24.82,7.85,23.88,0,43.3-19.42,43.3-43.3v-47.81c9.23,6.62,20.53,10.52,32.73,10.52v-23.53c-6.57,0-12.69-1.95-17.82-5.3Z"/>
  </g>
</svg>