<?xml version="1.0" encoding="UTF-8"?>
<svg id="Layer_1" xmlns="http://www.w3.org/2000/svg" viewBox="0 0 200 200">
  <defs>
    <style>
      .cls-1 {
        fill: #1da1f2;
      }
    </style>
  </defs>
  <path class="cls-1" d="M71.04,163.43c58.91,0,91.14-48.81,91.14-91.14,0-1.39,0-2.77-.09-4.14,6.27-4.53,11.68-10.15,15.98-16.58-5.85,2.59-12.05,4.29-18.4,5.04,6.69-4,11.69-10.3,14.08-17.72-6.29,3.73-13.17,6.36-20.34,7.77-12.13-12.9-32.42-13.52-45.32-1.39-8.32,7.82-11.85,19.48-9.27,30.61-25.75-1.29-49.75-13.46-66.01-33.47-8.5,14.64-4.16,33.36,9.92,42.76-5.1-.15-10.08-1.53-14.54-4.01v.41c0,15.25,10.75,28.38,25.7,31.4-4.71,1.29-9.66,1.47-14.46.55,4.2,13.05,16.22,21.99,29.93,22.24-11.34,8.91-25.35,13.75-39.78,13.74-2.55,0-5.09-.16-7.62-.46,14.65,9.4,31.69,14.39,49.1,14.36"/>
</svg>