<?xml version="1.0" encoding="UTF-8"?>
<svg id="Layer_1" xmlns="http://www.w3.org/2000/svg" viewBox="0 0 200 200">
  <path d="M145.66,127.48h-25.51c-2.76,0-5-2.24-5-5s2.24-5,5-5h25.51c9.64,0,17.48-7.84,17.48-17.48s-7.84-17.48-17.48-17.48h-25.51c-2.76,0-5-2.24-5-5s2.24-5,5-5h25.51c15.15,0,27.48,12.33,27.48,27.48s-12.33,27.48-27.48,27.48Z"/>
  <path d="M79.85,127.48h-25.51c-15.15,0-27.48-12.33-27.48-27.48s12.33-27.48,27.48-27.48h25.51c2.76,0,5,2.24,5,5s-2.24,5-5,5h-25.51c-9.64,0-17.48,7.84-17.48,17.48s7.84,17.48,17.48,17.48h25.51c2.76,0,5,2.24,5,5s-2.24,5-5,5Z"/>
  <path d="M100.12,62.67c-2.76,0-5-2.24-5-5v-14.99c0-2.76,2.24-5,5-5s5,2.24,5,5v14.99c0,2.76-2.24,5-5,5Z"/>
  <path d="M119.07,62.67c-.95,0-1.92-.27-2.77-.84-2.3-1.53-2.92-4.64-1.38-6.93l10-14.99c1.53-2.3,4.64-2.92,6.93-1.38,2.3,1.53,2.92,4.64,1.38,6.93l-10,14.99c-.96,1.44-2.55,2.23-4.16,2.23Z"/>
  <path d="M81.17,62.67c-1.62,0-3.2-.78-4.16-2.23l-10-14.99c-1.53-2.3-.91-5.4,1.38-6.93,2.3-1.53,5.4-.91,6.93,1.38l10,14.99c1.53,2.3.91,5.4-1.38,6.93-.85.57-1.82.84-2.77.84Z"/>
  <path d="M100.12,162.32c-2.76,0-5-2.24-5-5v-14.99c0-2.76,2.24-5,5-5s5,2.24,5,5v14.99c0,2.76-2.24,5-5,5Z"/>
  <path d="M129.08,162.32c-1.62,0-3.2-.78-4.16-2.23l-10-14.99c-1.53-2.3-.91-5.4,1.38-6.93,2.3-1.53,5.4-.91,6.93,1.38l10,14.99c1.53,2.3.91,5.4-1.38,6.93-.85.57-1.82.84-2.77.84Z"/>
  <path d="M71.16,162.32c-.95,0-1.92-.27-2.77-.84-2.3-1.53-2.92-4.64-1.38-6.93l10-14.99c1.53-2.3,4.64-2.92,6.93-1.38,2.3,1.53,2.92,4.64,1.38,6.93l-10,14.99c-.96,1.44-2.55,2.23-4.16,2.23Z"/>
</svg>