<?xml version="1.0" encoding="UTF-8"?>
<svg id="Layer_1" xmlns="http://www.w3.org/2000/svg" viewBox="0 0 200 200">
  <path d="M131.57,168.66c-.26,0-.52,0-.78-.01-5.81-.18-11.78-.14-17.55-.1-2.61.02-5.21.03-7.82.03-3.53,0-7.05-.01-10.58-.03-8.81-.03-17.92-.06-26.84.09-6.47.1-11.97-2.48-16.81-7.92-13.65-15.34-12.82-44.76,1.67-59.4,8.76-8.84,19.98-9.51,28.6-1.71,8.7,7.88,27.35,7.61,36.95-.52,8.93-7.56,19.82-6.98,28.41,1.53,14.38,14.23,15.74,43.41,2.75,58.9-5.14,6.14-11.05,9.13-18.02,9.13ZM120.67,156.49c3.49,0,7,.03,10.5.14,3.57.11,6.24-1.29,9.21-4.82,8.88-10.59,7.84-32.91-1.99-42.64-5.42-5.36-9.36-3.3-12.19-.9-14.35,12.16-39.51,12.28-52.79.26-1.4-1.27-5.67-5.13-11.99,1.26-9.9,10-10.55,32.48-1.23,42.94,2.54,2.85,4.7,3.94,7.62,3.89,9.05-.16,18.22-.13,27.09-.09,3.51.01,7.03.03,10.54.03h0c2.58,0,5.15-.02,7.73-.03,2.47-.02,4.98-.03,7.51-.03Z"/>
  <path d="M100.11,97.79c-18.46,0-32.96-14.55-33.04-33.18-.04-8.89,3.39-17.25,9.65-23.53,6.26-6.28,14.6-9.74,23.5-9.74h.03c18.29.02,33.23,14.95,33.3,33.28.03,8.84-3.43,17.17-9.74,23.44-6.29,6.25-14.67,9.7-23.59,9.73h-.11ZM100.22,43.36c-5.67,0-10.99,2.2-14.98,6.2-3.99,4-6.17,9.33-6.15,15,.05,11.91,9.28,21.21,21.02,21.21h.07c5.74-.02,11.12-2.24,15.16-6.24,4.01-3.98,6.21-9.26,6.19-14.86-.05-11.74-9.6-21.3-21.29-21.31h-.02Z"/>
</svg>