<?xml version="1.0" encoding="UTF-8"?>
<svg id="Layer_1" xmlns="http://www.w3.org/2000/svg" viewBox="0 0 200 200">
  <path d="M149.48,131.73H49.77c-8.94,0-16.22-7.28-16.22-16.22V46.02c0-8.94,7.28-16.22,16.22-16.22h99.71c8.94,0,16.22,7.28,16.22,16.22v69.48c0,8.94-7.28,16.22-16.22,16.22ZM49.77,39.81c-3.43,0-6.22,2.79-6.22,6.22v69.48c0,3.43,2.79,6.22,6.22,6.22h99.71c3.43,0,6.22-2.79,6.22-6.22V46.02c0-3.43-2.79-6.22-6.22-6.22H49.77Z"/>
  <path d="M84.62,108.46c-.87,0-1.73-.22-2.51-.67-1.54-.89-2.49-2.54-2.49-4.33v-45.38c0-1.78.95-3.43,2.49-4.33,1.54-.89,3.45-.9,4.99,0l39.54,22.69c1.55.89,2.51,2.55,2.51,4.34s-.96,3.45-2.51,4.34l-39.54,22.69c-.77.44-1.63.66-2.49.66ZM89.62,66.71v28.11l24.49-14.05-24.49-14.05Z"/>
  <path d="M75.73,170.19c-7.13,0-12.94-5.8-12.94-12.94s5.8-12.94,12.94-12.94,12.94,5.8,12.94,12.94-5.8,12.94-12.94,12.94ZM75.73,154.32c-1.62,0-2.94,1.32-2.94,2.94s1.32,2.94,2.94,2.94,2.94-1.32,2.94-2.94-1.32-2.94-2.94-2.94Z"/>
  <path d="M161.45,162.26h-77.78c-2.76,0-5-2.24-5-5s2.24-5,5-5h77.78c2.76,0,5,2.24,5,5s-2.24,5-5,5Z"/>
  <path d="M67.79,162.26h-29.24c-2.76,0-5-2.24-5-5s2.24-5,5-5h29.24c2.76,0,5,2.24,5,5s-2.24,5-5,5Z"/>
</svg>