<?xml version="1.0" encoding="UTF-8"?>
<svg id="Layer_1" xmlns="http://www.w3.org/2000/svg" viewBox="0 0 200 200">
  <path d="M161.47,38.48c-4.36-4.38-10.39-6.91-16.57-6.86H55.1c-12.92,0-23.43,10.51-23.43,23.43v89.79c0,12.92,10.51,23.43,23.43,23.43h89.79c12.92,0,23.43-10.51,23.43-23.43V55.05c.02-6.18-2.48-12.22-6.86-16.57ZM85.54,157.27h-22.7c-1.41-4-2.16-8.18-2.23-12.43,0-1.16.05-2.33.16-3.49h5.54l7.36,7.36c.6.6,1.35,1.07,2.16,1.34l9.71,3.22v4ZM139.18,144.67c0,4.25-.7,8.44-2.07,12.47h-40.62v-7.85c-.03-2.33-1.54-4.4-3.75-5.14l-12.4-4.13-8.25-8.25c-1.03-1.02-2.4-1.59-3.86-1.59h-4.66c5.76-14.56,19.75-24.41,35.43-24.91v6.65l-4.11,7.84c-.65,1.33-.74,2.81-.29,4.15h-.3l10,15.02c.67,1.01,1.68,1.77,2.83,2.16l13.65,4.48c.93.25,1.9.25,2.77.01l15.63-3.13v2.23ZM106.21,122.01l3.1-6.13h0c.38-.77.57-1.63.57-2.47v-6.67c12.57,3.34,22.81,12.8,27.14,25.06l-14.36,2.88-10.28-3.43-6.18-9.24ZM157.36,144.85c0,3.28-1.33,6.49-3.66,8.8h0c-1.34,1.37-2.96,2.38-4.74,3,3.04-12.44,1.27-25.36-5.04-36.58-6.59-11.72-17.36-20.18-30.31-23.81-12.95-3.63-26.54-2-38.27,4.6-11.72,6.59-20.18,17.36-23.81,30.31-2.33,8.33-2.48,17.1-.44,25.49-4.96-1.71-8.42-6.44-8.41-11.8v-66.32h114.68v66.32ZM157.36,67.52H42.64v-12.47c0-3.28,1.33-6.49,3.66-8.8h0c2.31-2.33,5.51-3.67,8.79-3.67h89.8c6.87,0,12.46,5.59,12.46,12.46v12.46Z"/>
  <circle cx="55.13" cy="56.05" r="6.41" transform="translate(-6.08 105.39) rotate(-84.35)"/>
  <circle cx="73.07" cy="56.05" r="6.41"/>
</svg>