<?xml version="1.0" encoding="UTF-8"?>
<svg id="Layer_1" xmlns="http://www.w3.org/2000/svg" viewBox="0 0 200 200">
  <defs>
    <style>
      .cls-1 {
        fill: #fff;
      }
    </style>
  </defs>
  <polygon class="cls-1" points="151.14 150.42 125.87 149.76 51.03 56.4 74.84 56.77 151.14 150.42"/>
  <line class="cls-1" x1="93.31" y1="113.39" x2="59.73" y2="148.95"/>
  <g>
    <line class="cls-1" x1="149.86" y1="56.4" x2="112.51" y2="95.52"/>
    <path d="M153.93,144.55l-39.16-48.07c.09-.08.18-.14.26-.23l37.36-39.12c1.91-2,1.83-5.16-.16-7.07-2-1.91-5.16-1.83-7.07.16l-36.73,38.46-30.8-37.8c-.93-1.15-2.32-1.82-3.8-1.84l-23.81-.37c-1.93-.02-3.72,1.06-4.57,2.8-.85,1.74-.62,3.81.59,5.33l41.4,51.64-32.43,34.35c-1.9,2.01-1.8,5.17.2,7.07.97.91,2.2,1.36,3.43,1.36,1.33,0,2.65-.53,3.64-1.57l31.48-33.34,27.13,33.84c.92,1.15,2.3,1.83,3.77,1.87l25.26.66s.09,0,.13,0c1.9,0,3.65-1.08,4.49-2.79.86-1.75.62-3.85-.61-5.36ZM127.24,142.11L60.49,58.85l10.86.17,67.95,83.41-12.06-.32Z"/>
  </g>
</svg>