<?xml version="1.0" encoding="UTF-8"?>
<svg id="Layer_1" xmlns="http://www.w3.org/2000/svg" viewBox="0 0 200 200">
  <defs>
    <style>
      .cls-1 {
        fill: red;
      }
    </style>
  </defs>
  <path class="cls-1" d="M178.64,61.87c-1.81-6.82-7.14-12.18-13.91-14-12.27-3.31-61.49-3.31-61.49-3.31,0,0-49.22,0-61.49,3.31-6.77,1.82-12.1,7.19-13.91,14-3.29,12.35-3.29,38.13-3.29,38.13,0,0,0,25.77,3.29,38.13,1.81,6.82,7.14,12.18,13.91,14,12.27,3.31,61.49,3.31,61.49,3.31,0,0,49.21,0,61.49-3.31,6.77-1.82,12.1-7.19,13.91-14,3.29-12.35,3.29-38.13,3.29-38.13,0,0,0-25.77-3.29-38.13ZM87.15,123.4v-46.8l41.13,23.4-41.13,23.4Z"/>
</svg>