<?xml version="1.0" encoding="UTF-8"?>
<svg id="Layer_1" xmlns="http://www.w3.org/2000/svg" viewBox="0 0 200 200">
  <path d="M157.66,103.93c-2.76,0-5,2.24-5,5v37.46c0,9.89-8.04,17.93-17.93,17.93h-69.45c-9.89,0-17.93-8.04-17.93-17.93V53.6c0-9.89,8.04-17.93,17.93-17.93h9.65v10.56h-11.83c-2.76,0-5,2.24-5,5s2.24,5,5,5h11.83v13.17h-11.83c-2.76,0-5,2.24-5,5s2.24,5,5,5h11.83v13.17h-11.83c-2.76,0-5,2.24-5,5s2.24,5,5,5h11.83v13.17h-11.83c-2.76,0-5,2.24-5,5s2.24,5,5,5h11.83v9.21c0,2.76,2.24,5,5,5s5-2.24,5-5v-9.21h10.46c2.76,0,5-2.24,5-5s-2.24-5-5-5h-10.46v-13.17h10.46c2.76,0,5-2.24,5-5s-2.24-5-5-5h-10.46v-13.17h10.46c2.76,0,5-2.24,5-5s-2.24-5-5-5h-10.46v-13.17h10.46c2.76,0,5-2.24,5-5s-2.24-5-5-5h-10.46v-10.56h15.08c2.76,0,5-2.24,5-5s-2.24-5-5-5h-34.73c-15.4,0-27.93,12.53-27.93,27.93v92.79c0,15.4,12.53,27.93,27.93,27.93h69.45c15.4,0,27.93-12.53,27.93-27.93v-37.46c0-2.76-2.24-5-5-5Z"/>
  <path d="M129.01,92.81h23.87l3.64.15c.07,0,.14,0,.2,0,1.98,0,3.78-1.17,4.58-2.99.83-1.89.41-4.09-1.04-5.54l-43.54-43.54c-1.43-1.43-3.58-1.86-5.45-1.08-1.87.77-3.09,2.6-3.09,4.62v27.56c0,11.49,9.34,20.83,20.83,20.83Z"/>
</svg>